<?xml version="1.0" encoding="iso-8859-1"?>
<!-- Generator: Adobe Illustrator 19.0.0, SVG Export Plug-In . SVG Version: 6.00 Build 0)  -->
<svg version="1.1" id="Capa_1" xmlns="http://www.w3.org/2000/svg" xmlns:xlink="http://www.w3.org/1999/xlink" x="0px" y="0px"
	 viewBox="0 0 511.999 511.999" style="enable-background:new 0 0 511.999 511.999;" xml:space="preserve">
<path style="fill:#56BFA1;" d="M351.537,32.316h-11.545c-33.29,0-60.278,26.988-60.278,60.278v17.278h17.278
	c33.29,0,60.278-26.988,60.278-60.278V38.049C357.27,34.883,354.704,32.316,351.537,32.316z"/>
<path style="fill:#EFB078;" d="M284.248,175.382c-0.438,0-0.88-0.038-1.326-0.116c-4.133-0.727-6.895-4.664-6.174-8.797
	c0.034-0.197,2.257-13.411,0.311-28.545c-2.453-19.07-10.09-32.227-22.696-39.103c-3.686-2.01-5.045-6.63-3.033-10.316
	c2.011-3.686,6.631-5.045,10.317-3.034c16.988,9.266,27.552,26.878,30.549,50.929c2.166,17.381-0.357,32.077-0.466,32.694
	C291.079,172.785,287.869,175.382,284.248,175.382z"/>
<path style="fill:#EF6E4B;" d="M274.443,335.216c6.18-2.923,13.411-2.923,19.591,0c26.469,12.518,76.718-22.269,102.524-84.634
	c29.515-71.327-33.614-109.04-68.868-112.32s-43.452,29.515-43.452,29.515s-8.198-32.794-43.452-29.515
	s-98.382,40.992-68.868,112.32C197.725,312.947,247.974,347.734,274.443,335.216z"/>
<path style="fill:#DB5B3E;" d="M266.831,337.447c-27.625,3.866-71.406-30.059-94.913-86.863
	c-29.513-71.326,33.615-109.043,68.867-112.323c4.631-0.432,8.791-0.236,12.535,0.423c-23.555,5.306-61.924,42.862-43.098,111.9
	C224.116,301.544,248.762,334.086,266.831,337.447z"/>
<circle style="fill:#F7937C;" cx="345.903" cy="206.774" r="20.755"/>
<path style="fill:#56BFA1;" d="M314.016,339.777v132.299H73.751c-24.992,0-46.749-13.86-58.003-34.32
	c-5.191-9.439-8.142-20.288-8.142-31.826c0-18.27,7.401-34.806,19.374-46.779c11.973-11.973,28.5-19.374,46.77-19.374
	L314.016,339.777L314.016,339.777z"/>
<path style="fill:#49AA8C;" d="M314.016,437.757v34.32H73.751c-24.992,0-46.749-13.86-58.003-34.32H314.016z"/>
<path style="fill:#FFF2E9;" d="M504.395,472.078H314.02c-36.534,0-66.151-29.617-66.151-66.151l0,0
	c0-36.534,29.617-66.151,66.151-66.151h190.375l-10.137,28.129l-5.07,25.346v25.346l5.07,25.346L504.395,472.078z"/>
<g>
	<path style="fill:#E2D0C5;" d="M494.259,451.548H291.975c-4.2,0-7.604-3.404-7.604-7.604s3.404-7.604,7.604-7.604h202.284
		c4.2,0,7.604,3.404,7.604,7.604S498.459,451.548,494.259,451.548z"/>
	<path style="fill:#E2D0C5;" d="M494.259,375.509H291.985c-4.2,0-7.604-3.404-7.604-7.604s3.404-7.604,7.604-7.604H494.26
		c4.2,0,7.604,3.404,7.604,7.604C501.862,372.104,498.459,375.509,494.259,375.509z"/>
	<path style="fill:#E2D0C5;" d="M489.19,426.202H276.766c-4.201,0-7.604-3.404-7.604-7.604s3.404-7.604,7.604-7.604H489.19
		c4.2,0,7.604,3.404,7.604,7.604C496.794,422.798,493.389,426.202,489.19,426.202z"/>
	<path style="fill:#E2D0C5;" d="M489.19,400.855H276.776c-4.2,0-7.604-3.404-7.604-7.604s3.404-7.604,7.604-7.604H489.19
		c4.2,0,7.604,3.404,7.604,7.604C496.794,397.45,493.389,400.855,489.19,400.855z"/>
</g>
<g>
	<path style="fill:#49AA8C;" d="M323.536,479.683H133.161c-40.67,0-73.755-33.087-73.755-73.755s33.086-73.755,73.755-73.755
		h190.375c4.2,0,7.604,3.404,7.604,7.604s-3.404,7.604-7.604,7.604H133.161c-32.283,0-58.548,26.265-58.548,58.547
		c0,32.283,26.265,58.548,58.548,58.548h190.375c4.2,0,7.604,3.404,7.604,7.604C331.141,476.278,327.736,479.683,323.536,479.683z"
		/>
	<path style="fill:#49AA8C;" d="M504.395,479.683H314.02c-40.67,0-73.755-33.087-73.755-73.755s33.086-73.755,73.755-73.755h190.375
		c4.2,0,7.604,3.404,7.604,7.604s-3.404,7.604-7.604,7.604H314.02c-32.283,0-58.548,26.265-58.548,58.547
		c0,32.283,26.265,58.548,58.548,58.548h190.375c4.2,0,7.604,3.404,7.604,7.604C512,476.278,508.596,479.683,504.395,479.683z"/>
	<path style="fill:#49AA8C;" d="M314.02,479.683H73.754C33.086,479.683,0,446.596,0,405.928c0-40.67,33.086-73.755,73.754-73.755
		H314.02c4.2,0,7.604,3.404,7.604,7.604s-3.404,7.604-7.604,7.604H73.754c-32.282,0-58.547,26.265-58.547,58.547
		c0,32.283,26.265,58.548,58.547,58.548H314.02c4.2,0,7.604,3.404,7.604,7.604C321.625,476.278,318.221,479.683,314.02,479.683z"/>
</g>
<g>
</g>
<g>
</g>
<g>
</g>
<g>
</g>
<g>
</g>
<g>
</g>
<g>
</g>
<g>
</g>
<g>
</g>
<g>
</g>
<g>
</g>
<g>
</g>
<g>
</g>
<g>
</g>
<g>
</g>
</svg>
