<?xml version="1.0" encoding="iso-8859-1"?>
<!-- Generator: Adobe Illustrator 19.0.0, SVG Export Plug-In . SVG Version: 6.00 Build 0)  -->
<svg version="1.1" id="Capa_1" xmlns="http://www.w3.org/2000/svg" xmlns:xlink="http://www.w3.org/1999/xlink" x="0px" y="0px"
	 viewBox="0 0 512 512" style="enable-background:new 0 0 512 512;" xml:space="preserve">
<path style="fill:#605B58;" d="M149.575,273.522c-4.328,0-7.837-3.509-7.837-7.837V248.17c0-4.328,3.509-7.837,7.837-7.837
	c4.328,0,7.837,3.509,7.837,7.837v17.516C157.412,270.013,153.903,273.522,149.575,273.522z"/>
<path style="fill:#D19F71;" d="M153.564,256.023c-0.003,0-0.006,0-0.009,0l-19.709-0.025c-4.328-0.005-7.833-3.518-7.826-7.847
	c0.005-4.325,3.513-7.826,7.837-7.826c0.003,0,0.006,0,0.009,0l19.709,0.025c4.328,0.005,7.833,3.518,7.826,7.847
	C161.395,252.52,157.888,256.023,153.564,256.023z"/>
<polyline style="fill:#49AA8C;" points="206.494,412.365 198.888,512 243.76,457.59 287.962,380.504 "/>
<polyline style="fill:#56BFA1;" points="241.267,412.365 246.7,510.913 377.098,428.328 340.491,370.239 "/>
<polygon style="fill:#49AA8C;" points="340.491,370.239 377.098,428.328 330.708,457.708 303.309,388.983 "/>
<path style="fill:#F7CB92;" d="M342.502,151.791V355.17c0,31.587-25.61,57.198-57.198,57.198H176.081V324.22h-27.742l1.452-96.141
	l0.397-26.52l147.54-38.181L342.502,151.791z"/>
<path style="fill:#E2B27F;" d="M342.502,171.205V355.17c0,31.587-25.61,57.198-57.198,57.198h-17.136
	c59.361-59.371,0-184.289,0-184.289H149.791l0.397-26.52l147.54-38.181L342.502,171.205z"/>
<polygon style="fill:#56BFA1;" points="125.822,135.968 312.356,0 368.266,113.121 248.315,151.791 "/>
<polygon style="fill:#49AA8C;" points="312.356,0 291.155,144.477 368.266,113.121 "/>
<path style="fill:#BA7052;" d="M262.645,201.559v90.57c0,16.362,13.264,29.627,29.627,29.627h82.248
	c14.808,0,26.813-12.005,26.813-26.813l0,0c0-14.808-12.005-26.813-26.813-26.813h-8.322v-66.57"/>
<g>
	<path style="fill:#A35D45;" d="M374.521,268.129h-8.322v-66.57h-34.482v66.57h8.322c14.808,0,26.813,12.005,26.813,26.813l0,0
		c0,14.808-12.005,26.813-26.813,26.813h34.482c14.808,0,26.813-12.005,26.813-26.813l0,0
		C401.334,280.134,389.329,268.129,374.521,268.129z"/>
	<rect x="262.645" y="201.561" style="fill:#A35D45;" width="103.549" height="26.52"/>
</g>
<path style="fill:#BA7052;" d="M211.189,375.324c-1.386,0-2.788-0.368-4.059-1.139l-31.053-18.852l-31.053,18.852
	c-3.701,2.245-8.52,1.067-10.766-2.632c-2.245-3.699-1.068-8.52,2.632-10.766l35.12-21.322c2.499-1.517,5.635-1.517,8.133,0
	l35.12,21.322c3.7,2.245,4.878,7.066,2.632,10.766C216.421,373.981,213.837,375.324,211.189,375.324z"/>
<path style="fill:#605B58;" d="M323.615,135.456c-2.005,0-4.011-0.765-5.542-2.296c-3.06-3.061-3.06-8.023,0-11.083l40.454-40.454
	c3.062-3.061,8.023-3.061,11.083,0c3.06,3.061,3.06,8.023,0,11.083l-40.454,40.454C327.627,134.692,325.62,135.456,323.615,135.456z
	"/>
<path style="fill:#EFD873;" d="M441.089,18.483l-27.961,52.318c-10.24,19.174-30.208,31.148-51.952,31.148h-11.891V90.059
	c0-21.744,11.975-41.712,31.148-51.952l52.318-27.961c2.685-1.442,5.486-0.69,7.262,1.076
	C441.779,12.997,442.531,15.798,441.089,18.483z"/>
<path style="fill:#605B58;" d="M208.612,273.522c-4.328,0-7.837-3.509-7.837-7.837V248.17c0-4.328,3.509-7.837,7.837-7.837
	c4.328,0,7.837,3.509,7.837,7.837v17.516C216.448,270.013,212.94,273.522,208.612,273.522z"/>
<path style="fill:#56BFA1;" d="M73.181,157.228l46.152,44.332h262.84l24.373-78.389c2.08-6.692-3.319-13.344-10.294-12.687
	L79.06,140.376C70.698,141.164,67.123,151.409,73.181,157.228z"/>
<path style="fill:#49AA8C;" d="M310.086,118.603l8.237,82.955h63.851l24.373-78.389c2.08-6.692-3.319-13.344-10.294-12.687
	L310.086,118.603z"/>
<path style="fill:#E0C865;" d="M441.089,18.483l-27.961,52.318c-10.24,19.174-30.208,31.148-51.952,31.148h-11.891l90.728-90.728
	C441.779,12.997,442.531,15.798,441.089,18.483z"/>
<path style="fill:#D19F71;" d="M222.007,256.023c-0.002,0-0.003,0-0.005,0l-36.01-0.025c-4.328-0.003-7.835-3.514-7.831-7.842
	c0.003-4.326,3.511-7.831,7.837-7.831c0.002,0,0.003,0,0.005,0l36.009,0.025c4.328,0.003,7.835,3.514,7.831,7.842
	C229.841,252.517,226.332,256.023,222.007,256.023z"/>
<path style="fill:#BA7052;" d="M160.219,430.464c-0.436,0-0.877-0.007-1.323-0.022c-4.327-0.138-7.722-3.757-7.583-8.083
	c0.136-4.241,3.616-7.586,7.827-7.586c0.086,0,0.17,0.001,0.255,0.004c14.398,0.45,17.698-11.571,17.832-12.083
	c1.102-4.185,5.39-6.686,9.574-5.582c4.186,1.102,6.684,5.389,5.583,9.574C190.191,415.024,180.666,430.464,160.219,430.464z"/>
<g>
</g>
<g>
</g>
<g>
</g>
<g>
</g>
<g>
</g>
<g>
</g>
<g>
</g>
<g>
</g>
<g>
</g>
<g>
</g>
<g>
</g>
<g>
</g>
<g>
</g>
<g>
</g>
<g>
</g>
</svg>
