<?xml version="1.0" encoding="iso-8859-1"?>
<!-- Generator: Adobe Illustrator 19.0.0, SVG Export Plug-In . SVG Version: 6.00 Build 0)  -->
<svg version="1.1" id="Capa_1" xmlns="http://www.w3.org/2000/svg" xmlns:xlink="http://www.w3.org/1999/xlink" x="0px" y="0px"
	 viewBox="0 0 512 512" style="enable-background:new 0 0 512 512;" xml:space="preserve">
<polyline style="fill:#FFF2E9;" points="358.627,336.364 452.227,365.78 306.007,512 270.821,405.514 222.506,512 208.693,429.165 
	"/>
<polygon style="fill:#E2D0C5;" points="366.849,451.159 327.43,362.372 358.627,336.364 452.227,365.78 "/>
<path style="fill:#BA7052;" d="M156.966,241.621c-3.744,0-7.065-2.68-7.747-6.493c-0.765-4.283,2.087-8.376,6.37-9.14l23.518-4.202
	c4.277-0.768,8.375,2.086,9.14,6.37c0.765,4.283-2.087,8.376-6.37,9.14l-23.518,4.202
	C157.892,241.581,157.426,241.621,156.966,241.621z"/>
<path style="fill:#F7CB92;" d="M358.627,336.364c5,20.398-6.386,41.238-26.26,48.045l-32.152,11.029l-43.045,14.758l-72.476,28.36
	l25.209-42.541v-96.11h-34.663V194.678l46.259-22.72l5.735-2.815l74.052-6.659l66.164-5.945l-14.086,158.324L358.627,336.364z"/>
<path style="fill:#E2B27F;" d="M353.365,314.863l14.086-158.324l-66.164,5.945l-24.747,9.474H221.5l-46.259,22.72v52.908h77.786
	c19.907,0,37.212,13.67,41.813,33.038c10.238,43.099,16.388,89.035,5.376,114.814l32.152-11.029
	c19.873-6.806,31.259-27.646,26.26-48.045L353.365,314.863z"/>
<polyline style="fill:#EFB078;" points="321.762,169.144 168.42,177.021 168.42,148.022 170.956,121.107 175.166,76.248 182.344,0 
	324.696,0 329.29,48.89 "/>
<polygon style="fill:#DD9F6C;" points="324.696,0 336.909,129.989 249.987,161.021 259.671,0 "/>
<rect x="180.036" y="85.071" style="fill:#A35D45;" width="168.702" height="27.223"/>
<path style="fill:#EF6E4B;" d="M453.424,90.606c0,3.55-0.42,6.996-1.218,10.294l-65.933,13.613L257.339,141.14
	c-6.996-7.72-11.25-17.983-11.25-29.232c0-24.117,19.548-43.664,43.664-43.664c6.05,0,11.806,1.229,17.048,3.456
	c4.328-10.157,12.405-18.34,22.489-22.804l0.683-0.305c5.22-2.216,10.966-3.435,16.995-3.435c12.794,0,24.285,5.494,32.278,14.254
	c7.867-7.71,18.634-12.458,30.524-12.458C433.877,46.952,453.424,66.5,453.424,90.606z"/>
<path style="fill:#BA7052;" d="M398.962,249.487c0,16.312-13.224,29.537-29.537,29.537c-1.481,0-2.931-0.116-4.349-0.326
	c0.378,0.924,0.714,1.88,0.987,2.857c0.777,2.615,1.187,5.388,1.187,8.267c0,16.312-13.224,29.537-29.547,29.537
	c-16.312,0-29.537-13.224-29.537-29.537c0-7.752,2.983-14.8,7.867-20.062c-10.934-4.338-18.665-14.989-18.665-27.468
	c0-5.966,1.775-11.523,4.821-16.176c-8.13-5.262-13.518-14.401-13.518-24.81c0-2.279,0.263-4.496,0.756-6.628h100.217
	c3.865,4.989,6.166,11.26,6.166,18.056c0,6.071-1.838,11.712-4.979,16.407C395.863,234.446,398.962,241.599,398.962,249.487z"/>
<path style="fill:#A35D45;" d="M398.962,249.487c0,16.312-13.224,29.537-29.537,29.537c-1.481,0-2.931-0.116-4.349-0.326
	c0.378,0.924,0.714,1.88,0.987,2.857c-7.605-3.183-14.044-6.796-18.161-10.861c-19.348-19.127,2.101-35.713,2.101-35.713
	c-19.957-19.957-8.403-40.303-8.403-40.303h48.045c3.865,4.989,6.166,11.26,6.166,18.056c0,6.071-1.838,11.712-4.979,16.407
	C395.863,234.446,398.962,241.599,398.962,249.487z"/>
<path style="fill:#DB5B3E;" d="M453.424,90.606c0,3.55-0.42,6.996-1.218,10.294l-65.933,13.613
	c-9.096-3.739-14.558-8.624-14.558-14.936c0-37.719-42.425-50.681-42.425-50.681l0.683-0.305c5.22-2.216,10.966-3.435,16.995-3.435
	c12.794,0,24.285,5.494,32.278,14.254c7.867-7.71,18.634-12.458,30.524-12.458C433.877,46.952,453.424,66.5,453.424,90.606z"/>
<path style="fill:#EFB078;" d="M277.855,123.801L277.855,123.801c-11.513,15.255-29.517,24.223-48.629,24.223H70.06
	c-25.765,0-46.651,20.886-46.651,46.651l0,0h200.957h216.677c26.26,0,47.548-21.288,47.548-47.548l0,0
	c0-26.26-21.288-47.548-47.548-47.548h-114.56C307.372,99.578,289.368,108.547,277.855,123.801z"/>
<path style="fill:#DD9F6C;" d="M441.043,99.578h-69.325c26.26,0,47.548,21.288,47.548,47.548l0,0
	c0,26.26-21.288,47.548-47.548,47.548h69.325c26.26,0,47.548-21.288,47.548-47.548l0,0
	C488.591,120.867,467.304,99.578,441.043,99.578z"/>
<polygon style="fill:#A35D45;" points="209.903,396.016 257.171,410.196 184.694,438.556 "/>
<rect x="157.978" y="76.247" style="fill:#EFD873;" width="55.622" height="44.857"/>
<g>
	<path style="fill:#BA7052;" d="M249.298,241.619c-0.46,0-0.925-0.04-1.394-0.124l-44.114-7.878
		c-4.283-0.765-7.135-4.857-6.371-9.14c0.765-4.283,4.857-7.136,9.14-6.371l44.114,7.878c4.283,0.765,7.135,4.857,6.371,9.14
		C256.363,238.939,253.043,241.619,249.298,241.619z"/>
	<path style="fill:#BA7052;" d="M283.787,355.547c-12.945,0.001-20.457-8.993-26.263-15.942c-6.824-8.168-11.493-13.174-21.1-13.174
		c-3.771,0-10.659,8.918-14.07,16.59c-1.265,2.844-4.086,4.678-7.199,4.678s-5.935-1.833-7.199-4.678
		c-3.508-7.825-10.274-16.59-14.07-16.59c-9.607,0-14.277,5.006-21.101,13.174c-7.29,8.724-17.269,20.676-37.319,13.993
		c-4.128-1.376-6.358-5.837-4.983-9.965c1.376-4.128,5.839-6.358,9.965-4.983c9.482,3.162,12.858-0.303,20.246-9.147
		c6.638-7.946,15.731-18.828,33.192-18.828c9.051,0,16.305,6.814,21.268,13.557c4.963-6.743,12.217-13.557,21.269-13.557
		c17.463,0,26.554,10.882,33.192,18.827c7.388,8.844,10.764,12.308,20.246,9.147c4.128-1.375,8.588,0.855,9.965,4.983
		c1.376,4.127-0.855,8.589-4.983,9.965C290.763,354.959,287.097,355.547,283.787,355.547z"/>
</g>
<g>
</g>
<g>
</g>
<g>
</g>
<g>
</g>
<g>
</g>
<g>
</g>
<g>
</g>
<g>
</g>
<g>
</g>
<g>
</g>
<g>
</g>
<g>
</g>
<g>
</g>
<g>
</g>
<g>
</g>
</svg>
