<?xml version="1.0" encoding="iso-8859-1"?>
<!-- Generator: Adobe Illustrator 19.0.0, SVG Export Plug-In . SVG Version: 6.00 Build 0)  -->
<svg version="1.1" id="Capa_1" xmlns="http://www.w3.org/2000/svg" xmlns:xlink="http://www.w3.org/1999/xlink" x="0px" y="0px"
	 viewBox="0 0 498.702 498.702" style="enable-background:new 0 0 498.702 498.702;" xml:space="preserve">
<g>
	<path style="fill:#5F5B59;" d="M211.382,94.848c-3.002,0-5.846-1.792-7.043-4.745c-1.576-3.889,0.298-8.318,4.186-9.894
		c14.445-5.856,23.013-16.443,23.509-29.048c0.427-10.879-5.452-21.27-14.629-25.859c-7.987-3.993-18.08-3.42-29.997,1.704
		c-9.54,4.101-16.338,9.523-16.406,9.578c-3.271,2.629-8.053,2.107-10.68-1.163c-2.629-3.271-2.108-8.053,1.163-10.68
		c1.391-1.117,34.375-27.197,62.715-13.027c14.65,7.324,23.684,23.043,23.015,40.045c-0.729,18.557-13.06,34.456-32.984,42.532
		C213.299,94.668,212.332,94.848,211.382,94.848z"/>
	<polyline style="fill:#5F5B59;" points="69.095,164.913 0,198.855 0,218.25 69.095,218.25 	"/>
	<rect x="107.365" y="315.785" style="fill:#5F5B59;" width="110.914" height="86.604"/>
</g>
<rect x="83.055" y="394.782" style="fill:#736F6B;" width="233.973" height="102.73"/>
<path style="fill:#A76F54;" d="M242.716,267.098c11.831-27.653,39.281-47.03,71.269-47.03s59.438,19.377,71.269,47.03"/>
<polygon style="fill:#736F6B;" points="237.37,93.392 237.37,320.336 124.076,340.685 64.03,340.685 64.03,93.392 96.727,75.879 
	130.093,58.011 130.093,1.187 171.308,1.187 171.308,58.011 "/>
<g>
	<polygon style="fill:#5F5B59;" points="96.727,75.88 96.727,340.686 64.03,340.686 64.03,93.393 	"/>
	<rect x="64.03" y="107.61" style="fill:#5F5B59;" width="173.34" height="15.194"/>
</g>
<path style="fill:#FAF1E8;" d="M115.416,154.785v56.997c0,7.516-6.088,13.603-13.603,13.603c-7.516,0-13.603-6.088-13.603-13.603
	v-56.997c0-7.516,6.088-13.603,13.603-13.603c3.758,0,7.161,1.519,9.623,3.981C113.896,147.624,115.416,151.027,115.416,154.785z"/>
<path style="fill:#915D48;" d="M186.073,352.568c-30.489-9.552-49.207-22.517-49.207-36.789c0-20.572,38.926-38.42,95.883-47.252
	c24.33-3.778,51.952-5.915,81.236-5.915s56.906,2.137,81.236,5.915c56.956,8.833,95.883,26.68,95.883,47.252
	c0,14.272-18.719,27.237-49.207,36.789"/>
<path style="fill:#5F5B59;" d="M105.084,183.288c0,4.193-3.393,7.597-7.597,7.597H87.196v-15.194h10.291
	C101.691,175.692,105.084,179.085,105.084,183.288z"/>
<path style="fill:#E7D679;" d="M442.893,368.612c0,71.188-57.716,128.904-128.904,128.904c-71.198,0-128.904-57.716-128.904-128.904
	c0-5.429,0.334-10.788,0.993-16.045c4.193-33.821,21.494-63.581,46.665-84.042h0.01c24.33-3.778,51.952-5.915,81.236-5.915
	s56.906,2.137,81.236,5.915c13.745,11.172,25.151,25.13,33.355,41.003c6.807,13.178,11.416,27.693,13.32,43.039
	C442.559,357.825,442.893,363.183,442.893,368.612z"/>
<path style="fill:#D7C66B;" d="M428.58,309.529l-0.01,0.01c0,0-107.44-37.052-164.416,19.914
	c-56.966,56.976-20.37,146.214,49.835,168.063c-71.198,0-128.904-57.716-128.904-128.904c0-5.429,0.334-10.788,0.993-16.045
	c4.193-33.821,21.494-63.581,46.665-84.042h0.01c24.33-3.778,51.952-5.915,81.236-5.915s56.906,2.137,81.236,5.915
	C408.969,279.699,420.375,293.657,428.58,309.529z"/>
<g>
	<path style="fill:#736F6B;" d="M266.89,362.88c-1.944,0-3.889-0.741-5.371-2.225l-34.945-34.944c-2.967-2.967-2.967-7.776,0-10.743
		c2.967-2.967,7.777-2.967,10.743,0l34.945,34.944c2.967,2.967,2.967,7.776,0,10.743C270.778,362.139,268.834,362.88,266.89,362.88z
		"/>
	<path style="fill:#736F6B;" d="M231.945,362.88c-1.944,0-3.889-0.741-5.371-2.225c-2.967-2.967-2.967-7.777,0-10.743l34.945-34.944
		c2.967-2.967,7.777-2.967,10.743,0c2.967,2.967,2.967,7.776,0,10.743l-34.945,34.944
		C235.834,362.139,233.889,362.88,231.945,362.88z"/>
	<path style="fill:#736F6B;" d="M396.032,362.88c-1.944,0-3.889-0.741-5.371-2.225l-34.944-34.944
		c-2.967-2.967-2.967-7.777,0-10.743c2.967-2.967,7.777-2.967,10.743,0l34.944,34.944c2.967,2.967,2.967,7.777,0,10.743
		C399.921,362.139,397.976,362.88,396.032,362.88z"/>
	<path style="fill:#736F6B;" d="M361.089,362.88c-1.944,0-3.889-0.741-5.371-2.225c-2.967-2.967-2.967-7.776,0-10.743l34.944-34.944
		c2.967-2.967,7.777-2.967,10.743,0c2.967,2.967,2.967,7.776,0,10.743l-34.944,34.944
		C364.977,362.139,363.033,362.88,361.089,362.88z"/>
	<path style="fill:#736F6B;" d="M313.989,432.644c-28.897,0-57.796-11-79.795-32.999c-2.967-2.967-2.967-7.777,0-10.744
		c2.967-2.967,7.777-2.967,10.743,0c38.075,38.075,100.027,38.075,138.103,0c2.967-2.967,7.777-2.967,10.743,0
		c2.967,2.967,2.967,7.776,0,10.743C371.784,421.644,342.887,432.644,313.989,432.644z"/>
</g>
<g>
	<path style="fill:#A76F54;" d="M244.41,426.723c-1.54,0-3.092-0.466-4.436-1.435c-3.403-2.453-4.174-7.202-1.72-10.605l20.329-28.2
		c2.453-3.403,7.201-4.174,10.605-1.72c3.403,2.453,4.174,7.202,1.72,10.605l-20.329,28.2
		C249.094,425.628,246.768,426.723,244.41,426.723z"/>
	<path style="fill:#A76F54;" d="M286.395,449.677c-0.519,0-1.044-0.054-1.572-0.164c-4.106-0.864-6.733-4.893-5.869-8.999
		l7.87-37.381c0.864-4.105,4.888-6.733,8.999-5.869c4.106,0.864,6.733,4.893,5.869,8.999l-7.87,37.381
		C293.068,447.222,289.911,449.677,286.395,449.677z"/>
	<path style="fill:#A76F54;" d="M383.569,426.723c-2.359,0-4.684-1.095-6.169-3.155l-20.33-28.2
		c-2.453-3.403-1.683-8.151,1.72-10.605c3.404-2.453,8.152-1.683,10.605,1.72l20.33,28.2c2.453,3.403,1.683,8.151-1.72,10.605
		C386.661,426.257,385.107,426.723,383.569,426.723z"/>
	<path style="fill:#A76F54;" d="M341.583,449.677c-3.517,0-6.673-2.455-7.427-6.033l-7.87-37.381
		c-0.864-4.105,1.763-8.135,5.869-8.999c4.104-0.864,8.134,1.764,8.999,5.869l7.87,37.381c0.864,4.105-1.763,8.135-5.869,8.999
		C342.629,449.624,342.102,449.677,341.583,449.677z"/>
</g>
<g>
	<path style="fill:#8B8A88;" d="M201.814,222.598L201.814,222.598c-7.132,0-12.914-5.782-12.914-12.914v-60.772
		c0-7.132,5.782-12.914,12.914-12.914l0,0c7.132,0,12.914,5.782,12.914,12.914v60.772
		C214.728,216.816,208.946,222.598,201.814,222.598z"/>
	<circle style="fill:#8B8A88;" cx="175.737" cy="87.383" r="12.154"/>
</g>
<path style="fill:#E7D679;" d="M405.646,277.996c-3.717-0.689-7.587-1.347-11.588-1.965c-24.543-3.809-52.236-5.824-80.071-5.824
	c-27.845,0-55.528,2.016-80.071,5.824c-4.011,0.628-7.88,1.276-11.608,1.975c3.292-3.343,6.776-6.513,10.433-9.481h0.01
	c24.33-3.778,51.952-5.915,81.236-5.915c29.283,0,56.906,2.137,81.236,5.915C398.87,271.493,402.354,274.653,405.646,277.996z"/>
<path style="fill:#915D48;" d="M498.702,315.778c0,17.635-18.86,32.859-54.535,44.042c-0.527,0.162-1.043,0.263-1.56,0.304
	c-0.152-2.542-0.395-5.065-0.709-7.556c-0.314-2.553-0.709-5.095-1.185-7.597c26.427-8.438,42.796-19.58,42.796-29.192
	c0-11.648-24.462-27.926-77.863-37.782c-3.717-0.689-7.587-1.347-11.588-1.965c-24.543-3.809-52.236-5.824-80.071-5.824
	c-27.845,0-55.528,2.016-80.071,5.824c-4.011,0.628-7.88,1.276-11.608,1.975c-53.391,9.856-77.842,26.123-77.842,37.772
	c0,9.613,16.369,20.755,42.796,29.192c-0.476,2.502-0.871,5.044-1.185,7.597c-0.314,2.502-0.557,5.024-0.709,7.566
	c-0.517-0.051-1.043-0.152-1.56-0.314c-35.685-11.183-54.535-26.407-54.535-44.042c0-13.239,10.382-24.978,30.874-34.865
	c17.584-8.498,42.289-15.376,71.441-19.894c25.657-3.981,53.381-6.007,82.401-6.007c29.01,0,56.733,2.026,82.401,6.007
	c29.152,4.518,53.857,11.395,71.441,19.894C488.31,290.799,498.702,302.539,498.702,315.778z"/>
<g>
</g>
<g>
</g>
<g>
</g>
<g>
</g>
<g>
</g>
<g>
</g>
<g>
</g>
<g>
</g>
<g>
</g>
<g>
</g>
<g>
</g>
<g>
</g>
<g>
</g>
<g>
</g>
<g>
</g>
</svg>
