<?xml version="1.0" encoding="iso-8859-1"?>
<!-- Generator: Adobe Illustrator 19.0.0, SVG Export Plug-In . SVG Version: 6.00 Build 0)  -->
<svg version="1.1" id="Capa_1" xmlns="http://www.w3.org/2000/svg" xmlns:xlink="http://www.w3.org/1999/xlink" x="0px" y="0px"
	 viewBox="0 0 512 512" style="enable-background:new 0 0 512 512;" xml:space="preserve">
<path style="fill:#605B58;" d="M160.984,250.266c-4.448,0-8.052-2.279-8.052-5.091v-9.794c0-2.812,3.604-5.091,8.052-5.091
	s8.052,2.279,8.052,5.091v9.794C169.037,247.987,165.432,250.266,160.984,250.266z"/>
<path style="fill:#FFF2E9;" d="M140,243.792c-3.542,0-6.786-2.354-7.764-5.936c-1.169-4.29,1.361-8.717,5.652-9.887l24.553-6.693
	c4.289-1.169,8.717,1.36,9.887,5.652c1.169,4.29-1.361,8.717-5.652,9.886l-24.553,6.693C141.415,243.7,140.701,243.792,140,243.792z
	"/>
<path style="fill:#E2B27F;" d="M355.621,237.04c0-15.574,12.626-28.2,28.2-28.2l0,0c15.574,0,28.2,12.626,28.2,28.2v35.007
	c0,15.574-12.626,28.2-28.2,28.2h-50.525"/>
<path style="fill:#75706B;" d="M433.142,510.27c0-19.444-30.169-35.903-71.687-41.346h-59.963
	c-41.507,5.443-71.687,21.892-71.687,41.346"/>
<path style="fill:#E2B27F;" d="M361.456,344.679v124.867c0,16.559-13.424,29.983-29.983,29.983l0,0
	c-16.559,0-29.983-13.424-29.983-29.983v-97.413"/>
<path style="fill:#F7CB92;" d="M361.456,146.55v235.243c0,12.224-7.01,23.367-18.03,28.659L131.964,512l54.456-87.518v-16.343
	v-88.762h-27.228V149.771"/>
<path style="fill:#E2B27F;" d="M316.005,147.274v10.983H159.191v72.033h156.814v151.503c0,12.224-7.01,23.367-18.03,28.659
	l-146.645,70.421L131.964,512l211.463-101.548c11.02-5.292,18.03-16.434,18.03-28.659V146.55L316.005,147.274z"/>
<g>
	<path style="fill:#FFF2E9;" d="M355.625,162.882v83.862c0,25.789-20.915,46.693-46.703,46.693h-9.706V181.381L355.625,162.882z"/>
	<path style="fill:#FFF2E9;" d="M252.495,406.928c-24.192,0-45.39-13.071-56.904-32.518c-1.97,4.384-4.339,8.488-7.083,12.232
		c-9.59,13.082-22.577,20.286-36.57,20.286c-13.994,0-26.981-7.204-36.57-20.286c-9.038-12.33-14.015-28.592-14.015-45.79
		c0-4.447,3.604-8.052,8.052-8.052c4.448,0,8.052,3.605,8.052,8.052c0,27.555,15.468,49.972,34.48,49.972s34.48-22.418,34.48-49.972
		c0-4.447,3.604-8.052,8.052-8.052c4.448,0,8.052,3.605,8.052,8.052c0,27.555,22.418,49.972,49.972,49.972
		s49.972-22.418,49.972-49.972c0-4.447,3.604-8.052,8.052-8.052s8.052,3.605,8.052,8.052
		C318.571,377.286,288.93,406.928,252.495,406.928z"/>
</g>
<path style="fill:#605B58;" d="M207.77,250.266c-4.448,0-8.052-3.605-8.052-8.052v-15.488c0-4.447,3.604-8.052,8.052-8.052
	c4.448,0,8.052,3.605,8.052,8.052v15.488C215.823,246.661,212.218,250.266,207.77,250.266z"/>
<g>
	<polyline style="fill:#FFF2E9;" points="186.419,424.482 131.964,512 258.893,451.05 209.538,432.957 	"/>
	<path style="fill:#FFF2E9;" d="M242.007,244.116c-0.702,0-1.414-0.092-2.125-0.286l-50.76-13.844c-4.29-1.17-6.82-5.597-5.65-9.887
		c1.17-4.291,5.603-6.819,9.887-5.649l50.76,13.844c4.29,1.17,6.82,5.597,5.65,9.887
		C248.793,241.761,245.548,244.116,242.007,244.116z"/>
</g>
<polygon style="fill:#E2D0C5;" points="355.625,162.882 355.625,198.558 299.216,198.558 299.216,181.38 "/>
<path style="fill:#75706B;" d="M472.284,129.843c-3.394,12.982-15.2,22.564-29.246,22.564c-16.695,0-30.228-13.533-30.228-30.228
	c0-3.067,0.461-6.026,1.31-8.816h-44.763c0-62.605-50.752-113.356-113.357-113.356S142.642,50.758,142.642,113.363H84.076
	c-37.564,0-68.014,30.451-68.014,68.014l0,0h479.877l0,0C495.938,160.768,486.761,142.316,472.284,129.843z"/>
<path style="fill:#605B58;" d="M495.937,181.376H392.878c0-37.567-30.449-68.015-68.015-68.015h89.263
	c-0.848,2.791-1.31,5.744-1.31,8.815c0,16.695,13.528,30.234,30.223,30.234c14.043,0,25.853-9.588,29.246-22.568
	c7.236,6.238,13.152,13.968,17.253,22.718C493.64,161.299,495.937,171.069,495.937,181.376z"/>
<circle style="fill:#8E8C8A;" cx="194.802" cy="66.029" r="17.714"/>
<path style="fill:#605B58;" d="M369.355,113.366h-53.779C315.577,50.762,288.907,0,256.001,0
	C318.605,0,369.355,50.762,369.355,113.366z"/>
<g>
</g>
<g>
</g>
<g>
</g>
<g>
</g>
<g>
</g>
<g>
</g>
<g>
</g>
<g>
</g>
<g>
</g>
<g>
</g>
<g>
</g>
<g>
</g>
<g>
</g>
<g>
</g>
<g>
</g>
</svg>
