<?xml version="1.0" encoding="iso-8859-1"?>
<!-- Generator: Adobe Illustrator 19.0.0, SVG Export Plug-In . SVG Version: 6.00 Build 0)  -->
<svg version="1.1" id="Capa_1" xmlns="http://www.w3.org/2000/svg" xmlns:xlink="http://www.w3.org/1999/xlink" x="0px" y="0px"
	 viewBox="0 0 512 512" style="enable-background:new 0 0 512 512;" xml:space="preserve">
<path style="fill:#75706B;" d="M405.99,512H106.01c-30.271,0-54.81-24.539-54.81-54.81V54.81C51.2,24.539,75.739,0,106.01,0h299.979
	C436.261,0,460.8,24.539,460.8,54.81v402.379C460.8,487.461,436.261,512,405.99,512z"/>
<path style="fill:#E2D0C5;" d="M413.78,79.735v316.562H98.22V79.735c0-18.066,14.649-32.716,32.716-32.716h250.128
	C399.13,47.019,413.78,61.669,413.78,79.735z"/>
<g>
	<path style="fill:#75706B;" d="M375.118,111.564H141.054c-4.329,0-7.837-3.509-7.837-7.837s3.508-7.837,7.837-7.837h234.064
		c4.329,0,7.837,3.509,7.837,7.837S379.447,111.564,375.118,111.564z"/>
	<path style="fill:#75706B;" d="M375.118,158.793H141.054c-4.329,0-7.837-3.509-7.837-7.837c0-4.328,3.508-7.837,7.837-7.837
		h234.064c4.329,0,7.837,3.509,7.837,7.837C382.955,155.284,379.447,158.793,375.118,158.793z"/>
	<path style="fill:#75706B;" d="M375.118,253.252H141.054c-4.329,0-7.837-3.509-7.837-7.837c0-4.328,3.508-7.837,7.837-7.837
		h234.064c4.329,0,7.837,3.509,7.837,7.837C382.955,249.743,379.447,253.252,375.118,253.252z"/>
	<path style="fill:#75706B;" d="M230.922,347.711h-89.869c-4.329,0-7.837-3.509-7.837-7.837s3.508-7.837,7.837-7.837h89.869
		c4.329,0,7.837,3.509,7.837,7.837S235.251,347.711,230.922,347.711z"/>
	<path style="fill:#75706B;" d="M375.118,206.023H141.054c-4.329,0-7.837-3.509-7.837-7.837c0-4.328,3.508-7.837,7.837-7.837
		h234.064c4.329,0,7.837,3.509,7.837,7.837C382.955,202.514,379.447,206.023,375.118,206.023z"/>
	<path style="fill:#75706B;" d="M375.118,300.481H141.054c-4.329,0-7.837-3.509-7.837-7.837s3.508-7.837,7.837-7.837h234.064
		c4.329,0,7.837,3.509,7.837,7.837S379.447,300.481,375.118,300.481z"/>
</g>
<path style="fill:#EF6E4B;" d="M352.003,179.171l-26.672-18.036c-2.747-1.858-6.348-1.858-9.095,0l-26.672,18.036
	c-5.392,3.646-12.666-0.217-12.666-6.725V47.02h87.771v125.425C364.668,178.954,357.394,182.816,352.003,179.171z"/>
<path style="fill:#5B5652;" d="M381.064,39.184H130.937c-22.361,0-40.554,18.192-40.554,40.554v352.527
	c0,22.361,18.192,40.552,40.554,40.552h250.127c22.361,0,40.554-18.192,40.554-40.552V79.736
	C421.616,57.375,403.425,39.184,381.064,39.184z M130.937,54.857h250.127c13.718,0,24.88,11.161,24.88,24.879v308.724H106.058
	V79.737C106.057,66.018,117.219,54.857,130.937,54.857z M106.057,432.264v-28.13h142.106v53.009H130.937
	C117.219,457.143,106.057,445.982,106.057,432.264z M381.064,457.143H263.837v-53.009h142.106v28.13
	C405.943,445.982,394.782,457.143,381.064,457.143z"/>
<g>
</g>
<g>
</g>
<g>
</g>
<g>
</g>
<g>
</g>
<g>
</g>
<g>
</g>
<g>
</g>
<g>
</g>
<g>
</g>
<g>
</g>
<g>
</g>
<g>
</g>
<g>
</g>
<g>
</g>
</svg>
