<?xml version="1.0" encoding="iso-8859-1"?>
<!-- Generator: Adobe Illustrator 19.0.0, SVG Export Plug-In . SVG Version: 6.00 Build 0)  -->
<svg version="1.1" id="Capa_1" xmlns="http://www.w3.org/2000/svg" xmlns:xlink="http://www.w3.org/1999/xlink" x="0px" y="0px"
	 viewBox="0 0 512 512" style="enable-background:new 0 0 512 512;" xml:space="preserve">
<path style="fill:#A35D45;" d="M417.469,377.877v93.936c0,22.194-17.993,40.187-40.187,40.187H69.488
	c-18.62,0-34.711-10.836-42.308-26.54c-2.988-6.175-4.66-13.103-4.66-20.428c0-12.967,5.256-68.244,13.751-76.75
	c8.505-8.495,20.25-13.751,33.217-13.751h307.795c5.224,0,10.219-0.993,14.796-2.811
	C406.947,365.827,417.469,394.857,417.469,377.877z"/>
<path style="fill:#E2D0C5;" d="M392.078,378.534v53.237c-4.786,1.306-9.738,1.975-14.796,1.975H69.489
	c-8.359,0-16.227,3.26-22.141,9.164c-5.904,5.904-9.153,13.772-9.153,22.12c0,4.786,1.045,9.352,3.093,13.605
	c1.212,2.508,2.717,4.786,4.462,6.823H27.181c-2.988-6.175-4.66-13.103-4.66-20.428v-90.237L392.078,378.534z"/>
<path style="fill:#FFF2E9;" d="M405.663,394.732v89.286c0,9.738-7.899,17.638-17.648,17.638H40.765
	c-2.988-6.175-4.66-13.103-4.66-20.428v-90.237L405.663,394.732z"/>
<path style="fill:#BA7052;" d="M417.47,40.187v337.689c0,16.98-10.522,45.599-25.391,51.492c-4.577,1.818-9.571,2.811-14.796,2.811
	H69.489c-12.967,0-24.712,5.256-33.217,13.751c-8.495,8.505-13.751,6.134-13.751,19.101V46.968C22.52,21.023,43.543,0,69.489,0
	h307.795C399.477,0,417.47,17.993,417.47,40.187z"/>
<g>
	<path style="fill:#E2D0C5;" d="M401.795,461.082H60.133c-4.328,0-7.837-3.509-7.837-7.837c0-4.328,3.509-7.837,7.837-7.837h341.661
		c4.328,0,7.837,3.509,7.837,7.837C409.63,457.573,406.123,461.082,401.795,461.082z"/>
	<path style="fill:#E2D0C5;" d="M401.795,485.636H60.133c-4.328,0-7.837-3.509-7.837-7.837c0-4.328,3.509-7.837,7.837-7.837h341.661
		c4.328,0,7.837,3.509,7.837,7.837C409.63,482.127,406.123,485.636,401.795,485.636z"/>
</g>
<g>
	<path style="fill:#A35D45;" d="M392.078,415.262c-4.577,1.818-9.571,2.811-14.796,2.811H69.489c-4.44,0-8.73,0.629-12.802,1.781
		V1.782C36.968,7.354,22.52,25.465,22.52,46.969v418.063c0-0.432,0.021-0.838,0.032-1.256c-0.01,0.418-0.031,0.834-0.031,1.255
		c0,7.325,1.672,14.252,4.66,20.428c7.596,15.705,23.688,26.54,42.308,26.54h307.795c22.194,0,40.187-17.993,40.187-40.187v-93.936
		C417.47,394.856,406.948,409.369,392.078,415.262z M401.797,471.812c0,13.521-11.003,24.513-24.513,24.513H69.489
		c-9.341,0-17.899-4.023-23.74-10.867c-1.745-2.038-3.25-4.315-4.462-6.823c-2.048-4.253-3.093-8.819-3.093-13.605
		c0-8.349,3.25-16.217,9.153-22.12c5.914-5.904,13.782-9.164,22.141-9.164h307.795c5.057,0,10.01-0.669,14.796-1.975
		c1.954-0.533,3.887-1.181,5.778-1.933c1.337-0.533,2.654-1.118,3.939-1.745V471.812z"/>
	<path style="fill:#A35D45;" d="M417.47,69.809v195.667c-15.172,7.879-32.413,12.33-50.688,12.33
		c-60.844,0-110.163-49.33-110.163-110.163c0-60.844,49.319-110.163,110.163-110.163C385.058,57.48,402.298,61.931,417.47,69.809z"
		/>
</g>
<circle style="fill:#56BFA1;" cx="379.317" cy="155.104" r="110.163"/>
<path style="fill:#FFF2E9;" d="M430.83,136.074h-21.118c-6.277,0-11.364-5.088-11.364-11.364v-21.118
	c0-6.277-5.088-11.364-11.364-11.364h-15.328c-6.277,0-11.364,5.088-11.364,11.364v21.118c0,6.277-5.089,11.364-11.364,11.364
	h-21.118c-6.277,0-11.364,5.088-11.364,11.364v15.328c0,6.277,5.088,11.364,11.364,11.364h21.118
	c6.277,0,11.364,5.088,11.364,11.364v21.118c0,6.277,5.088,11.364,11.364,11.364h15.328c6.277,0,11.364-5.088,11.364-11.364v-21.118
	c0-6.277,5.089-11.364,11.364-11.364h21.118c6.277,0,11.364-5.088,11.364-11.364v-15.328
	C442.195,141.162,437.106,136.074,430.83,136.074z"/>
<g>
</g>
<g>
</g>
<g>
</g>
<g>
</g>
<g>
</g>
<g>
</g>
<g>
</g>
<g>
</g>
<g>
</g>
<g>
</g>
<g>
</g>
<g>
</g>
<g>
</g>
<g>
</g>
<g>
</g>
</svg>
