<?xml version="1.0" encoding="iso-8859-1"?>
<!-- Generator: Adobe Illustrator 19.0.0, SVG Export Plug-In . SVG Version: 6.00 Build 0)  -->
<svg version="1.1" id="Capa_1" xmlns="http://www.w3.org/2000/svg" xmlns:xlink="http://www.w3.org/1999/xlink" x="0px" y="0px"
	 viewBox="0 0 512 512" style="enable-background:new 0 0 512 512;" xml:space="preserve">
<path style="fill:#56BFA1;" d="M512,133.423v291.218c0,12.756-10.341,23.098-23.097,23.098H256H23.097
	C10.341,447.739,0,437.397,0,424.641V133.423c0-13.384,10.849-24.233,24.233-24.233h463.533C501.151,109.19,512,120.039,512,133.423
	z"/>
<path style="fill:#E2D0C5;" d="M484.427,118.82v277.388c0,12.878-10.44,23.318-23.319,23.318H256H50.891
	c-12.878,0-23.319-10.44-23.319-23.318V118.82"/>
<g>
	<path style="fill:#FFF2E9;" d="M256.003,113.716v305.81h-3.459c-7.262-18.307-25.119-31.242-45.996-31.242H50.89
		c-12.873,0-23.322-10.439-23.322-23.312V87.583c0-12.884,10.449-23.322,23.322-23.322h155.658
		C233.862,64.261,256.003,86.403,256.003,113.716z"/>
	<path style="fill:#FFF2E9;" d="M484.428,87.583v277.389c0,12.873-10.439,23.312-23.322,23.312H305.458
		c-2.968,0-5.883,0.261-8.704,0.773c-17.042,3.02-31.065,14.764-37.292,30.469h-3.459v-305.81c0-24.346,17.586-44.575,40.751-48.692
		c2.832-0.502,5.736-0.763,8.704-0.763h155.648C473.99,64.261,484.428,74.7,484.428,87.583z"/>
</g>
<path style="fill:#E2D0C5;" d="M296.754,65.024v324.033c-17.042,3.02-31.065,14.764-37.292,30.469h-3.459v-305.81
	C256.003,89.37,273.589,69.141,296.754,65.024z"/>
<g>
	<path style="fill:#75706B;" d="M202.667,132.476H75.874c-4.329,0-7.837-3.509-7.837-7.837c0-4.328,3.508-7.837,7.837-7.837h126.793
		c4.329,0,7.837,3.509,7.837,7.837C210.504,128.968,206.995,132.476,202.667,132.476z"/>
	<path style="fill:#75706B;" d="M202.667,170.832H75.874c-4.329,0-7.837-3.509-7.837-7.837c0-4.328,3.508-7.837,7.837-7.837h126.793
		c4.329,0,7.837,3.509,7.837,7.837C210.504,167.324,206.995,170.832,202.667,170.832z"/>
	<path style="fill:#75706B;" d="M145.812,365.934h-13.083c-4.329,0-7.837-3.509-7.837-7.837s3.508-7.837,7.837-7.837h13.083
		c4.329,0,7.837,3.509,7.837,7.837S150.14,365.934,145.812,365.934z"/>
	<path style="fill:#75706B;" d="M442.164,324.257H315.371c-4.329,0-7.837-3.509-7.837-7.837s3.508-7.837,7.837-7.837h126.793
		c4.329,0,7.837,3.509,7.837,7.837S446.492,324.257,442.164,324.257z"/>
	<path style="fill:#75706B;" d="M442.164,285.901H315.371c-4.329,0-7.837-3.509-7.837-7.837s3.508-7.837,7.837-7.837h126.793
		c4.329,0,7.837,3.509,7.837,7.837S446.492,285.901,442.164,285.901z"/>
	<path style="fill:#75706B;" d="M385.308,365.934h-13.082c-4.329,0-7.837-3.509-7.837-7.837s3.508-7.837,7.837-7.837h13.082
		c4.329,0,7.837,3.509,7.837,7.837S389.636,365.934,385.308,365.934z"/>
</g>
<g>
	<path style="fill:#5B5652;" d="M435.386,151.467H322.15c-4.329,0-7.837-3.509-7.837-7.837c0-4.328,3.508-7.837,7.837-7.837h113.236
		c4.329,0,7.837,3.509,7.837,7.837C443.223,147.959,439.714,151.467,435.386,151.467z"/>
	<path style="fill:#5B5652;" d="M375.827,151.467c-4.329,0-7.837-3.509-7.837-7.837V124.64c0-4.328,3.508-7.837,7.837-7.837
		c4.329,0,7.837,3.509,7.837,7.837v18.991C383.664,147.959,380.155,151.467,375.827,151.467z"/>
	<path style="fill:#5B5652;" d="M352.926,231.926c-2.196,0-4.378-0.917-5.929-2.708c-2.833-3.273-2.475-8.222,0.797-11.054
		c7.884-6.823,15.709-14.833,23.258-23.808c22.584-26.936,35.159-53.759,35.284-54.026c1.822-3.926,6.48-5.63,10.408-3.807
		c3.926,1.823,5.63,6.484,3.807,10.408c-0.543,1.17-13.585,28.985-37.496,57.505c-8.087,9.614-16.497,18.217-25.003,25.578
		C356.569,231.298,354.743,231.926,352.926,231.926z"/>
	<path style="fill:#5B5652;" d="M418.664,247.327c-1.817,0-3.644-0.629-5.125-1.911c-13.442-11.634-27.63-25.3-42.173-40.619
		c-14.658-15.434-24.137-26.72-24.533-27.192c-2.779-3.318-2.345-8.259,0.972-11.039c3.318-2.78,8.258-2.346,11.04,0.971
		c0.094,0.113,9.588,11.412,23.886,26.47c14.193,14.95,28.008,28.26,41.064,39.56c3.273,2.832,3.63,7.781,0.797,11.054
		C423.043,246.409,420.859,247.327,418.664,247.327z"/>
	<path style="fill:#5B5652;" d="M137.704,259.473h-36.572c-4.329,0-7.837-3.509-7.837-7.837v-48.065
		c0-4.328,3.508-7.837,7.837-7.837h36.572c17.572,0,31.868,14.296,31.868,31.869S155.276,259.473,137.704,259.473z M108.968,243.8
		h28.736c8.93,0,16.195-7.265,16.195-16.196s-7.265-16.196-16.195-16.196h-28.736V243.8z"/>
	<path style="fill:#5B5652;" d="M145.018,324.257h-43.887c-4.329,0-7.837-3.509-7.837-7.837v-64.784
		c0-4.328,3.508-7.837,7.837-7.837h43.887c22.182,0,40.228,18.046,40.228,40.229C185.246,306.21,167.2,324.257,145.018,324.257z
		 M108.968,308.583h36.05c13.539,0,24.554-11.015,24.554-24.555c0-13.54-11.015-24.555-24.554-24.555h-36.05L108.968,308.583
		L108.968,308.583z"/>
</g>
<g>
</g>
<g>
</g>
<g>
</g>
<g>
</g>
<g>
</g>
<g>
</g>
<g>
</g>
<g>
</g>
<g>
</g>
<g>
</g>
<g>
</g>
<g>
</g>
<g>
</g>
<g>
</g>
<g>
</g>
</svg>
