<?xml version="1.0" encoding="iso-8859-1"?>
<!-- Generator: Adobe Illustrator 19.0.0, SVG Export Plug-In . SVG Version: 6.00 Build 0)  -->
<svg version="1.1" id="Capa_1" xmlns="http://www.w3.org/2000/svg" xmlns:xlink="http://www.w3.org/1999/xlink" x="0px" y="0px"
	 viewBox="0 0 512 512" style="enable-background:new 0 0 512 512;" xml:space="preserve">
<path style="fill:#EFB078;" d="M314.016,350.284v132.299H73.752c-24.992,0-46.749-13.86-58.003-34.32
	c-5.191-9.439-8.142-20.288-8.142-31.824c0-18.27,7.401-34.806,19.374-46.779c11.973-11.974,28.5-19.375,46.77-19.375h240.265
	V350.284z"/>
<path style="fill:#DD9F6C;" d="M314.016,448.263v34.32H73.752c-24.992,0-46.749-13.86-58.003-34.32H314.016z"/>
<path style="fill:#FFF2E9;" d="M504.396,482.585H314.02c-36.534,0-66.151-29.617-66.151-66.151l0,0
	c0-36.534,29.617-66.151,66.151-66.151h190.375l-10.137,28.129l-5.07,25.346v25.346l5.07,25.346L504.396,482.585z"/>
<path style="fill:#DD9F6C;" d="M504.396,474.98h-58.577h-36.611h-35.781h-59.406c-32.283,0-58.548-26.265-58.548-58.547
	s26.265-58.547,58.548-58.547h59.406h35.781h36.611h58.577c4.2,0,7.604-3.404,7.604-7.604c0-4.199-3.404-7.604-7.604-7.604h-58.577
	h-36.611h-35.781h-59.406H205.553h-36.611h-35.781H73.755C33.087,342.678,0,375.765,0,416.434s33.087,73.755,73.755,73.755h59.406
	h35.781h36.611h108.468h59.406h35.781h36.611h58.577c4.2,0,7.604-3.404,7.604-7.604C512,478.386,508.596,474.98,504.396,474.98z
	 M110.396,416.434c0-29.199,21.486-53.47,49.478-57.841c-17.083,13.52-28.074,34.415-28.074,57.841
	c0,23.427,10.992,44.321,28.074,57.841C131.882,469.903,110.396,445.632,110.396,416.434z M123.018,474.083
	c-27.463-4.819-48.404-28.827-48.404-57.649s20.941-52.83,48.404-57.649c-16.944,13.525-27.83,34.334-27.83,57.649
	C95.188,439.749,106.075,460.558,123.018,474.083z M73.755,474.98c-32.283,0-58.548-26.264-58.548-58.547
	s26.265-58.547,58.548-58.547h14.623c-17.596,13.492-28.972,34.71-28.972,58.547c0,23.836,11.376,45.055,28.972,58.547H73.755z
	 M205.553,474.98c-32.283,0-58.547-26.264-58.547-58.547s26.264-58.547,58.547-58.547h63.683
	c-17.596,13.492-28.972,34.71-28.972,58.547c0,23.836,11.376,45.055,28.972,58.547H205.553z"/>
<g>
	<path style="fill:#E2D0C5;" d="M494.26,462.054H291.976c-4.201,0-7.604-3.404-7.604-7.604c0-4.199,3.404-7.604,7.604-7.604H494.26
		c4.2,0,7.604,3.404,7.604,7.604C501.863,458.65,498.459,462.054,494.26,462.054z"/>
	<path style="fill:#E2D0C5;" d="M494.26,386.015H291.985c-4.2,0-7.604-3.404-7.604-7.604s3.404-7.604,7.604-7.604H494.26
		c4.2,0,7.604,3.404,7.604,7.604S498.459,386.015,494.26,386.015z"/>
	<path style="fill:#E2D0C5;" d="M489.19,436.708H276.766c-4.201,0-7.604-3.404-7.604-7.604s3.404-7.604,7.604-7.604H489.19
		c4.2,0,7.604,3.404,7.604,7.604C496.794,433.303,493.39,436.708,489.19,436.708z"/>
	<path style="fill:#E2D0C5;" d="M489.19,411.362H276.777c-4.2,0-7.604-3.404-7.604-7.604s3.404-7.604,7.604-7.604H489.19
		c4.2,0,7.604,3.404,7.604,7.604C496.794,407.956,493.39,411.362,489.19,411.362z"/>
</g>
<path style="fill:#EF6E4B;" d="M197.984,189.854v132.299h240.265c24.992,0,46.749-13.86,58.003-34.32
	c5.191-9.439,8.142-20.288,8.142-31.824c0-18.27-7.401-34.806-19.374-46.779c-11.973-11.973-28.5-19.375-46.77-19.375H197.984
	V189.854z"/>
<path style="fill:#DB5B3E;" d="M197.984,287.833v34.32h240.265c24.992,0,46.749-13.86,58.003-34.32H197.984z"/>
<path style="fill:#FFF2E9;" d="M7.604,322.154h190.375c36.534,0,66.151-29.617,66.151-66.151l0,0
	c0-36.534-29.617-66.151-66.151-66.151H7.604l10.136,28.129l5.07,25.346v25.346l-5.07,25.346L7.604,322.154z"/>
<g>
	<path style="fill:#E2D0C5;" d="M220.024,301.623H17.74c-4.199,0-7.604-3.404-7.604-7.604c0-4.199,3.404-7.604,7.604-7.604h202.284
		c4.199,0,7.604,3.404,7.604,7.604C227.628,298.219,224.224,301.623,220.024,301.623z"/>
	<path style="fill:#E2D0C5;" d="M220.014,225.584H17.74c-4.199,0-7.604-3.404-7.604-7.604c0-4.199,3.404-7.604,7.604-7.604h202.273
		c4.199,0,7.604,3.404,7.604,7.604C227.618,222.18,224.213,225.584,220.014,225.584z"/>
	<path style="fill:#E2D0C5;" d="M235.234,276.277H22.81c-4.199,0-7.604-3.404-7.604-7.604c0-4.199,3.404-7.604,7.604-7.604h212.424
		c4.199,0,7.604,3.404,7.604,7.604C242.837,272.873,239.433,276.277,235.234,276.277z"/>
	<path style="fill:#E2D0C5;" d="M235.223,250.931H22.81c-4.199,0-7.604-3.404-7.604-7.604s3.404-7.604,7.604-7.604h212.413
		c4.199,0,7.604,3.404,7.604,7.604C242.827,247.526,239.423,250.931,235.223,250.931z"/>
</g>
<path style="fill:#46BEE8;" d="M314.016,29.417v132.299H73.752c-24.992,0-46.749-13.86-58.003-34.32
	c-5.191-9.439-8.142-20.288-8.142-31.824c0-18.27,7.401-34.806,19.374-46.779s28.5-19.374,46.77-19.374h240.265V29.417z"/>
<path style="fill:#35B2D3;" d="M314.016,127.396v34.32H73.752c-24.992,0-46.749-13.86-58.003-34.32H314.016z"/>
<path style="fill:#FFF2E9;" d="M504.396,161.718H314.02c-36.534,0-66.151-29.617-66.151-66.151l0,0
	c0-36.534,29.617-66.151,66.151-66.151h190.375l-10.137,28.129l-5.07,25.346v25.346l5.07,25.346L504.396,161.718z"/>
<g>
	<path style="fill:#35B2D3;" d="M504.396,154.114H314.021c-32.283,0-58.548-26.265-58.548-58.548s26.265-58.547,58.548-58.547
		h190.375c4.201,0,7.604-3.404,7.604-7.604s-3.404-7.604-7.604-7.604H314.021c-40.669,0-73.755,33.087-73.755,73.755
		c0,23.836,11.376,45.055,28.972,58.548H73.755c-32.283,0-58.548-26.265-58.548-58.548s26.265-58.547,58.548-58.547h282.113
		c4.199,0,7.604-3.404,7.604-7.604s-3.404-7.604-7.604-7.604H73.755C33.087,21.811,0,54.898,0,95.566s33.087,73.755,73.755,73.755
		h240.266h190.375c4.201,0,7.604-3.404,7.604-7.604C512,157.518,508.596,154.114,504.396,154.114z"/>
	<path style="fill:#35B2D3;" d="M133.161,169.322c-40.668,0-73.755-33.087-73.755-73.755s33.086-73.755,73.755-73.755
		c4.199,0,7.604,3.404,7.604,7.604s-3.404,7.604-7.604,7.604c-32.283,0-58.547,26.265-58.547,58.547
		c0,32.283,26.264,58.548,58.547,58.548c4.199,0,7.604,3.404,7.604,7.604C140.766,165.917,137.361,169.322,133.161,169.322z"/>
</g>
<g>
	<path style="fill:#E2D0C5;" d="M494.26,141.188H291.976c-4.201,0-7.604-3.404-7.604-7.604s3.404-7.604,7.604-7.604H494.26
		c4.2,0,7.604,3.404,7.604,7.604C501.863,137.783,498.459,141.188,494.26,141.188z"/>
	<path style="fill:#E2D0C5;" d="M494.26,65.148H291.985c-4.2,0-7.604-3.404-7.604-7.604s3.404-7.604,7.604-7.604H494.26
		c4.2,0,7.604,3.404,7.604,7.604S498.459,65.148,494.26,65.148z"/>
	<path style="fill:#E2D0C5;" d="M489.19,115.841H276.766c-4.201,0-7.604-3.404-7.604-7.604s3.404-7.604,7.604-7.604H489.19
		c4.2,0,7.604,3.404,7.604,7.604C496.794,112.436,493.39,115.841,489.19,115.841z"/>
	<path style="fill:#E2D0C5;" d="M489.19,90.494H276.777c-4.2,0-7.604-3.404-7.604-7.604s3.404-7.604,7.604-7.604H489.19
		c4.2,0,7.604,3.404,7.604,7.604C496.794,87.09,493.39,90.494,489.19,90.494z"/>
</g>
<path style="fill:#DB5B3E;" d="M438.242,182.252h-59.227c-0.059,0-0.117-0.004-0.176-0.004h-35.781H197.98h-59.407h-35.781H7.604
	c-4.199,0-7.604,3.404-7.604,7.604c0,4.199,3.404,7.604,7.604,7.604h95.188h35.781h59.315c0.029,0,0.059,0.004,0.089,0.004h0.18
	c32.203,0.096,58.372,26.319,58.372,58.542c0,32.282-26.265,58.547-58.548,58.547h-59.407h-35.783H7.604
	c-4.199,0-7.604,3.404-7.604,7.604c0,4.199,3.404,7.604,7.604,7.604h95.188h35.781h59.305c0.033,0,0.065,0.005,0.098,0.005h240.266
	c40.668,0,73.754-33.086,73.754-73.755S478.91,182.252,438.242,182.252z M388.982,313.652c16.943-13.525,27.83-34.334,27.83-57.649
	s-10.887-44.124-27.83-57.649c27.463,4.819,48.404,28.827,48.404,57.649S416.445,308.833,388.982,313.652z M271.735,256.003
	c0-23.833-11.374-45.051-28.967-58.542h100.465c32.203,0.095,58.371,26.318,58.371,58.542c0,32.283-26.264,58.547-58.547,58.547
	H242.763C260.359,301.058,271.735,279.839,271.735,256.003z M438.242,314.555h-14.626c17.6-13.492,28.978-34.714,28.978-58.552
	c0-23.833-11.373-45.051-28.966-58.542h14.615c32.283,0,58.547,26.265,58.547,58.548S470.525,314.555,438.242,314.555z"/>
<g>
</g>
<g>
</g>
<g>
</g>
<g>
</g>
<g>
</g>
<g>
</g>
<g>
</g>
<g>
</g>
<g>
</g>
<g>
</g>
<g>
</g>
<g>
</g>
<g>
</g>
<g>
</g>
<g>
</g>
</svg>
