<?xml version="1.0" encoding="iso-8859-1"?>
<!-- Generator: Adobe Illustrator 19.0.0, SVG Export Plug-In . SVG Version: 6.00 Build 0)  -->
<svg version="1.1" id="Capa_1" xmlns="http://www.w3.org/2000/svg" xmlns:xlink="http://www.w3.org/1999/xlink" x="0px" y="0px"
	 viewBox="0 0 512.001 512.001" style="enable-background:new 0 0 512.001 512.001;" xml:space="preserve">
<path style="fill:#A35D45;" d="M334.548,401.315v77.521c0,18.316-14.849,33.165-33.165,33.165H47.374
	c-15.367,0-28.646-8.942-34.915-21.903c-2.466-5.096-3.846-10.813-3.846-16.858c0-10.702,4.337-56.318,11.348-63.338
	c7.019-7.011,16.711-11.348,27.413-11.348h254.009c4.311,0,8.434-0.819,12.21-2.32C325.864,391.371,334.548,415.327,334.548,401.315
	z"/>
<path style="fill:#E2D0C5;" d="M313.594,401.857v43.934c-3.949,1.078-8.036,1.629-12.21,1.629H47.375
	c-6.898,0-13.392,2.69-18.272,7.563c-4.873,4.873-7.553,11.365-7.553,18.255c0,3.949,0.863,7.717,2.553,11.227
	c1,2.07,2.242,3.949,3.682,5.631H12.46c-2.466-5.096-3.846-10.813-3.846-16.858v-74.468L313.594,401.857z"/>
<path style="fill:#FFF2E9;" d="M324.804,415.224v73.684c0,8.036-6.519,14.556-14.564,14.556H23.671
	c-2.466-5.096-3.846-10.813-3.846-16.858v-74.468L324.804,415.224z"/>
<path style="fill:#D388BD;" d="M334.548,122.634v278.68c0,14.013-8.683,31.612-20.954,36.475c-3.777,1.5-7.899,2.32-12.21,2.32
	H47.375c-10.702,0-20.394,4.337-27.413,11.348c-7.011,7.019-11.348,11.081-11.348,21.782V128.231c0-21.411,17.35-38.76,38.76-38.76
	h254.009C319.699,89.47,334.548,104.319,334.548,122.634z"/>
<g>
	<path style="fill:#E2D0C5;" d="M321.612,469.98H39.655c-3.572,0-6.468-2.896-6.468-6.468s2.896-6.467,6.468-6.467h281.957
		c3.572,0,6.468,2.896,6.468,6.467C328.079,467.084,325.184,469.98,321.612,469.98z"/>
	<path style="fill:#E2D0C5;" d="M321.612,490.243H39.655c-3.572,0-6.468-2.896-6.468-6.467c0-3.572,2.896-6.468,6.468-6.468h281.957
		c3.572,0,6.468,2.896,6.468,6.468C328.079,487.347,325.184,490.243,321.612,490.243z"/>
</g>
<g>
	<path style="fill:#C476B2;" d="M313.594,432.167c-3.777,1.5-7.899,2.32-12.21,2.32H47.375c-3.664,0-7.204,0.519-10.565,1.47V90.939
		c-16.272,4.599-28.196,19.544-28.196,37.291v345.008c0-0.509,0.019-1,0.039-1.492c-0.019,0.496-0.038,0.991-0.038,1.491
		c0,6.045,1.38,11.761,3.846,16.858c6.269,12.96,19.549,21.903,34.915,21.903h254.009c18.316,0,33.165-14.849,33.165-33.165v-77.521
		C334.548,415.326,325.865,427.304,313.594,432.167z M321.614,478.835c0,11.159-9.081,20.23-20.23,20.23H47.375
		c-7.709,0-14.771-3.32-19.591-8.968c-1.441-1.682-2.682-3.561-3.682-5.631c-1.69-3.509-2.553-7.278-2.553-11.227
		c0-6.89,2.682-13.383,7.553-18.255c4.881-4.873,11.373-7.563,18.272-7.563h254.009c4.174,0,8.261-0.552,12.21-1.629
		c1.613-0.44,3.208-0.974,4.768-1.595c1.104-0.44,2.191-0.923,3.25-1.44v36.078H321.614z"/>
	<path style="fill:#C476B2;" d="M334.548,122.767v279.834c0,0.605-0.021,1.22-0.052,1.815H207.503
		c-14.02,0-26.131-8.157-31.847-19.976c-2.253-4.652-3.505-9.868-3.505-15.376v-0.25c0,0.083-0.01,0.156-0.01,0.24V89.47h129.11
		C319.641,89.47,334.548,104.376,334.548,122.767z"/>
</g>
<path style="fill:#A35D45;" d="M503.387,283.606v70.501c0,16.657-13.505,30.161-30.161,30.161H242.219
	c-13.975,0-26.052-8.132-31.753-19.919c-2.243-4.635-3.498-9.834-3.498-15.331c0-9.733,3.944-51.218,10.32-57.603
	c6.384-6.376,15.199-10.32,24.93-10.32h231.008c3.921,0,7.669-0.745,11.104-2.109C495.491,274.562,503.387,296.349,503.387,283.606z
	"/>
<path style="fill:#E2D0C5;" d="M484.331,284.1v39.956c-3.592,0.981-7.309,1.482-11.104,1.482H242.219
	c-6.273,0-12.179,2.447-16.617,6.877c-4.431,4.431-6.87,10.335-6.87,16.602c0,3.592,0.784,7.018,2.321,10.21
	c0.91,1.882,2.039,3.592,3.348,5.121h-13.935c-2.243-4.635-3.498-9.834-3.498-15.331v-67.725L484.331,284.1z"/>
<path style="fill:#FFF2E9;" d="M494.526,296.257v67.012c0,7.309-5.929,13.238-13.246,13.238H220.66
	c-2.243-4.635-3.498-9.834-3.498-15.331v-67.725L494.526,296.257z"/>
<path style="fill:#EFB078;" d="M503.388,30.162v253.444c0,12.743-7.897,29.799-19.056,34.221c-3.435,1.364-7.183,2.109-11.104,2.109
	H242.219c-9.733,0-18.547,3.944-24.93,10.32c-6.376,6.384-10.32,9.028-10.32,18.76V35.251C206.969,15.779,222.747,0,242.219,0
	h231.008C489.884,0,503.388,13.505,503.388,30.162z"/>
<g>
	<path style="fill:#E2D0C5;" d="M491.624,346.054H235.198c-3.248,0-5.881-2.633-5.881-5.881s2.633-5.881,5.881-5.881h256.425
		c3.248,0,5.881,2.633,5.881,5.881C497.505,343.42,494.871,346.054,491.624,346.054z"/>
	<path style="fill:#E2D0C5;" d="M491.624,364.481H235.198c-3.248,0-5.881-2.633-5.881-5.881c0-3.248,2.633-5.881,5.881-5.881
		h256.425c3.248,0,5.881,2.633,5.881,5.881C497.504,361.849,494.871,364.481,491.624,364.481z"/>
</g>
<g>
	<path style="fill:#DD9F6C;" d="M484.331,311.665c-3.435,1.364-7.183,2.109-11.104,2.109H242.219c-3.332,0-6.552,0.473-9.608,1.336
		V1.337c-14.799,4.183-25.644,17.775-25.644,33.915v313.766c0-0.463,0.017-0.91,0.034-1.357c-0.017,0.451-0.034,0.901-0.034,1.356
		c0,5.497,1.255,10.696,3.498,15.331c5.701,11.786,17.778,19.919,31.753,19.919h231.008c16.657,0,30.161-13.505,30.161-30.161
		v-70.501C503.388,296.348,495.491,307.242,484.331,311.665z M491.625,354.106c0,10.148-8.258,18.398-18.398,18.398H242.219
		c-7.011,0-13.434-3.019-17.817-8.156c-1.31-1.529-2.439-3.239-3.349-5.121c-1.538-3.192-2.321-6.619-2.321-10.21
		c0-6.266,2.439-12.171,6.87-16.602c4.439-4.431,10.344-6.877,16.617-6.877h231.008c3.796,0,7.513-0.502,11.104-1.482
		c1.467-0.4,2.918-0.887,4.336-1.451c1.004-0.4,1.992-0.839,2.956-1.309V354.106z"/>
	<path style="fill:#DD9F6C;" d="M427.678,107.725H310.845c-4.322,0-7.824-3.503-7.824-7.824s3.502-7.824,7.824-7.824h116.832
		c4.322,0,7.824,3.503,7.824,7.824S432,107.725,427.678,107.725z"/>
	<path style="fill:#DD9F6C;" d="M427.678,139.77H310.845c-4.322,0-7.824-3.503-7.824-7.824c0-4.321,3.502-7.824,7.824-7.824h116.832
		c4.322,0,7.824,3.503,7.824,7.824C435.501,136.267,432,139.77,427.678,139.77z"/>
</g>
<g>
</g>
<g>
</g>
<g>
</g>
<g>
</g>
<g>
</g>
<g>
</g>
<g>
</g>
<g>
</g>
<g>
</g>
<g>
</g>
<g>
</g>
<g>
</g>
<g>
</g>
<g>
</g>
<g>
</g>
</svg>
