<?xml version="1.0" encoding="iso-8859-1"?>
<!-- Generator: Adobe Illustrator 19.0.0, SVG Export Plug-In . SVG Version: 6.00 Build 0)  -->
<svg version="1.1" id="Capa_1" xmlns="http://www.w3.org/2000/svg" xmlns:xlink="http://www.w3.org/1999/xlink" x="0px" y="0px"
	 viewBox="0 0 512 512" style="enable-background:new 0 0 512 512;" xml:space="preserve">
<path style="fill:#46BEE8;" d="M511.997,93.312v291.217c0,12.756-10.341,23.097-23.097,23.097H255.998H23.097
	C10.341,407.626,0,397.286,0,384.528V93.312c0-13.384,10.849-24.233,24.233-24.233h463.531
	C501.148,69.079,511.997,79.928,511.997,93.312z"/>
<path style="fill:#E2D0C5;" d="M484.424,78.709v277.386c0,12.878-10.44,23.318-23.319,23.318H255.998H50.89
	c-12.878,0-23.319-10.44-23.319-23.318V78.709"/>
<g>
	<path style="fill:#FFF2E9;" d="M256.002,73.605v305.808h-3.459c-7.262-18.306-25.119-31.242-45.996-31.242H50.889
		c-12.873,0-23.322-10.438-23.322-23.312V47.473c0-12.884,10.449-23.322,23.322-23.322h155.658
		C233.86,24.151,256.002,46.292,256.002,73.605z"/>
	<path style="fill:#FFF2E9;" d="M484.425,47.473V324.86c0,12.873-10.438,23.312-23.322,23.312H305.456
		c-2.967,0-5.883,0.261-8.704,0.773c-17.042,3.02-31.065,14.764-37.292,30.469h-3.459V73.605c0-24.346,17.586-44.575,40.751-48.692
		c2.832-0.502,5.736-0.763,8.704-0.763h155.647C473.987,24.151,484.425,34.589,484.425,47.473z"/>
</g>
<path style="fill:#E2D0C5;" d="M296.752,24.913v324.031c-17.042,3.02-31.065,14.764-37.292,30.469h-3.459V73.605
	C256.002,49.259,273.587,29.03,296.752,24.913z"/>
<g>
	<path style="fill:#75706B;" d="M202.666,92.365H75.874c-4.328,0-7.837-3.509-7.837-7.837c0-4.328,3.509-7.837,7.837-7.837h126.792
		c4.328,0,7.837,3.509,7.837,7.837C210.503,88.857,206.994,92.365,202.666,92.365z"/>
	<path style="fill:#75706B;" d="M202.666,130.721H75.874c-4.328,0-7.837-3.509-7.837-7.837c0-4.328,3.509-7.837,7.837-7.837h126.792
		c4.328,0,7.837,3.509,7.837,7.837C210.503,127.212,206.994,130.721,202.666,130.721z"/>
	<path style="fill:#75706B;" d="M202.666,207.433H75.874c-4.328,0-7.837-3.509-7.837-7.837s3.509-7.837,7.837-7.837h126.792
		c4.328,0,7.837,3.509,7.837,7.837S206.994,207.433,202.666,207.433z"/>
	<path style="fill:#75706B;" d="M202.666,284.145H75.874c-4.328,0-7.837-3.509-7.837-7.837s3.509-7.837,7.837-7.837h126.792
		c4.328,0,7.837,3.509,7.837,7.837S206.994,284.145,202.666,284.145z"/>
	<path style="fill:#75706B;" d="M202.666,169.077H75.874c-4.328,0-7.837-3.509-7.837-7.837s3.509-7.837,7.837-7.837h126.792
		c4.328,0,7.837,3.509,7.837,7.837S206.994,169.077,202.666,169.077z"/>
	<path style="fill:#75706B;" d="M202.666,245.789H75.874c-4.328,0-7.837-3.509-7.837-7.837s3.509-7.837,7.837-7.837h126.792
		c4.328,0,7.837,3.509,7.837,7.837S206.994,245.789,202.666,245.789z"/>
	<path style="fill:#75706B;" d="M145.81,325.821h-13.082c-4.328,0-7.837-3.509-7.837-7.837c0-4.328,3.509-7.837,7.837-7.837h13.082
		c4.328,0,7.837,3.509,7.837,7.837C153.647,322.312,150.138,325.821,145.81,325.821z"/>
	<path style="fill:#75706B;" d="M442.161,92.365H315.369c-4.328,0-7.837-3.509-7.837-7.837c0-4.328,3.509-7.837,7.837-7.837h126.791
		c4.328,0,7.837,3.509,7.837,7.837C449.997,88.857,446.49,92.365,442.161,92.365z"/>
	<path style="fill:#75706B;" d="M442.161,130.721H315.369c-4.328,0-7.837-3.509-7.837-7.837c0-4.328,3.509-7.837,7.837-7.837
		h126.791c4.328,0,7.837,3.509,7.837,7.837C449.997,127.212,446.49,130.721,442.161,130.721z"/>
	<path style="fill:#75706B;" d="M442.161,207.433H315.369c-4.328,0-7.837-3.509-7.837-7.837s3.509-7.837,7.837-7.837h126.791
		c4.328,0,7.837,3.509,7.837,7.837S446.49,207.433,442.161,207.433z"/>
	<path style="fill:#75706B;" d="M442.161,284.145H315.369c-4.328,0-7.837-3.509-7.837-7.837s3.509-7.837,7.837-7.837h126.791
		c4.328,0,7.837,3.509,7.837,7.837S446.49,284.145,442.161,284.145z"/>
	<path style="fill:#75706B;" d="M442.161,169.077H315.369c-4.328,0-7.837-3.509-7.837-7.837s3.509-7.837,7.837-7.837h126.791
		c4.328,0,7.837,3.509,7.837,7.837S446.49,169.077,442.161,169.077z"/>
	<path style="fill:#75706B;" d="M442.161,245.789H315.369c-4.328,0-7.837-3.509-7.837-7.837s3.509-7.837,7.837-7.837h126.791
		c4.328,0,7.837,3.509,7.837,7.837S446.49,245.789,442.161,245.789z"/>
	<path style="fill:#75706B;" d="M385.306,325.821h-13.082c-4.328,0-7.837-3.509-7.837-7.837c0-4.328,3.509-7.837,7.837-7.837h13.082
		c4.328,0,7.837,3.509,7.837,7.837C393.143,322.312,389.634,325.821,385.306,325.821z"/>
</g>
<path style="fill:#FFCD7D;" d="M512,365.242c0,40.981-6.666,63.55-19.696,96.214c-0.491,1.233-1.181,2.926-1.964,4.88
	c-5.298,13.019-17.962,21.535-32.026,21.514l-77.991-0.157c-33.311-7.043-57.145-36.446-57.145-70.499v-29.8
	c0-12.539,8.223-23.594,20.229-27.199l0.366-0.104l11.253-3.354v-98.784c0-7.899,4.556-14.921,11.253-18.181
	c2.33-1.128,4.911-1.808,7.649-1.902c11.159-0.397,20.344,8.537,20.344,19.613v84.657c0-7.837,4.598-14.608,11.253-17.753
	c2.539-1.202,5.371-1.87,8.37-1.87c10.501,0,19.069,8.244,19.602,18.61v0.146c0.01,0.293,0.021,0.575,0.021,0.867
	c0,0,0.408,0.021,1.16,0.084c1.902-5.329,6.019-9.592,11.253-11.661c2.226-0.888,4.66-1.369,7.21-1.369
	c9.435,0,17.303,6.656,19.184,15.527c0.052,0,0.115,0.01,0.167,0.01c0.178,1.578,0.272,2.957,0.272,4.075v16.436
	c0-7.847,4.598-14.618,11.253-17.753c2.539-1.202,5.371-1.87,8.37-1.87c5.413,0,10.324,2.194,13.866,5.747
	C509.806,354.918,512,359.819,512,365.242z"/>
<g>
	<path style="fill:#E2AD60;" d="M366.279,239.771v172.647c0,3.103-2.518,5.622-5.622,5.622c-1.557,0-2.967-0.627-3.981-1.651
		c-1.024-1.014-1.651-2.414-1.651-3.971V257.952C355.026,250.053,359.582,243.031,366.279,239.771z"/>
	<path style="fill:#E2AD60;" d="M405.526,324.387v33.426c0,3.103-2.518,5.622-5.622,5.622c-1.557,0-2.967-0.627-3.981-1.651
		c-1.024-1.014-1.651-2.414-1.651-3.971v-15.673C394.272,334.303,398.87,327.532,405.526,324.387z"/>
	<path style="fill:#E2AD60;" d="M445.932,330.562v27.334c0,3.103-2.518,5.622-5.622,5.622c-1.557,0-2.967-0.627-3.981-1.651
		c-1.024-1.014-1.651-2.414-1.651-3.971v-15.673C436.58,336.894,440.697,332.631,445.932,330.562z"/>
	<path style="fill:#E2AD60;" d="M484.018,347.489v22.977c0,3.103-2.518,5.622-5.622,5.622c-1.557,0-2.967-0.627-3.981-1.651
		c-1.024-1.014-1.651-2.414-1.651-3.971v-5.224C472.764,357.395,477.362,350.624,484.018,347.489z"/>
	<path style="fill:#E2AD60;" d="M391.294,487.693c-33.311-7.043-57.145-36.446-57.145-70.499v-29.8
		c0-12.539,8.223-23.594,20.229-27.199l0.366-0.104l11.253-3.354h-10.971l-11.253,3.354l-0.366,0.104
		c-12.006,3.605-20.229,14.66-20.229,27.199v29.8c0,34.053,23.834,63.456,57.145,70.499l77.991,0.157
		c0.193,0,0.382-0.018,0.575-0.021L391.294,487.693z"/>
</g>
<g>
</g>
<g>
</g>
<g>
</g>
<g>
</g>
<g>
</g>
<g>
</g>
<g>
</g>
<g>
</g>
<g>
</g>
<g>
</g>
<g>
</g>
<g>
</g>
<g>
</g>
<g>
</g>
<g>
</g>
</svg>
