<?xml version="1.0" encoding="iso-8859-1"?>
<!-- Generator: Adobe Illustrator 19.0.0, SVG Export Plug-In . SVG Version: 6.00 Build 0)  -->
<svg version="1.1" id="Capa_1" xmlns="http://www.w3.org/2000/svg" xmlns:xlink="http://www.w3.org/1999/xlink" x="0px" y="0px"
	 viewBox="0 0 512 512" style="enable-background:new 0 0 512 512;" xml:space="preserve">
<path style="fill:#605B58;" d="M107.338,175.24c-4.345,0-7.866-3.522-7.866-7.866v-14.289c0-4.344,3.521-7.866,7.866-7.866
	c4.345,0,7.866,3.522,7.866,7.866v14.289C115.204,171.719,111.683,175.24,107.338,175.24z"/>
<path style="fill:#D19F71;" d="M87.976,160.943c-2.821,0-5.549-1.522-6.961-4.19c-2.032-3.84-0.564-8.6,3.275-10.631l22.913-12.12
	c3.844-2.033,8.6-0.564,10.632,3.275c2.032,3.84,0.564,8.6-3.275,10.631l-22.913,12.12C90.474,160.65,89.216,160.943,87.976,160.943
	z"/>
<path style="fill:#E2D0C5;" d="M431.899,415.437v34.67c0,34.181-75.26,61.893-168.095,61.893
	c-92.845,0-168.095-27.712-168.095-61.893v-34.67"/>
<path style="fill:#FFF2E9;" d="M321.021,357.231c64.664,8.608,110.878,31.421,110.878,58.205c0,34.181-75.26,61.893-168.095,61.893
	c-92.845,0-168.095-27.712-168.095-61.893c0-26.785,46.203-49.596,110.878-58.205"/>
<path style="fill:#F7CB92;" d="M321.021,275.043V408.56c-35.547,19.928-78.897,19.928-114.434,0v-76.727L321.021,275.043z"/>
<path style="fill:#E2B27F;" d="M321.021,238.452v75.906c-19.245,36.525-57.431,60.264-99.906,60.264h-14.528v-42.791
	L321.021,238.452z"/>
<path style="fill:#F7CB92;" d="M328.803,106.842c-0.617-34.579-17.375-67.145-45.788-86.863C264.862,7.382,242.818,0,219.052,0
	c-30.807,0-58.735,12.416-79.046,32.52c-20.299,20.105-32.97,47.923-33.261,78.731l-1.105,118.102h32.241l0.006,60.716v41.761
	h85.142c0.895,0,1.787-0.01,2.678-0.031c59.438-1.398,106.193-51.422,105.133-110.867L328.803,106.842z"/>
<path style="fill:#E2B27F;" d="M328.803,106.842c-0.617-34.579-17.375-67.145-45.788-86.863C264.862,7.382,242.818,0,219.052,0
	c-8.341,0-16.467,0.918-24.292,2.644c14.04,3.1,27.096,8.828,38.622,16.641c28.99,19.651,46.18,52.561,46.805,87.578l2.035,114.069
	c1.06,59.444-45.695,109.47-105.133,110.867c-0.89,0.021-1.783,0.031-2.678,0.031h48.617c0.895,0,1.787-0.01,2.678-0.031
	c59.438-1.398,106.193-51.422,105.133-110.867L328.803,106.842z"/>
<g>
	<path style="fill:#75706B;" d="M166.196,276.855c-11.454,0-21.683-5.35-28.317-13.681c-6.635,8.332-16.862,13.681-28.316,13.681
		c-4.345,0-7.866-3.522-7.866-7.866c0-4.344,3.521-7.866,7.866-7.866c11.277,0,20.45-9.174,20.45-20.45
		c0-4.344,3.521-7.866,7.866-7.866s7.866,3.522,7.866,7.866c0,11.277,9.175,20.45,20.451,20.45c4.345,0,7.866,3.522,7.866,7.866
		C174.062,273.333,170.541,276.855,166.196,276.855z"/>
	<path style="fill:#75706B;" d="M238.53,146.935v45.109c0,19.023,15.421,34.444,34.444,34.444h95.621
		c17.216,0,31.172-13.956,31.172-31.172l0,0c0-17.216-13.956-31.172-31.172-31.172h-9.674v-52.774
		c0-13.598-11.023-24.62-24.62-24.62h-35.584C265.477,86.748,238.53,113.694,238.53,146.935z"/>
</g>
<path style="fill:#605B58;" d="M368.595,164.142h-9.674v-52.774c0-13.598-11.023-24.62-24.62-24.62h-15.468v77.395h9.674
	c17.216,0,31.172,13.956,31.172,31.172l0,0c0,17.216-13.956,31.172-31.172,31.172h40.088c17.216,0,31.172-13.956,31.172-31.172l0,0
	C399.768,178.098,385.812,164.142,368.595,164.142z"/>
<path style="fill:#75706B;" d="M118.449,352.456c-0.437,0-0.88-0.007-1.328-0.022c-4.343-0.138-7.751-3.771-7.611-8.113
	c0.136-4.257,3.63-7.614,7.856-7.614c0.086,0,0.171,0.001,0.256,0.004c14.451,0.452,17.764-11.614,17.899-12.128
	c1.106-4.2,5.41-6.711,9.61-5.603c4.201,1.106,6.709,5.409,5.604,9.61C148.531,336.958,138.972,352.456,118.449,352.456z"/>
<path style="fill:#605B58;" d="M175.711,175.24c-4.345,0-7.866-3.522-7.866-7.866v-14.289c0-4.344,3.521-7.866,7.866-7.866
	c4.345,0,7.866,3.522,7.866,7.866v14.289C183.577,171.719,180.055,175.24,175.711,175.24z"/>
<circle style="fill:#FCD9B4;" cx="163.864" cy="72.365" r="19.866"/>
<path style="fill:#D19F71;" d="M191.287,160.973c-0.728,0-1.467-0.102-2.201-0.316l-41.865-12.178
	c-4.172-1.213-6.57-5.579-5.355-9.75c1.212-4.171,5.579-6.57,9.75-5.356l41.865,12.178c4.172,1.213,6.57,5.579,5.355,9.75
	C197.836,158.74,194.695,160.973,191.287,160.973z"/>
<g>
</g>
<g>
</g>
<g>
</g>
<g>
</g>
<g>
</g>
<g>
</g>
<g>
</g>
<g>
</g>
<g>
</g>
<g>
</g>
<g>
</g>
<g>
</g>
<g>
</g>
<g>
</g>
<g>
</g>
</svg>
