<?xml version="1.0" encoding="iso-8859-1"?>
<!-- Generator: Adobe Illustrator 19.0.0, SVG Export Plug-In . SVG Version: 6.00 Build 0)  -->
<svg version="1.1" id="Capa_1" xmlns="http://www.w3.org/2000/svg" xmlns:xlink="http://www.w3.org/1999/xlink" x="0px" y="0px"
	 viewBox="0 0 512 512" style="enable-background:new 0 0 512 512;" xml:space="preserve">
<path style="fill:#A35D45;" d="M453.474,377.877v93.936c0,22.194-17.993,40.187-40.187,40.187H105.493
	c-18.62,0-34.711-10.836-42.308-26.54c-2.988-6.175-4.66-13.103-4.66-20.428c0-12.967,5.256-68.244,13.751-76.75
	c8.505-8.495,20.25-13.751,33.217-13.751h307.795c5.224,0,10.219-0.993,14.796-2.811
	C442.952,365.827,453.474,394.857,453.474,377.877z"/>
<path style="fill:#E2D0C5;" d="M428.084,378.534v53.237c-4.786,1.306-9.738,1.975-14.796,1.975H105.494
	c-8.359,0-16.227,3.26-22.141,9.164c-5.904,5.904-9.153,13.772-9.153,22.12c0,4.786,1.045,9.352,3.093,13.605
	c1.212,2.508,2.717,4.786,4.462,6.823H63.186c-2.988-6.175-4.66-13.103-4.66-20.428v-90.237L428.084,378.534z"/>
<path style="fill:#FFF2E9;" d="M441.668,394.732v89.286c0,9.738-7.899,17.638-17.648,17.638H76.77
	c-2.988-6.175-4.66-13.103-4.66-20.428v-90.237L441.668,394.732z"/>
<path style="fill:#EFD873;" d="M453.475,40.187v337.689c0,16.98-10.522,37.929-25.391,43.822c-4.577,1.818-9.571,2.811-14.796,2.811
	H105.494c-12.967,0-24.712,5.256-33.217,13.751c-8.495,8.505-13.751,13.804-13.751,26.771V46.968C58.526,21.023,79.549,0,105.494,0
	h307.795C435.482,0,453.475,17.993,453.475,40.187z"/>
<g>
	<path style="fill:#E2D0C5;" d="M437.8,461.083H96.139c-4.328,0-7.837-3.509-7.837-7.837c0-4.328,3.509-7.837,7.837-7.837H437.8
		c4.328,0,7.837,3.509,7.837,7.837C445.637,457.574,442.129,461.083,437.8,461.083z"/>
	<path style="fill:#E2D0C5;" d="M437.8,485.636H96.139c-4.328,0-7.837-3.509-7.837-7.837c0-4.328,3.509-7.837,7.837-7.837H437.8
		c4.328,0,7.837,3.509,7.837,7.837C445.637,482.127,442.129,485.636,437.8,485.636z"/>
</g>
<path style="fill:#E0C865;" d="M428.084,415.262c-4.577,1.818-9.571,2.811-14.796,2.811H105.494c-4.44,0-8.73,0.629-12.802,1.781
	V1.782C72.974,7.354,58.525,25.465,58.525,46.969v418.063c0-0.616,0.023-1.212,0.046-1.808c-0.023,0.6-0.046,1.201-0.046,1.807
	c0,7.325,1.672,14.252,4.66,20.428c7.596,15.705,23.688,26.54,42.308,26.54h307.795c22.194,0,40.187-17.993,40.187-40.187v-93.936
	C453.475,394.856,442.953,409.369,428.084,415.262z M437.802,471.812c0,13.521-11.003,24.513-24.513,24.513H105.494
	c-9.341,0-17.899-4.023-23.74-10.867c-1.745-2.038-3.25-4.315-4.462-6.823c-2.048-4.253-3.093-8.819-3.093-13.605
	c0-8.349,3.25-16.217,9.153-22.12c5.914-5.904,13.782-9.164,22.141-9.164h307.795c5.057,0,10.01-0.669,14.796-1.975
	c1.954-0.533,3.887-1.181,5.778-1.933c1.337-0.533,2.654-1.118,3.939-1.745V471.812z"/>
<polygon style="fill:#EF6E4B;" points="209.423,151.165 165.538,121.489 121.652,151.165 121.652,0 209.423,0 "/>
<g>
</g>
<g>
</g>
<g>
</g>
<g>
</g>
<g>
</g>
<g>
</g>
<g>
</g>
<g>
</g>
<g>
</g>
<g>
</g>
<g>
</g>
<g>
</g>
<g>
</g>
<g>
</g>
<g>
</g>
</svg>
