<?xml version="1.0" encoding="iso-8859-1"?>
<!-- Generator: Adobe Illustrator 19.0.0, SVG Export Plug-In . SVG Version: 6.00 Build 0)  -->
<svg version="1.1" id="Capa_1" xmlns="http://www.w3.org/2000/svg" xmlns:xlink="http://www.w3.org/1999/xlink" x="0px" y="0px"
	 viewBox="0 0 512 512" style="enable-background:new 0 0 512 512;" xml:space="preserve">
<path style="fill:#E2D0C5;" d="M157.783,388.082H0V78.51c0-34.338,27.836-62.174,62.174-62.174l0,0
	c34.338,0,143.676,27.836,143.676,62.174v309.573"/>
<g>
	<path style="fill:#75706B;" d="M143.155,344.863H37.62c-4.328,0-7.837-3.509-7.837-7.837s3.509-7.837,7.837-7.837h105.535
		c4.328,0,7.837,3.509,7.837,7.837S147.483,344.863,143.155,344.863z"/>
	<path style="fill:#75706B;" d="M143.155,308.386H37.62c-4.328,0-7.837-3.509-7.837-7.837c0-4.328,3.509-7.837,7.837-7.837h105.535
		c4.328,0,7.837,3.509,7.837,7.837C150.992,304.877,147.483,308.386,143.155,308.386z"/>
	<path style="fill:#75706B;" d="M143.155,271.91H37.62c-4.328,0-7.837-3.509-7.837-7.837c0-4.328,3.509-7.837,7.837-7.837h105.535
		c4.328,0,7.837,3.509,7.837,7.837C150.992,268.401,147.483,271.91,143.155,271.91z"/>
	<path style="fill:#75706B;" d="M143.155,235.433H37.62c-4.328,0-7.837-3.509-7.837-7.837c0-4.328,3.509-7.837,7.837-7.837h105.535
		c4.328,0,7.837,3.509,7.837,7.837C150.992,231.924,147.483,235.433,143.155,235.433z"/>
</g>
<path id="SVGCleanerId_0" style="fill:#75706B;" d="M143.155,198.957H37.62c-4.328,0-7.837-3.509-7.837-7.837
	c0-4.328,3.509-7.837,7.837-7.837h105.535c4.328,0,7.837,3.509,7.837,7.837C150.992,195.448,147.483,198.957,143.155,198.957z"/>
<g>
	<path id="SVGCleanerId_0_1_" style="fill:#75706B;" d="M143.155,198.957H37.62c-4.328,0-7.837-3.509-7.837-7.837
		c0-4.328,3.509-7.837,7.837-7.837h105.535c4.328,0,7.837,3.509,7.837,7.837C150.992,195.448,147.483,198.957,143.155,198.957z"/>
</g>
<g>
	<path style="fill:#75706B;" d="M143.155,162.48H37.62c-4.328,0-7.837-3.509-7.837-7.837c0-4.328,3.509-7.837,7.837-7.837h105.535
		c4.328,0,7.837,3.509,7.837,7.837C150.992,158.971,147.483,162.48,143.155,162.48z"/>
	<path style="fill:#75706B;" d="M143.155,126.004H37.62c-4.328,0-7.837-3.509-7.837-7.837c0-4.328,3.509-7.837,7.837-7.837h105.535
		c4.328,0,7.837,3.509,7.837,7.837C150.992,122.495,147.483,126.004,143.155,126.004z"/>
	<path style="fill:#75706B;" d="M143.155,89.526H37.62c-4.328,0-7.837-3.509-7.837-7.837c0-4.328,3.509-7.837,7.837-7.837h105.535
		c4.328,0,7.837,3.509,7.837,7.837C150.992,86.017,147.483,89.526,143.155,89.526z"/>
</g>
<path style="fill:#FFF2E9;" d="M512,78.508v417.156H124.341V78.508c0-17.168-6.959-32.705-18.213-43.959S79.337,16.336,62.17,16.336
	h387.659C484.164,16.336,512,44.172,512,78.508z"/>
<g>
	<path style="fill:#75706B;" d="M288.397,465.121H171.368c-4.328,0-7.837-3.509-7.837-7.837c0-4.328,3.509-7.837,7.837-7.837
		h117.029c4.329,0,7.837,3.509,7.837,7.837C296.234,461.613,292.726,465.121,288.397,465.121z"/>
	<path style="fill:#75706B;" d="M288.397,303.542H171.368c-4.328,0-7.837,3.509-7.837,7.837v109.431
		c0,4.328,3.509,7.837,7.837,7.837h117.029c4.329,0,7.837-3.509,7.837-7.837V311.379
		C296.234,307.051,292.726,303.542,288.397,303.542z"/>
	<path style="fill:#75706B;" d="M349.002,246.261H171.368c-4.328,0-7.837-3.509-7.837-7.837s3.509-7.837,7.837-7.837h177.633
		c4.329,0,7.837,3.509,7.837,7.837S353.331,246.261,349.002,246.261z"/>
	<path style="fill:#75706B;" d="M288.397,173.31H171.368c-4.328,0-7.837-3.509-7.837-7.837c0-4.328,3.509-7.837,7.837-7.837h117.029
		c4.329,0,7.837,3.509,7.837,7.837C296.234,169.801,292.726,173.31,288.397,173.31z"/>
	<path style="fill:#75706B;" d="M288.397,136.832H171.368c-4.328,0-7.837-3.509-7.837-7.837c0-4.328,3.509-7.837,7.837-7.837
		h117.029c4.329,0,7.837,3.509,7.837,7.837C296.234,133.323,292.726,136.832,288.397,136.832z"/>
	<path style="fill:#75706B;" d="M288.397,100.356H171.368c-4.328,0-7.837-3.509-7.837-7.837c0-4.328,3.509-7.837,7.837-7.837
		h117.029c4.329,0,7.837,3.509,7.837,7.837C296.234,96.847,292.726,100.356,288.397,100.356z"/>
	<path style="fill:#75706B;" d="M283.172,63.879H166.143c-4.328,0-7.837-3.509-7.837-7.837s3.509-7.837,7.837-7.837h117.029
		c4.329,0,7.837,3.509,7.837,7.837S287.501,63.879,283.172,63.879z"/>
	<path style="fill:#75706B;" d="M466.031,465.121H349.002c-4.329,0-7.837-3.509-7.837-7.837c0-4.328,3.508-7.837,7.837-7.837
		h117.029c4.329,0,7.837,3.509,7.837,7.837C473.867,461.613,470.36,465.121,466.031,465.121z"/>
	<path style="fill:#75706B;" d="M466.031,428.645H349.002c-4.329,0-7.837-3.509-7.837-7.837s3.508-7.837,7.837-7.837h117.029
		c4.329,0,7.837,3.509,7.837,7.837S470.36,428.645,466.031,428.645z"/>
	<path style="fill:#75706B;" d="M466.031,392.169H349.002c-4.329,0-7.837-3.509-7.837-7.837c0-4.328,3.508-7.837,7.837-7.837
		h117.029c4.329,0,7.837,3.509,7.837,7.837C473.867,388.66,470.36,392.169,466.031,392.169z"/>
	<path style="fill:#75706B;" d="M466.031,355.692H349.002c-4.329,0-7.837-3.509-7.837-7.837s3.508-7.837,7.837-7.837h117.029
		c4.329,0,7.837,3.509,7.837,7.837S470.36,355.692,466.031,355.692z"/>
	<path style="fill:#75706B;" d="M466.031,319.216H349.002c-4.329,0-7.837-3.509-7.837-7.837c0-4.328,3.508-7.837,7.837-7.837
		h117.029c4.329,0,7.837,3.509,7.837,7.837C473.867,315.707,470.36,319.216,466.031,319.216z"/>
	<path style="fill:#75706B;" d="M466.031,246.261H349.002c-4.329,0-7.837-3.509-7.837-7.837s3.508-7.837,7.837-7.837h117.029
		c4.329,0,7.837,3.509,7.837,7.837S470.36,246.261,466.031,246.261z"/>
	<path style="fill:#75706B;" d="M466.031,173.31H349.002c-4.329,0-7.837-3.509-7.837-7.837c0-4.328,3.508-7.837,7.837-7.837h117.029
		c4.329,0,7.837,3.509,7.837,7.837C473.867,169.801,470.36,173.31,466.031,173.31z"/>
	<path style="fill:#75706B;" d="M466.031,136.832H349.002c-4.329,0-7.837-3.509-7.837-7.837c0-4.328,3.508-7.837,7.837-7.837
		h117.029c4.329,0,7.837,3.509,7.837,7.837C473.867,133.323,470.36,136.832,466.031,136.832z"/>
	<path style="fill:#75706B;" d="M466.031,100.356H349.002c-4.329,0-7.837-3.509-7.837-7.837c0-4.328,3.508-7.837,7.837-7.837
		h117.029c4.329,0,7.837,3.509,7.837,7.837C473.867,96.847,470.36,100.356,466.031,100.356z"/>
	<path style="fill:#75706B;" d="M460.805,63.879H343.776c-4.329,0-7.837-3.509-7.837-7.837s3.508-7.837,7.837-7.837h117.029
		c4.329,0,7.837,3.509,7.837,7.837S465.134,63.879,460.805,63.879z"/>
</g>
<g>
</g>
<g>
</g>
<g>
</g>
<g>
</g>
<g>
</g>
<g>
</g>
<g>
</g>
<g>
</g>
<g>
</g>
<g>
</g>
<g>
</g>
<g>
</g>
<g>
</g>
<g>
</g>
<g>
</g>
</svg>
