<?xml version="1.0" encoding="iso-8859-1"?>
<!-- Generator: Adobe Illustrator 19.0.0, SVG Export Plug-In . SVG Version: 6.00 Build 0)  -->
<svg version="1.1" id="Capa_1" xmlns="http://www.w3.org/2000/svg" xmlns:xlink="http://www.w3.org/1999/xlink" x="0px" y="0px"
	 viewBox="0 0 512.001 512.001" style="enable-background:new 0 0 512.001 512.001;" xml:space="preserve">
<path style="fill:#FFF2E9;" d="M373.195,236.889h35.613c12.441,0,22.527,10.085,22.527,22.527l19.18,92.166l-19.181,104.49
	c0,12.441-10.085,22.527-22.527,22.527h-35.613c-12.441,0-22.526-10.085-22.526-22.527l-42.823-96.654l42.823-100.003
	C350.669,246.974,360.754,236.889,373.195,236.889z"/>
<path style="fill:#56BFA1;" d="M93.629,78.708H22.526C10.085,78.708,0,88.793,0,101.235v354.838
	C0,468.513,10.085,478.6,22.526,478.6h71.102c12.441,0,22.526-10.085,22.526-22.527L185.598,312.4l-69.444-211.165
	C116.155,88.793,106.07,78.708,93.629,78.708z"/>
<path style="fill:#49AA8C;" d="M23.509,456.072V101.235c0-12.441,10.085-22.527,22.526-22.527H22.526
	C10.085,78.708,0,88.793,0,101.235v354.838c0,12.441,10.085,22.526,22.526,22.526h23.509
	C33.595,478.599,23.509,468.513,23.509,456.072z"/>
<path style="fill:#EFB078;" d="M328.142,158.112h-54.874c-12.441,0-22.526,10.085-22.526,22.526l-65.143,131.762l65.143,143.672
	c0,12.441,10.085,22.527,22.526,22.527h54.874c12.441,0,22.527-10.085,22.527-22.527V180.639
	C350.669,168.197,340.583,158.112,328.142,158.112z"/>
<path style="fill:#DD9F6C;" d="M275.053,456.072V180.639c0-12.441,10.085-22.527,22.526-22.527h-24.311
	c-12.441,0-22.526,10.085-22.526,22.527v275.433c0,12.441,10.085,22.526,22.526,22.526h24.311
	C285.138,478.599,275.053,468.513,275.053,456.072z"/>
<path style="fill:#D388BD;" d="M228.215,33.401h-89.534c-12.441,0-22.527,10.085-22.527,22.526v400.145
	c0,12.441,10.085,22.527,22.527,22.527h89.534c12.441,0,22.527-10.085,22.527-22.527V55.928
	C250.742,43.487,240.657,33.401,228.215,33.401z"/>
<path style="fill:#C476B2;" d="M137.272,456.072V55.928c0-12.441,10.085-22.527,22.526-22.527h-21.117
	c-12.441,0-22.526,10.085-22.526,22.527v400.145c0,12.441,10.085,22.526,22.526,22.526h21.117
	C147.358,478.599,137.272,468.513,137.272,456.072z"/>
<path style="fill:#EF6E4B;" d="M453.861,33.401h35.613c12.441,0,22.527,10.085,22.527,22.526v400.145
	c0,12.441-10.085,22.527-22.527,22.527h-35.613c-12.441,0-22.527-10.085-22.527-22.527V55.928
	C431.334,43.487,441.419,33.401,453.861,33.401z"/>
<path style="fill:#DB5B3E;" d="M450.514,456.072V55.928c0-12.441,10.085-22.527,22.526-22.527h-19.18
	c-12.441,0-22.526,10.085-22.526,22.527v400.145c0,12.441,10.085,22.526,22.526,22.526h19.18
	C460.599,478.599,450.514,468.513,450.514,456.072z"/>
<path style="fill:#E2D0C5;" d="M372.319,456.072V259.416c0-12.441,10.085-22.527,22.527-22.527h-21.65
	c-12.441,0-22.527,10.085-22.527,22.527v196.657c0,12.441,10.085,22.526,22.527,22.526h21.65
	C382.404,478.599,372.319,468.513,372.319,456.072z"/>
<g>
	<path style="fill:#168764;" d="M93.214,137.578H22.941c-4.328,0-7.837-3.509-7.837-7.837c0-4.328,3.509-7.837,7.837-7.837h70.274
		c4.328,0,7.837,3.509,7.837,7.837C101.051,134.069,97.542,137.578,93.214,137.578z"/>
	<path style="fill:#168764;" d="M93.214,435.403H22.941c-4.328,0-7.837-3.509-7.837-7.837c0-4.328,3.509-7.837,7.837-7.837h70.274
		c4.328,0,7.837,3.509,7.837,7.837C101.051,431.894,97.542,435.403,93.214,435.403z"/>
</g>
<g>
	<path style="fill:#AD609F;" d="M218.585,91.434h-70.274c-4.328,0-7.837-3.509-7.837-7.837s3.509-7.837,7.837-7.837h70.274
		c4.328,0,7.837,3.509,7.837,7.837S222.913,91.434,218.585,91.434z"/>
	<path style="fill:#AD609F;" d="M218.585,436.24h-70.274c-4.328,0-7.837-3.509-7.837-7.837s3.509-7.837,7.837-7.837h70.274
		c4.328,0,7.837,3.509,7.837,7.837S222.913,436.24,218.585,436.24z"/>
	<path style="fill:#AD609F;" d="M218.585,121.551h-70.274c-4.328,0-7.837-3.509-7.837-7.837s3.509-7.837,7.837-7.837h70.274
		c4.328,0,7.837,3.509,7.837,7.837S222.913,121.551,218.585,121.551z"/>
	<path style="fill:#AD609F;" d="M218.585,406.123h-70.274c-4.328,0-7.837-3.509-7.837-7.837s3.509-7.837,7.837-7.837h70.274
		c4.328,0,7.837,3.509,7.837,7.837S222.913,406.123,218.585,406.123z"/>
</g>
<g>
	<rect x="250.744" y="191.728" style="fill:#BF6821;" width="99.924" height="15.673"/>
	<rect x="250.744" y="218.488" style="fill:#BF6821;" width="99.924" height="15.673"/>
	<rect x="250.744" y="402.547" style="fill:#BF6821;" width="99.924" height="15.673"/>
	<rect x="250.744" y="429.317" style="fill:#BF6821;" width="99.924" height="15.673"/>
</g>
<path style="fill:#75706B;" d="M391.001,414.939c-4.328,0-7.837-3.509-7.837-7.837v-98.718c0-4.328,3.509-7.837,7.837-7.837
	c4.328,0,7.837,3.509,7.837,7.837v98.718C398.838,411.431,395.33,414.939,391.001,414.939z"/>
<g>
	<path style="fill:#BC432F;" d="M485.053,84.872h-26.771c-4.328,0-7.837-3.509-7.837-7.837c0-4.328,3.509-7.837,7.837-7.837h26.771
		c4.328,0,7.837,3.509,7.837,7.837C492.89,81.363,489.381,84.872,485.053,84.872z"/>
	<path style="fill:#BC432F;" d="M485.053,111.938h-26.771c-4.328,0-7.837-3.509-7.837-7.837s3.509-7.837,7.837-7.837h26.771
		c4.328,0,7.837,3.509,7.837,7.837S489.381,111.938,485.053,111.938z"/>
	<path style="fill:#BC432F;" d="M485.053,139.004h-26.771c-4.328,0-7.837-3.509-7.837-7.837c0-4.328,3.509-7.837,7.837-7.837h26.771
		c4.328,0,7.837,3.509,7.837,7.837C492.89,135.495,489.381,139.004,485.053,139.004z"/>
</g>
<g>
</g>
<g>
</g>
<g>
</g>
<g>
</g>
<g>
</g>
<g>
</g>
<g>
</g>
<g>
</g>
<g>
</g>
<g>
</g>
<g>
</g>
<g>
</g>
<g>
</g>
<g>
</g>
<g>
</g>
</svg>
