<?xml version="1.0" encoding="iso-8859-1"?>
<!-- Generator: Adobe Illustrator 19.0.0, SVG Export Plug-In . SVG Version: 6.00 Build 0)  -->
<svg version="1.1" id="Capa_1" xmlns="http://www.w3.org/2000/svg" xmlns:xlink="http://www.w3.org/1999/xlink" x="0px" y="0px"
	 viewBox="0 0 512 512" style="enable-background:new 0 0 512 512;" xml:space="preserve">
<path style="fill:#EFB078;" d="M512,133.424v291.218c0,12.756-10.341,23.098-23.097,23.098H256H23.097
	C10.341,447.74,0,437.399,0,424.643V133.424c0-13.384,10.849-24.233,24.233-24.233h463.533C501.151,109.19,512,120.04,512,133.424z"
	/>
<path style="fill:#E2D0C5;" d="M484.427,118.82v277.388c0,12.878-10.44,23.318-23.319,23.318H256H50.891
	c-12.878,0-23.319-10.44-23.319-23.318V118.82"/>
<path style="fill:#FFF2E9;" d="M256.003,113.716v305.81h-3.459c-2.424-6.113-6.029-11.63-10.553-16.259
	c-8.976-9.247-21.535-14.984-35.443-14.984H50.89c-12.873,0-23.322-10.439-23.322-23.312V87.583
	c0-12.884,10.449-23.322,23.322-23.322h155.658c21.943,0,40.542,14.284,47.01,34.064
	C255.146,103.162,256.003,108.345,256.003,113.716z"/>
<path style="fill:#E2D0C5;" d="M253.558,98.324l-11.567,304.943l-0.616,16.259h-3.459c-3.783-9.529-10.428-17.596-18.871-23.134
	c-1.014-0.679-2.048-1.306-3.114-1.902l-10.198-6.207l-40.647-24.743l41.075-56.822l-41.075-24.754l41.075-56.101l-41.075-24.743
	l41.075-56.101l-41.075-24.743l23.857-32.233c17.295-23.367,54.043-18.651,64.047,8.644
	C253.189,97.23,253.378,97.776,253.558,98.324z"/>
<path style="fill:#FFF2E9;" d="M484.428,87.584v277.389c0,12.873-10.439,23.312-23.322,23.312H305.458
	c-2.968,0-5.883,0.261-8.704,0.773c-17.042,3.02-31.065,14.764-37.292,30.469h-3.459v-305.81c0-24.346,17.586-44.575,40.751-48.692
	c2.832-0.502,5.736-0.763,8.704-0.763h155.648C473.99,64.262,484.428,74.7,484.428,87.584z"/>
<path style="fill:#E2D0C5;" d="M296.754,65.025v324.033c-17.042,3.02-31.065,14.764-37.292,30.469h-3.459v-305.81
	C256.003,89.371,273.589,69.141,296.754,65.025z"/>
<g>
	<path style="fill:#75706B;" d="M202.667,132.477H75.874c-4.328,0-7.837-3.509-7.837-7.837c0-4.328,3.509-7.837,7.837-7.837h126.793
		c4.328,0,7.837,3.509,7.837,7.837C210.504,128.968,206.995,132.477,202.667,132.477z"/>
	<path style="fill:#75706B;" d="M202.667,170.833H75.874c-4.328,0-7.837-3.509-7.837-7.837c0-4.328,3.509-7.837,7.837-7.837h126.793
		c4.328,0,7.837,3.509,7.837,7.837C210.504,167.324,206.995,170.833,202.667,170.833z"/>
	<path style="fill:#75706B;" d="M202.667,247.545H75.874c-4.328,0-7.837-3.509-7.837-7.837c0-4.328,3.509-7.837,7.837-7.837h126.793
		c4.328,0,7.837,3.509,7.837,7.837C210.504,244.036,206.995,247.545,202.667,247.545z"/>
	<path style="fill:#75706B;" d="M202.667,324.257H75.874c-4.328,0-7.837-3.509-7.837-7.837c0-4.328,3.509-7.837,7.837-7.837h126.793
		c4.328,0,7.837,3.509,7.837,7.837C210.504,320.749,206.995,324.257,202.667,324.257z"/>
	<path style="fill:#75706B;" d="M202.667,209.189H75.874c-4.328,0-7.837-3.509-7.837-7.837c0-4.328,3.509-7.837,7.837-7.837h126.793
		c4.328,0,7.837,3.509,7.837,7.837C210.504,205.68,206.995,209.189,202.667,209.189z"/>
	<path style="fill:#75706B;" d="M202.667,285.901H75.874c-4.328,0-7.837-3.509-7.837-7.837s3.509-7.837,7.837-7.837h126.793
		c4.328,0,7.837,3.509,7.837,7.837S206.995,285.901,202.667,285.901z"/>
	<path style="fill:#75706B;" d="M145.811,365.935h-13.082c-4.328,0-7.837-3.509-7.837-7.837c0-4.328,3.509-7.837,7.837-7.837h13.082
		c4.328,0,7.837,3.509,7.837,7.837C153.648,362.426,150.139,365.935,145.811,365.935z"/>
	<path style="fill:#75706B;" d="M442.163,132.477H315.371c-4.328,0-7.837-3.509-7.837-7.837c0-4.328,3.509-7.837,7.837-7.837
		h126.792c4.328,0,7.837,3.509,7.837,7.837C450,128.968,446.492,132.477,442.163,132.477z"/>
	<path style="fill:#75706B;" d="M442.163,170.833H315.371c-4.328,0-7.837-3.509-7.837-7.837c0-4.328,3.509-7.837,7.837-7.837
		h126.792c4.328,0,7.837,3.509,7.837,7.837C450,167.324,446.492,170.833,442.163,170.833z"/>
	<path style="fill:#75706B;" d="M442.163,247.545H315.371c-4.328,0-7.837-3.509-7.837-7.837c0-4.328,3.509-7.837,7.837-7.837
		h126.792c4.328,0,7.837,3.509,7.837,7.837C450,244.036,446.492,247.545,442.163,247.545z"/>
	<path style="fill:#75706B;" d="M442.163,209.189H315.371c-4.328,0-7.837-3.509-7.837-7.837c0-4.328,3.509-7.837,7.837-7.837
		h126.792c4.328,0,7.837,3.509,7.837,7.837C450,205.68,446.492,209.189,442.163,209.189z"/>
	<path style="fill:#75706B;" d="M442.163,285.901H315.371c-4.328,0-7.837-3.509-7.837-7.837s3.509-7.837,7.837-7.837h126.792
		c4.328,0,7.837,3.509,7.837,7.837S446.492,285.901,442.163,285.901z"/>
	<path style="fill:#75706B;" d="M385.308,365.935h-13.082c-4.328,0-7.837-3.509-7.837-7.837c0-4.328,3.509-7.837,7.837-7.837h13.082
		c4.328,0,7.837,3.509,7.837,7.837C393.145,362.426,389.636,365.935,385.308,365.935z"/>
</g>
<path style="fill:#FFF2E9;" d="M233.674,396.393l-3.114-1.902l-50.845-30.95l41.075-56.822l-41.075-24.754l41.075-56.101
	l-41.075-24.743l41.075-56.101l-41.075-24.743l39.811-54.293l0,0c21.013,5.695,36.477,24.91,36.477,47.731v305.81h-3.459
	c-4.232-10.668-12.058-19.508-21.985-25.036"/>
<g>
</g>
<g>
</g>
<g>
</g>
<g>
</g>
<g>
</g>
<g>
</g>
<g>
</g>
<g>
</g>
<g>
</g>
<g>
</g>
<g>
</g>
<g>
</g>
<g>
</g>
<g>
</g>
<g>
</g>
</svg>
