<?xml version="1.0" encoding="iso-8859-1"?>
<!-- Generator: Adobe Illustrator 19.0.0, SVG Export Plug-In . SVG Version: 6.00 Build 0)  -->
<svg version="1.1" id="Capa_1" xmlns="http://www.w3.org/2000/svg" xmlns:xlink="http://www.w3.org/1999/xlink" x="0px" y="0px"
	 viewBox="0 0 512.001 512.001" style="enable-background:new 0 0 512.001 512.001;" xml:space="preserve">
<path style="fill:#EF6E4B;" d="M122.899,11.872H24.706C11.061,11.872,0,22.933,0,36.578v438.846
	c0,13.644,11.061,24.706,24.706,24.706h98.193c13.644,0,24.706-11.061,24.706-24.706V36.578
	C147.603,22.933,136.543,11.872,122.899,11.872z"/>
<g>
	<path style="fill:#DB5B3E;" d="M23.16,475.423V36.578c0-13.644,11.061-24.706,24.706-24.706h-23.16
		C11.061,11.872,0,22.933,0,36.578v438.846c0,13.644,11.061,24.705,24.706,24.705h23.159C34.22,500.128,23.16,489.068,23.16,475.423
		z"/>
	<rect y="59.089" style="fill:#DB5B3E;" width="147.602" height="15.673"/>
	<rect y="437.238" style="fill:#DB5B3E;" width="147.602" height="15.673"/>
</g>
<g>
	<path style="fill:#BC432F;" d="M112.337,197.312H35.266c-4.328,0-7.837-3.509-7.837-7.837c0-4.328,3.509-7.837,7.837-7.837h77.071
		c4.328,0,7.837,3.509,7.837,7.837C120.174,193.803,116.665,197.312,112.337,197.312z"/>
	<path style="fill:#BC432F;" d="M112.337,304.238H35.266c-4.328,0-7.837-3.509-7.837-7.837c0-4.328,3.509-7.837,7.837-7.837h77.071
		c4.328,0,7.837,3.509,7.837,7.837C120.174,300.729,116.665,304.238,112.337,304.238z"/>
	<path style="fill:#BC432F;" d="M73.802,282.644c-4.328,0-7.837-3.509-7.837-7.837v-63.738c0-4.328,3.509-7.837,7.837-7.837
		c4.328,0,7.837,3.509,7.837,7.837v63.738C81.639,279.135,78.13,282.644,73.802,282.644z"/>
</g>
<path style="fill:#EFD873;" d="M305.097,11.872h-98.193c-13.644,0-24.706,11.061-24.706,24.706v438.846
	c0,13.644,11.061,24.706,24.706,24.706h98.193c13.644,0,24.706-11.061,24.706-24.706V36.578
	C329.802,22.933,318.741,11.872,305.097,11.872z"/>
<g>
	<path style="fill:#E0C865;" d="M205.358,475.423V36.578c0-13.644,11.061-24.706,24.706-24.706h-23.159
		c-13.644,0-24.706,11.061-24.706,24.706v438.846c0,13.644,11.061,24.705,24.706,24.705h23.159
		C216.419,500.128,205.358,489.068,205.358,475.423z"/>
	<rect x="182.199" y="59.089" style="fill:#E0C865;" width="147.602" height="15.673"/>
	<rect x="182.199" y="437.238" style="fill:#E0C865;" width="147.602" height="15.673"/>
</g>
<g>
	<path style="fill:#CCB65C;" d="M294.535,197.312h-77.07c-4.328,0-7.837-3.509-7.837-7.837c0-4.328,3.509-7.837,7.837-7.837h77.07
		c4.329,0,7.837,3.509,7.837,7.837C302.372,193.803,298.864,197.312,294.535,197.312z"/>
	<path style="fill:#CCB65C;" d="M294.535,304.238h-77.07c-4.328,0-7.837-3.509-7.837-7.837c0-4.328,3.509-7.837,7.837-7.837h77.07
		c4.329,0,7.837,3.509,7.837,7.837C302.372,300.729,298.864,304.238,294.535,304.238z"/>
	<path style="fill:#CCB65C;" d="M269.584,282.644c-4.329,0-7.837-3.509-7.837-7.837v-63.738c0-4.328,3.508-7.837,7.837-7.837
		c4.329,0,7.837,3.509,7.837,7.837v63.738C277.42,279.135,273.912,282.644,269.584,282.644z"/>
	<path style="fill:#CCB65C;" d="M245.551,282.644c-4.328,0-7.837-3.509-7.837-7.837v-63.738c0-4.328,3.509-7.837,7.837-7.837
		s7.837,3.509,7.837,7.837v63.738C253.388,279.135,249.879,282.644,245.551,282.644z"/>
</g>
<path style="fill:#EFB078;" d="M487.295,11.872h-98.193c-13.644,0-24.706,11.061-24.706,24.706v438.846
	c0,13.644,11.061,24.706,24.706,24.706h98.193c13.644,0,24.706-11.061,24.706-24.706V36.578
	C512,22.933,500.94,11.872,487.295,11.872z"/>
<g>
	<path style="fill:#DD9F6C;" d="M387.557,475.423V36.578c0-13.644,11.061-24.706,24.706-24.706h-23.159
		c-13.644,0-24.706,11.061-24.706,24.706v438.846c0,13.644,11.061,24.705,24.706,24.705h23.159
		C398.617,500.128,387.557,489.068,387.557,475.423z"/>
	<rect x="364.398" y="59.089" style="fill:#DD9F6C;" width="147.602" height="15.673"/>
	<rect x="364.398" y="437.238" style="fill:#DD9F6C;" width="147.602" height="15.673"/>
</g>
<g>
	<path style="fill:#CE9163;" d="M476.734,197.312h-77.07c-4.329,0-7.837-3.509-7.837-7.837c0-4.328,3.508-7.837,7.837-7.837h77.07
		c4.329,0,7.837,3.509,7.837,7.837C484.57,193.803,481.062,197.312,476.734,197.312z"/>
	<path style="fill:#CE9163;" d="M476.734,304.238h-77.07c-4.329,0-7.837-3.509-7.837-7.837c0-4.328,3.508-7.837,7.837-7.837h77.07
		c4.329,0,7.837,3.509,7.837,7.837C484.57,300.729,481.062,304.238,476.734,304.238z"/>
	<path style="fill:#CE9163;" d="M414.166,282.644c-4.329,0-7.837-3.509-7.837-7.837v-63.738c0-4.328,3.508-7.837,7.837-7.837
		c4.329,0,7.837,3.509,7.837,7.837v63.738C422.003,279.135,418.494,282.644,414.166,282.644z"/>
	<path style="fill:#CE9163;" d="M462.231,282.644c-4.329,0-7.837-3.509-7.837-7.837v-63.738c0-4.328,3.508-7.837,7.837-7.837
		c4.329,0,7.837,3.509,7.837,7.837v63.738C470.068,279.135,466.559,282.644,462.231,282.644z"/>
	<path style="fill:#CE9163;" d="M438.199,282.644c-4.329,0-7.837-3.509-7.837-7.837v-63.738c0-4.328,3.508-7.837,7.837-7.837
		c4.329,0,7.837,3.509,7.837,7.837v63.738C446.036,279.135,442.527,282.644,438.199,282.644z"/>
</g>
<g>
</g>
<g>
</g>
<g>
</g>
<g>
</g>
<g>
</g>
<g>
</g>
<g>
</g>
<g>
</g>
<g>
</g>
<g>
</g>
<g>
</g>
<g>
</g>
<g>
</g>
<g>
</g>
<g>
</g>
</svg>
