<?xml version="1.0" encoding="iso-8859-1"?>
<!-- Generator: Adobe Illustrator 19.0.0, SVG Export Plug-In . SVG Version: 6.00 Build 0)  -->
<svg version="1.1" id="Capa_1" xmlns="http://www.w3.org/2000/svg" xmlns:xlink="http://www.w3.org/1999/xlink" x="0px" y="0px"
	 viewBox="0 0 512 512" style="enable-background:new 0 0 512 512;" xml:space="preserve">
<rect x="49.52" y="49.656" style="fill:#E2D0C5;" width="228.203" height="50.685"/>
<path style="fill:#FFF2E9;" d="M458.219,510.702H148.563c-15.469,0-29.275-7.09-38.361-18.193
	c-6.976-8.535-11.165-19.441-11.165-31.323V50.823l-35.44-23.63L49.52,1.297h309.656c4.335,0,8.535,0.561,12.538,1.611
	c13.38,3.483,24.545,12.413,31.001,24.285c3.815,7.028,5.988,15.074,5.988,23.63v360.836l20.272,40.544L458.219,510.702z"/>
<g>
	<path style="fill:#EADBD3;" d="M402.719,27.194H63.601L49.525,1.298h309.656C377.977,1.298,394.33,11.767,402.719,27.194z"/>
	<path style="fill:#EADBD3;" d="M428.975,452.203v40.305H110.202c-6.976-8.535-11.165-19.441-11.165-31.323v-66.919h309.666v17.393
		L428.975,452.203z"/>
</g>
<circle style="fill:#E2D0C5;" cx="49.52" cy="50.819" r="49.52"/>
<path style="fill:#FFF2E9;" d="M507.74,461.187c0,3.244-0.312,6.414-0.915,9.492c-4.418,22.798-24.493,40.025-48.601,40.025H148.568
	V411.66h309.656C485.575,411.66,507.74,433.835,507.74,461.187z"/>
<path style="fill:#EADBD3;" d="M506.825,470.678c-4.418,22.798-24.493,40.025-48.601,40.025H148.568v-40.025H506.825z"/>
<circle style="fill:#E2D0C5;" cx="148.559" cy="461.178" r="49.52"/>
<path style="fill:#EADBD3;" d="M378.119,167.332c6.321-0.634,15.189-1.705,25.034-3.472c3.514-0.624,5.635,3.805,2.911,6.123
	c-13.099,11.207-27.861,20.47-43.913,27.31c-11.737,5-20.823,7.329-26.666,8.421c-1.892,0.353-2.038,3.015-0.187,3.566
	c4.054,1.206,9.793,2.62,17.205,3.732c4.751,0.707,6.238,6.82,2.318,9.606c-43.435,30.897-84.218,42.936-109.636,59.517
	l-43.497,59.008c-0.8,1.081-1.954,1.736-3.181,1.913c-1.237,0.187-2.537-0.094-3.607-0.884c-2.162-1.591-2.62-4.637-1.029-6.799
	l43.487-58.997c8.753-30.689,7.672-76.14,27.154-130.262c0.79-2.204,4.034-1.85,4.335,0.478c1.196,9.19,2.599,17.434,3.795,23.755
	c0.208,1.081,1.799,0.936,1.799-0.166c-0.042-13.193,2.017-28.194,4.314-40.825c3.524-19.378,11.145-37.758,22.331-53.966
	c0.073-0.104,0.146-0.208,0.208-0.312c1.175-1.695,3.795-1.206,4.294,0.79c1.944,7.776,4.252,14.471,5.947,18.952
	c0.541,1.435,2.651,1.154,2.797-0.374c0.52-5.354,1.476-10.698,2.703-15.854c3.244-13.712,8.743-26.666,16.187-38.299
	c1.611-2.505,5.499-1.455,5.614,1.507c0.707,17.091,3.368,31.989,3.701,33.787c-3.233-21.884,6.955-44.09,14.44-56.908
	c3.68-6.3,8.712-11.716,14.742-15.771c13.38,3.483,24.545,12.413,31.001,24.285c3.815,7.028,5.988,15.074,5.988,23.63v99.22
	c-12.87,7.132-23.921,11.935-31.188,14.783C376.102,165.377,376.611,167.477,378.119,167.332z"/>
<g>
	<path style="fill:#75706B;" d="M372.839,91.759H161.262c-4.306,0-7.797-3.491-7.797-7.797c0-4.306,3.491-7.797,7.797-7.797h211.577
		c4.306,0,7.797,3.491,7.797,7.797C380.636,88.268,377.145,91.759,372.839,91.759z"/>
	<path style="fill:#75706B;" d="M379.075,141.657H161.262c-4.306,0-7.797-3.491-7.797-7.797s3.491-7.797,7.797-7.797h217.814
		c4.306,0,7.797,3.491,7.797,7.797S383.381,141.657,379.075,141.657z"/>
	<path style="fill:#75706B;" d="M333.856,192.445H161.262c-4.306,0-7.797-3.491-7.797-7.797s3.491-7.797,7.797-7.797h172.594
		c4.306,0,7.797,3.491,7.797,7.797S338.162,192.445,333.856,192.445z"/>
	<path style="fill:#75706B;" d="M333.856,243.234H161.262c-4.306,0-7.797-3.491-7.797-7.797c0-4.306,3.491-7.797,7.797-7.797
		h172.594c4.306,0,7.797,3.491,7.797,7.797C341.653,239.743,338.162,243.234,333.856,243.234z"/>
	<path style="fill:#75706B;" d="M211.16,293.132h-49.899c-4.306,0-7.797-3.491-7.797-7.797s3.491-7.797,7.797-7.797h49.899
		c4.306,0,7.797,3.491,7.797,7.797S215.466,293.132,211.16,293.132z"/>
</g>
<path style="fill:#EFB078;" d="M510.794,64.756c-3.488-20.065-19.305-35.588-39.394-38.937c-13.984-2.332-29.544-1.166-46.707,5.129
	c-0.042,0.016-0.084,0.031-0.126,0.046c-8.184,3.013-15.372,8.26-20.847,15.047c-9.343,11.581-22.789,32.102-22.789,54.286
	c0,0-0.595-16.002,1.395-34.14c0.324-2.956-3.367-4.565-5.327-2.33c-9.105,10.384-16.481,22.367-21.739,35.441
	c-1.979,4.92-3.723,10.056-5.041,15.276c-0.375,1.487-2.497,1.447-2.819-0.052c-1.005-4.681-2.284-11.649-3.045-19.625
	c-0.195-2.051-2.712-2.929-4.124-1.428c-0.086,0.091-0.173,0.183-0.258,0.274c-13.483,14.356-23.764,31.391-30.152,50.021
	c-4.165,12.145-8.438,26.672-10.376,39.718c-0.162,1.088-1.755,1-1.795-0.1c-0.239-6.432-0.399-14.79-0.2-24.058
	c0.051-2.349-3.104-3.185-4.222-1.118c-34.802,64.37-34.596,119.867-59.41,144.681c23.857-23.857,76.071-24.587,137.265-55.529
	c4.285-2.167,3.737-8.439-0.852-9.848c-7.167-2.201-12.631-4.457-16.46-6.264c-1.742-0.822-1.205-3.434,0.72-3.498
	c5.937-0.2,15.271-1.146,27.625-4.337c16.891-4.363,32.873-11.305,47.509-20.428c3.035-1.892,1.605-6.587-1.97-6.491
	c-9.993,0.268-18.922,0.006-25.27-0.314c-1.512-0.076-1.697-2.232-0.221-2.568c7.945-1.807,20.274-5.091,34.849-10.618
	c21.77-8.257,40.619-22.812,53.868-41.958c0.532-0.769,0.979-1.437,1.32-1.976C510.16,110.617,514.466,85.877,510.794,64.756z"/>
<path style="fill:#E2D0C5;" d="M198.502,343.061c-1.243,0-2.486-0.474-3.434-1.422c-1.897-1.896-1.897-4.971,0-6.869L452.741,77.097
	c1.897-1.896,4.971-1.896,6.869,0c1.896,1.896,1.896,4.971,0,6.868L201.937,341.638
	C200.988,342.587,199.745,343.061,198.502,343.061z"/>
<g>
</g>
<g>
</g>
<g>
</g>
<g>
</g>
<g>
</g>
<g>
</g>
<g>
</g>
<g>
</g>
<g>
</g>
<g>
</g>
<g>
</g>
<g>
</g>
<g>
</g>
<g>
</g>
<g>
</g>
</svg>
