<?xml version="1.0" encoding="iso-8859-1"?>
<!-- Generator: Adobe Illustrator 19.0.0, SVG Export Plug-In . SVG Version: 6.00 Build 0)  -->
<svg version="1.1" id="Capa_1" xmlns="http://www.w3.org/2000/svg" xmlns:xlink="http://www.w3.org/1999/xlink" x="0px" y="0px"
	 viewBox="0 0 512 512" style="enable-background:new 0 0 512 512;" xml:space="preserve">
<path style="fill:#75706B;" d="M510.062,64.41c-5.609-32.27-31.049-57.235-63.356-62.622c-22.489-3.75-47.515-1.877-75.117,8.25
	c-0.068,0.025-0.134,0.05-0.202,0.074c-13.162,4.846-24.721,13.283-33.528,24.2c-15.026,18.626-36.651,51.629-36.651,87.306
	c0,0-0.956-25.736,2.244-54.905c0.522-4.753-5.414-7.342-8.567-3.747c-14.643,16.7-26.505,35.972-34.963,56.999
	c-3.183,7.913-5.987,16.172-8.107,24.567c-0.604,2.391-4.017,2.328-4.534-0.083c-1.616-7.529-3.674-18.735-4.898-31.561
	c-0.315-3.298-4.361-4.709-6.633-2.296c-0.139,0.147-0.277,0.295-0.416,0.442c-21.685,23.088-38.219,50.485-48.493,80.448
	c-6.697,19.532-13.572,42.896-16.688,63.877c-0.26,1.751-2.822,1.608-2.888-0.16c-0.384-10.344-0.642-23.787-0.321-38.692
	c0.081-3.778-4.992-5.123-6.789-1.798c-55.97,103.524-55.64,192.778-95.549,232.688c38.367-38.367,122.344-39.542,220.759-89.306
	c6.891-3.485,6.01-13.572-1.372-15.839c-11.525-3.54-20.315-7.168-26.473-10.073c-2.802-1.322-1.938-5.522,1.158-5.626
	c9.549-0.322,24.559-1.842,44.428-6.975c27.167-7.017,52.87-18.181,76.406-32.854c4.88-3.042,2.581-10.593-3.168-10.439
	c-16.07,0.432-30.431,0.01-40.641-0.505c-2.431-0.123-2.73-3.59-0.356-4.13c12.777-2.907,32.607-8.187,56.046-17.076
	c35.013-13.279,65.327-36.687,86.635-67.48c0.856-1.237,1.576-2.311,2.122-3.178C509.042,138.167,515.965,98.377,510.062,64.41z"/>
<path style="fill:#E2D0C5;" d="M7.81,512c-1.998,0-3.998-0.762-5.523-2.288c-3.05-3.05-3.05-7.996,0-11.045L416.696,84.259
	c3.051-3.05,7.996-3.05,11.046,0c3.05,3.05,3.05,7.996,0,11.045L13.333,509.712C11.808,511.238,9.81,512,7.81,512z"/>
<g>
</g>
<g>
</g>
<g>
</g>
<g>
</g>
<g>
</g>
<g>
</g>
<g>
</g>
<g>
</g>
<g>
</g>
<g>
</g>
<g>
</g>
<g>
</g>
<g>
</g>
<g>
</g>
<g>
</g>
</svg>
