<?xml version="1.0" encoding="iso-8859-1"?>
<!-- Generator: Adobe Illustrator 19.0.0, SVG Export Plug-In . SVG Version: 6.00 Build 0)  -->
<svg version="1.1" id="Capa_1" xmlns="http://www.w3.org/2000/svg" xmlns:xlink="http://www.w3.org/1999/xlink" x="0px" y="0px"
	 viewBox="0 0 512.001 512.001" style="enable-background:new 0 0 512.001 512.001;" xml:space="preserve">
<path style="fill:#EFB078;" d="M492.48,295.655h-47.297l-5.224-125.87h52.522c10.735,0,19.437,8.703,19.437,19.437v86.995
	C511.917,286.952,503.214,295.655,492.48,295.655z"/>
<path style="fill:#DD9F6C;" d="M492.48,295.655h-52.522V264.59h71.959v11.629C511.917,286.952,503.214,295.655,492.48,295.655z"/>
<path style="fill:#605B58;" d="M445.183,254.484v-84.699c0-17.91-14.514-32.423-32.423-32.423H389.46H58.476H32.511
	c-17.91,0-32.423,14.514-32.423,32.423v84.699"/>
<path style="fill:#EFB078;" d="M390.337,353.644v-153.62c0-13.834-11.222-25.046-25.057-25.046H79.982
	c-13.834,0-25.046,11.212-25.046,25.046v153.62"/>
<path style="fill:#FFF2E9;" d="M127.953,278.381c24.701-23.343,58.023-37.648,94.678-37.648c36.665,0,69.987,14.305,94.688,37.648
	V327H128.6L127.953,278.381z"/>
<path style="fill:#BA7052;" d="M403.294,212.59h-24.95c-12.356,0-23.647,7.301-28.414,18.699
	c-20.816,49.769-69.971,84.74-127.293,84.74s-106.476-34.97-127.293-84.74c-4.768-11.399-16.058-18.699-28.414-18.699H41.978
	c-23.137,0-41.894,18.757-41.894,41.894v215.623c0,23.137,18.757,41.894,41.894,41.894h361.316
	c23.137,0,41.894-18.757,41.894-41.894V254.483C445.188,231.346,426.431,212.59,403.294,212.59z"/>
<path style="fill:#605B58;" d="M169.872,282.121c-1.797-3.929-0.073-8.589,3.866-10.386l0,0l0,0l0,0
	c3.929-1.808,8.579-0.073,10.386,3.856l0,0c1.797,3.939,0.073,8.589-3.866,10.397l0,0c-1.055,0.481-2.163,0.711-3.25,0.711l0,0
	C174.031,286.697,171.19,284.994,169.872,282.121z M265.001,285.976c-3.939-1.797-5.663-6.447-3.866-10.386l0,0
	c1.808-3.939,6.447-5.663,10.386-3.866l0,0c3.939,1.808,5.663,6.457,3.866,10.386l0,0c-1.317,2.884-4.159,4.577-7.137,4.577l0,0
	C267.163,286.688,266.055,286.457,265.001,285.976z M199.235,271.16c-0.606-4.284,2.372-8.255,6.656-8.861l0,0
	c4.284-0.616,8.255,2.361,8.861,6.646l0,0c0.616,4.284-2.361,8.255-6.646,8.871l0,0c-0.376,0.052-0.752,0.073-1.118,0.073l0,0
	C203.153,277.889,199.799,275.068,199.235,271.16z M237.154,277.806c-4.284-0.606-7.262-4.577-6.646-8.861l0,0
	c0.606-4.284,4.577-7.262,8.861-6.646l0,0c4.284,0.606,7.262,4.577,6.646,8.861l0,0c-0.554,3.908-3.908,6.729-7.743,6.729l0,0
	C237.906,277.889,237.529,277.868,237.154,277.806z"/>
<g>
	<path style="fill:#FFF2E9;" d="M363.337,174.978V22.183C363.337,9.932,353.405,0,341.154,0h-234.37
		C94.532,0,84.6,9.932,84.6,22.183v152.795"/>
	<path style="fill:#FFF2E9;" d="M66.693,361.481H40.049c-4.328,0-7.837-3.509-7.837-7.837c0-4.328,3.509-7.837,7.837-7.837h26.644
		c4.328,0,7.837,3.509,7.837,7.837C74.53,357.972,71.021,361.481,66.693,361.481z"/>
	<path style="fill:#FFF2E9;" d="M179.537,361.481h-26.644c-4.328,0-7.837-3.509-7.837-7.837c0-4.328,3.509-7.837,7.837-7.837h26.644
		c4.328,0,7.837,3.509,7.837,7.837C187.373,357.972,183.865,361.481,179.537,361.481z"/>
	<path style="fill:#FFF2E9;" d="M292.379,361.481h-26.644c-4.328,0-7.837-3.509-7.837-7.837c0-4.328,3.509-7.837,7.837-7.837h26.644
		c4.328,0,7.837,3.509,7.837,7.837C300.216,357.972,296.707,361.481,292.379,361.481z"/>
	<path style="fill:#FFF2E9;" d="M405.223,361.481h-26.644c-4.328,0-7.837-3.509-7.837-7.837c0-4.328,3.509-7.837,7.837-7.837h26.644
		c4.328,0,7.837,3.509,7.837,7.837C413.059,357.972,409.551,361.481,405.223,361.481z"/>
	<path style="fill:#FFF2E9;" d="M123.114,361.481H96.471c-4.328,0-7.837-3.509-7.837-7.837c0-4.328,3.509-7.837,7.837-7.837h26.644
		c4.328,0,7.837,3.509,7.837,7.837C130.951,357.972,127.442,361.481,123.114,361.481z"/>
	<path style="fill:#FFF2E9;" d="M235.958,361.481h-26.644c-4.328,0-7.837-3.509-7.837-7.837c0-4.328,3.509-7.837,7.837-7.837h26.644
		c4.328,0,7.837,3.509,7.837,7.837C243.795,357.972,240.286,361.481,235.958,361.481z"/>
	<path style="fill:#FFF2E9;" d="M348.8,361.481h-26.644c-4.328,0-7.837-3.509-7.837-7.837c0-4.328,3.509-7.837,7.837-7.837H348.8
		c4.328,0,7.837,3.509,7.837,7.837C356.637,357.972,353.128,361.481,348.8,361.481z"/>
	<path style="fill:#FFF2E9;" d="M66.693,465.188H40.049c-4.328,0-7.837-3.509-7.837-7.837s3.509-7.837,7.837-7.837h26.644
		c4.328,0,7.837,3.509,7.837,7.837S71.021,465.188,66.693,465.188z"/>
	<path style="fill:#FFF2E9;" d="M179.537,465.188h-26.644c-4.328,0-7.837-3.509-7.837-7.837s3.509-7.837,7.837-7.837h26.644
		c4.328,0,7.837,3.509,7.837,7.837S183.865,465.188,179.537,465.188z"/>
	<path style="fill:#FFF2E9;" d="M292.379,465.188h-26.644c-4.328,0-7.837-3.509-7.837-7.837s3.509-7.837,7.837-7.837h26.644
		c4.328,0,7.837,3.509,7.837,7.837S296.707,465.188,292.379,465.188z"/>
	<path style="fill:#FFF2E9;" d="M405.223,465.188h-26.644c-4.328,0-7.837-3.509-7.837-7.837s3.509-7.837,7.837-7.837h26.644
		c4.328,0,7.837,3.509,7.837,7.837S409.551,465.188,405.223,465.188z"/>
	<path style="fill:#FFF2E9;" d="M123.114,465.188H96.471c-4.328,0-7.837-3.509-7.837-7.837s3.509-7.837,7.837-7.837h26.644
		c4.328,0,7.837,3.509,7.837,7.837S127.442,465.188,123.114,465.188z"/>
	<path style="fill:#FFF2E9;" d="M235.958,465.188h-26.644c-4.328,0-7.837-3.509-7.837-7.837s3.509-7.837,7.837-7.837h26.644
		c4.328,0,7.837,3.509,7.837,7.837S240.286,465.188,235.958,465.188z"/>
	<path style="fill:#FFF2E9;" d="M348.8,465.188h-26.644c-4.328,0-7.837-3.509-7.837-7.837s3.509-7.837,7.837-7.837H348.8
		c4.328,0,7.837,3.509,7.837,7.837S353.128,465.188,348.8,465.188z"/>
	<path style="fill:#FFF2E9;" d="M66.693,430.619H40.049c-4.328,0-7.837-3.509-7.837-7.837c0-4.328,3.509-7.837,7.837-7.837h26.644
		c4.328,0,7.837,3.509,7.837,7.837C74.53,427.111,71.021,430.619,66.693,430.619z"/>
	<path style="fill:#FFF2E9;" d="M179.537,430.619h-26.644c-4.328,0-7.837-3.509-7.837-7.837c0-4.328,3.509-7.837,7.837-7.837h26.644
		c4.328,0,7.837,3.509,7.837,7.837C187.373,427.111,183.865,430.619,179.537,430.619z"/>
	<path style="fill:#FFF2E9;" d="M292.379,430.619h-26.644c-4.328,0-7.837-3.509-7.837-7.837c0-4.328,3.509-7.837,7.837-7.837h26.644
		c4.328,0,7.837,3.509,7.837,7.837C300.216,427.111,296.707,430.619,292.379,430.619z"/>
	<path style="fill:#FFF2E9;" d="M405.223,430.619h-26.644c-4.328,0-7.837-3.509-7.837-7.837c0-4.328,3.509-7.837,7.837-7.837h26.644
		c4.328,0,7.837,3.509,7.837,7.837C413.059,427.111,409.551,430.619,405.223,430.619z"/>
	<path style="fill:#FFF2E9;" d="M123.114,430.619H96.471c-4.328,0-7.837-3.509-7.837-7.837c0-4.328,3.509-7.837,7.837-7.837h26.644
		c4.328,0,7.837,3.509,7.837,7.837C130.951,427.111,127.442,430.619,123.114,430.619z"/>
	<path style="fill:#FFF2E9;" d="M235.958,430.619h-26.644c-4.328,0-7.837-3.509-7.837-7.837c0-4.328,3.509-7.837,7.837-7.837h26.644
		c4.328,0,7.837,3.509,7.837,7.837C243.795,427.111,240.286,430.619,235.958,430.619z"/>
	<path style="fill:#FFF2E9;" d="M348.8,430.619h-26.644c-4.328,0-7.837-3.509-7.837-7.837c0-4.328,3.509-7.837,7.837-7.837H348.8
		c4.328,0,7.837,3.509,7.837,7.837C356.637,427.111,353.128,430.619,348.8,430.619z"/>
	<path style="fill:#FFF2E9;" d="M66.693,396.05H40.049c-4.328,0-7.837-3.509-7.837-7.837c0-4.328,3.509-7.837,7.837-7.837h26.644
		c4.328,0,7.837,3.509,7.837,7.837C74.53,392.541,71.021,396.05,66.693,396.05z"/>
	<path style="fill:#FFF2E9;" d="M179.537,396.05h-26.644c-4.328,0-7.837-3.509-7.837-7.837c0-4.328,3.509-7.837,7.837-7.837h26.644
		c4.328,0,7.837,3.509,7.837,7.837C187.373,392.541,183.865,396.05,179.537,396.05z"/>
	<path style="fill:#FFF2E9;" d="M292.379,396.05h-26.644c-4.328,0-7.837-3.509-7.837-7.837c0-4.328,3.509-7.837,7.837-7.837h26.644
		c4.328,0,7.837,3.509,7.837,7.837C300.216,392.541,296.707,396.05,292.379,396.05z"/>
	<path style="fill:#FFF2E9;" d="M405.223,396.05h-26.644c-4.328,0-7.837-3.509-7.837-7.837c0-4.328,3.509-7.837,7.837-7.837h26.644
		c4.328,0,7.837,3.509,7.837,7.837C413.059,392.541,409.551,396.05,405.223,396.05z"/>
	<path style="fill:#FFF2E9;" d="M123.114,396.05H96.471c-4.328,0-7.837-3.509-7.837-7.837c0-4.328,3.509-7.837,7.837-7.837h26.644
		c4.328,0,7.837,3.509,7.837,7.837C130.951,392.541,127.442,396.05,123.114,396.05z"/>
	<path style="fill:#FFF2E9;" d="M235.958,396.05h-26.644c-4.328,0-7.837-3.509-7.837-7.837c0-4.328,3.509-7.837,7.837-7.837h26.644
		c4.328,0,7.837,3.509,7.837,7.837C243.795,392.541,240.286,396.05,235.958,396.05z"/>
	<path style="fill:#FFF2E9;" d="M348.8,396.05h-26.644c-4.328,0-7.837-3.509-7.837-7.837c0-4.328,3.509-7.837,7.837-7.837H348.8
		c4.328,0,7.837,3.509,7.837,7.837C356.637,392.541,353.128,396.05,348.8,396.05z"/>
</g>
<g>
	<path style="fill:#605B58;" d="M314.87,58.998H133.068c-4.328,0-7.837-3.509-7.837-7.837s3.509-7.837,7.837-7.837H314.87
		c4.328,0,7.837,3.509,7.837,7.837S319.198,58.998,314.87,58.998z"/>
	<path style="fill:#605B58;" d="M314.87,139.944H133.068c-4.328,0-7.837-3.509-7.837-7.837c0-4.328,3.509-7.837,7.837-7.837H314.87
		c4.328,0,7.837,3.509,7.837,7.837C322.707,136.435,319.198,139.944,314.87,139.944z"/>
	<path style="fill:#605B58;" d="M314.87,99.471H133.068c-4.328,0-7.837-3.509-7.837-7.837s3.509-7.837,7.837-7.837H314.87
		c4.328,0,7.837,3.509,7.837,7.837S319.198,99.471,314.87,99.471z"/>
</g>
<g>
	<path style="fill:#BF6821;" d="M488.999,208.688h-20.898c-4.328,0-7.837-3.509-7.837-7.837s3.509-7.837,7.837-7.837h20.898
		c4.328,0,7.837,3.509,7.837,7.837S493.327,208.688,488.999,208.688z"/>
	<path style="fill:#BF6821;" d="M488.999,272.426h-20.898c-4.328,0-7.837-3.509-7.837-7.837c0-4.328,3.509-7.837,7.837-7.837h20.898
		c4.328,0,7.837,3.509,7.837,7.837C496.836,268.918,493.327,272.426,488.999,272.426z"/>
	<path style="fill:#BF6821;" d="M488.999,240.557h-20.898c-4.328,0-7.837-3.509-7.837-7.837c0-4.328,3.509-7.837,7.837-7.837h20.898
		c4.328,0,7.837,3.509,7.837,7.837C496.836,237.048,493.327,240.557,488.999,240.557z"/>
</g>
<g>
</g>
<g>
</g>
<g>
</g>
<g>
</g>
<g>
</g>
<g>
</g>
<g>
</g>
<g>
</g>
<g>
</g>
<g>
</g>
<g>
</g>
<g>
</g>
<g>
</g>
<g>
</g>
<g>
</g>
</svg>
