<?xml version="1.0" encoding="iso-8859-1"?>
<!-- Generator: Adobe Illustrator 19.0.0, SVG Export Plug-In . SVG Version: 6.00 Build 0)  -->
<svg version="1.1" id="Capa_1" xmlns="http://www.w3.org/2000/svg" xmlns:xlink="http://www.w3.org/1999/xlink" x="0px" y="0px"
	 viewBox="0 0 512.001 512.001" style="enable-background:new 0 0 512.001 512.001;" xml:space="preserve">
<path style="fill:#EF6E4B;" d="M170.642,212.462L110.139,15.236C107.262,6.124,97.437,0,85.691,0
	c-12.076,0-21.69,6.033-24.472,15.311L1.21,210.93l-0.089,0.251c-0.339,0.945-0.97,2.706-0.97,5.073
	c0,11.896,12.719,19.889,24.599,19.889c8.935,0,15.943-4.736,18.32-12.464l10.924-36.995h63.102l10.956,37.098
	c2.344,7.624,9.239,12.36,17.993,12.36c11.774,0,24.894-8.29,24.894-20.184c0-1.125-0.167-2.039-0.294-2.632v-0.866H170.642z
	 M65.312,147.201l20.297-67.535l19.937,67.535H65.312z"/>
<path style="fill:#EFD873;" d="M321.794,246.099c10.62-10.721,16.471-27.174,16.471-47.359c0-22.286-7.375-38.619-21.919-48.545
	c-11.38-7.766-26.451-11.383-47.428-11.383h-50.638c-11.842,0-20.772,7.918-20.772,18.417v197.837
	c0,10.162,9.125,18.122,20.772,18.122h57.408c43.136,0,67.877-25.813,67.877-70.82v-5.299
	C343.566,273.553,336.575,256.996,321.794,246.099z M241.408,227.132v-46.775h26.332c16.439,0,26.627,3.665,26.627,21.915
	c0,18.587-6.496,24.86-25.744,24.86H241.408z M299.666,295.892v5.005c0,21.265-8.665,30.748-28.099,30.748h-30.16v-64.734h30.16
	C291.788,266.91,299.666,275.036,299.666,295.892z"/>
<path style="fill:#46BEE8;" d="M489.899,426.885c-18.497,0-21.429,12.816-21.886,17.014c-1.745,13.673-3.453,26.557-27.867,26.557
	c-21.346,0-30.454-9.636-30.454-32.22v-88.615c0-22.584,8.844-32.219,29.571-32.219c18.735,0,27.855,7.865,28.701,24.804
	c0.452,8.114,6.468,17.59,21.936,17.59c14.565,0,21.95-7.781,21.95-23.128c0-35.804-30.091-60.811-73.175-60.811
	c-20.785,0-38.392,5.859-50.918,16.944c-14.573,12.898-21.963,32.016-21.963,56.821v88.615c0,24.81,7.333,43.92,21.794,56.801
	c12.46,11.098,30.023,16.963,50.793,16.963c21.239,0,39.547-6.019,52.944-17.407c13.235-11.25,20.525-26.979,20.525-44.287
	C511.849,434.765,504.464,426.885,489.899,426.885z"/>
<g>
</g>
<g>
</g>
<g>
</g>
<g>
</g>
<g>
</g>
<g>
</g>
<g>
</g>
<g>
</g>
<g>
</g>
<g>
</g>
<g>
</g>
<g>
</g>
<g>
</g>
<g>
</g>
<g>
</g>
</svg>
