<?xml version="1.0" encoding="iso-8859-1"?>
<!-- Generator: Adobe Illustrator 19.0.0, SVG Export Plug-In . SVG Version: 6.00 Build 0)  -->
<svg version="1.1" id="Capa_1" xmlns="http://www.w3.org/2000/svg" xmlns:xlink="http://www.w3.org/1999/xlink" x="0px" y="0px"
	 viewBox="0 0 512 512" style="enable-background:new 0 0 512 512;" xml:space="preserve">
<path style="fill:#605B58;" d="M126.63,248.7c-4.375,0-7.921-2.623-7.921-5.858v-11.329c0-3.236,3.547-5.858,7.921-5.858
	s7.921,2.623,7.921,5.858v11.329C134.552,246.078,131.005,248.7,126.63,248.7z"/>
<path style="fill:#D19F71;" d="M106.563,237.846c-3.891,0-7.284-2.867-7.836-6.831c-0.603-4.333,2.421-8.334,6.754-8.937
	l28.969-4.03c4.332-0.606,8.334,2.422,8.937,6.754c0.602,4.333-2.421,8.334-6.755,8.937l-28.969,4.03
	C107.295,237.822,106.926,237.846,106.563,237.846z"/>
<polygon style="fill:#F7CB92;" points="315.054,249.854 255.195,389.141 145.837,383.385 159.364,315.595 123.344,315.595 
	125.186,215.274 125.739,184.815 122.815,156.613 282.822,181.937 "/>
<polygon style="fill:#E2B27F;" points="125.186,215.274 125.739,184.815 122.815,156.613 282.822,181.937 296.636,251.006 "/>
<path style="fill:#E2D0C5;" d="M369.87,236.475v153.377c0,27.579,22.358,49.937,49.937,49.937l0,0l0,0
	c0,39.881-32.331,72.212-72.212,72.212h-1.328c-35.04,0-63.445-28.405-63.445-63.445v-296.36"/>
<path style="fill:#FFF2E9;" d="M335.755,156.614v129.547c0,117.105-95.317,211.831-212.412,211.113l24.851-146.836l2.683-15.842
	l3.211-19h57.655c25.263,0,45.731-20.479,45.731-45.731V130.136L335.755,156.614z"/>
<path style="fill:#75706B;" d="M373.589,213.409l-102.44-38.965L119.706,116.83c0,0,50.144-89.523,202.668-116.183
	c10.695-1.865,20.744,0.414,28.916,5.433c15.471,9.497,24.243,28.789,17.946,48.325C355.114,98.273,345.777,159.052,373.589,213.409
	z"/>
<path style="fill:#605B58;" d="M373.589,213.409l-102.44-38.965C245.261,78.047,351.291,6.078,351.291,6.078
	c15.471,9.497,24.243,28.789,17.946,48.325C355.114,98.273,345.777,159.052,373.589,213.409z"/>
<path style="fill:#BA7052;" d="M409.442,252.987c-31.621-14.48-64.34-26.14-96.183-35.497
	c-90.084-26.49-173.097-34.684-204.245-36.967c-7.49-0.549-13.467-6.464-14.078-13.95l-2.686-32.878
	c-0.866-10.72,8.386-19.486,19.053-18.05c31.473,4.246,94.24,14.923,156.225,38.401h0.021l0.011,0.011
	c0.042,0.011,0.137,0.042,0.264,0.095c0.56,0.211,1.12,0.422,1.679,0.634c0.158,0.063,0.317,0.127,0.496,0.201
	C324.876,176.079,378.803,207.266,409.442,252.987z"/>
<path style="fill:#605B58;" d="M177.853,248.7c-4.375,0-7.921-3.547-7.921-7.921v-15.318c0-4.375,3.547-7.921,7.921-7.921
	c4.375,0,7.921,3.547,7.921,7.921v15.318C185.775,245.155,182.228,248.7,177.853,248.7z"/>
<g>
	<path style="fill:#A35D45;" d="M174.481,342.516c0,4.383-3.549,7.921-7.921,7.921h-18.366l2.683-15.842h15.684
		C170.933,334.595,174.481,338.144,174.481,342.516z"/>
	<path style="fill:#A35D45;" d="M267.549,154.047l0.011,0.011c-0.021-0.011-0.032-0.011-0.032-0.011H267.549z"/>
	<path style="fill:#A35D45;" d="M313.259,217.49c2.936-40.809-33.342-58.458-43.26-62.503c54.877,21.091,108.804,52.279,139.443,98
		C377.821,238.507,345.101,226.847,313.259,217.49z"/>
</g>
<path style="fill:#D19F71;" d="M209.997,237.846c-0.363,0-0.73-0.025-1.099-0.076l-48.847-6.785
	c-4.333-0.602-7.358-4.603-6.756-8.935c0.601-4.333,4.601-7.359,8.935-6.756l48.847,6.785c4.333,0.602,7.358,4.603,6.756,8.935
	C217.283,234.978,213.888,237.846,209.997,237.846z"/>
<g>
</g>
<g>
</g>
<g>
</g>
<g>
</g>
<g>
</g>
<g>
</g>
<g>
</g>
<g>
</g>
<g>
</g>
<g>
</g>
<g>
</g>
<g>
</g>
<g>
</g>
<g>
</g>
<g>
</g>
</svg>
