<?xml version="1.0" encoding="iso-8859-1"?>
<!-- Generator: Adobe Illustrator 19.0.0, SVG Export Plug-In . SVG Version: 6.00 Build 0)  -->
<svg version="1.1" id="Capa_1" xmlns="http://www.w3.org/2000/svg" xmlns:xlink="http://www.w3.org/1999/xlink" x="0px" y="0px"
	 viewBox="0 0 512 512" style="enable-background:new 0 0 512 512;" xml:space="preserve">
<path style="fill:#EFD873;" d="M143.545,144.468c-70.869-11.675-124.748-2.321-139.57,29.575
	c-24.68,53.109,68.138,148.587,207.342,213.277s272.032,74.074,296.712,20.964c14.823-31.897-12.768-79.111-67.388-125.752"/>
<path style="fill:#E0C865;" d="M440.639,282.532l-33.722-15.672c31.223,35.103,44.6,68.348,33.293,92.68
	c-24.68,53.109-157.509,43.725-296.712-20.964c-25.637-11.914-49.695-24.875-71.741-38.421
	c36.212,30.857,84.212,61.445,139.56,87.166c139.204,64.69,272.032,74.074,296.712,20.964
	C522.851,376.388,495.259,329.175,440.639,282.532z"/>
<path style="fill:#75706B;" d="M444.01,383.485c-0.031-4.325,3.448-7.856,7.783-7.888h-0.011c4.336-0.031,7.867,3.448,7.899,7.783
	l0,0c0.031,4.325-3.459,7.856-7.783,7.888l0,0c-0.021,0-0.031,0-0.052,0l0,0C447.54,391.268,444.041,387.8,444.01,383.485z
	 M421.59,389.858L421.59,389.858L421.59,389.858c-4.304-0.407-7.47-4.231-7.062-8.535l0,0c0.407-4.315,4.231-7.47,8.546-7.062h-0.01
	c4.315,0.407,7.469,4.231,7.062,8.535l0,0c-0.376,4.053-3.792,7.104-7.783,7.104l0,0C422.09,389.9,421.841,389.879,421.59,389.858z
	 M473.543,382.398c-0.69-4.273,2.215-8.295,6.488-8.985l0,0c4.274-0.679,8.295,2.225,8.986,6.498l0,0
	c0.69,4.273-2.215,8.295-6.488,8.974l0,0l0,0l0,0c-0.418,0.073-0.847,0.104-1.254,0.104l0,0
	C477.492,388.991,474.159,386.253,473.543,382.398z M391.722,385.847c-4.274-0.731-7.135-4.785-6.404-9.047l0,0
	c0.73-4.273,4.784-7.135,9.046-6.404h0.011c4.262,0.731,7.124,4.785,6.393,9.047l0,0c-0.658,3.824-3.97,6.519-7.72,6.519l0,0
	C392.609,385.961,392.16,385.919,391.722,385.847z M362.292,379.828L362.292,379.828L362.292,379.828
	c-4.21-0.992-6.822-5.213-5.829-9.423l0,0c0.991-4.21,5.202-6.822,9.423-5.829l0,0c4.21,0.992,6.822,5.213,5.829,9.423l0,0
	c-0.857,3.615-4.074,6.038-7.626,6.038l0,0C363.493,380.037,362.897,379.975,362.292,379.828z M333.321,372.181c0,0,0,0-0.01,0l0,0
	c-4.147-1.212-6.54-5.558-5.329-9.716l0,0c1.212-4.148,5.568-6.54,9.717-5.328l0,0c4.157,1.212,6.54,5.558,5.337,9.716l0,0
	c-1.003,3.427-4.127,5.641-7.522,5.641l0,0C334.785,372.495,334.054,372.401,333.321,372.181z M304.802,363.125
	c-4.095-1.4-6.279-5.861-4.868-9.956l0,0c1.4-4.085,5.861-6.268,9.956-4.858l0,0c4.085,1.4,6.268,5.85,4.857,9.946l0,0
	c-1.107,3.249-4.148,5.297-7.407,5.297l0,0C306.494,363.552,305.636,363.416,304.802,363.125z M276.74,352.802L276.74,352.802
	L276.74,352.802c-4.032-1.578-6.007-6.122-4.43-10.155l0,0c1.579-4.022,6.122-6.007,10.156-4.43l0,0
	c4.032,1.578,6.007,6.122,4.429,10.155l0,0c-1.211,3.092-4.167,4.973-7.291,4.973l0,0
	C278.651,353.345,277.681,353.179,276.74,352.802z M249.16,341.32c-3.959-1.745-5.757-6.373-4.013-10.332l0,0
	c1.746-3.959,6.374-5.756,10.333-4.012l0,0c3.959,1.745,5.756,6.373,4.012,10.332l0,0c-1.295,2.925-4.168,4.67-7.177,4.67l0,0
	C251.26,341.979,250.183,341.771,249.16,341.32z M222.07,328.733c-3.886-1.912-5.495-6.603-3.593-10.489l0,0
	c1.9-3.886,6.592-5.495,10.477-3.594l0,0c3.887,1.901,5.496,6.603,3.594,10.489l0,0c-1.358,2.768-4.137,4.388-7.041,4.388l0,0
	C224.359,329.526,223.178,329.275,222.07,328.733z M195.503,315.056c-3.803-2.069-5.224-6.822-3.165-10.625l0,0
	c2.069-3.803,6.822-5.224,10.625-3.165l0,0c3.813,2.069,5.224,6.822,3.165,10.625l0,0c-1.421,2.622-4.116,4.106-6.906,4.106l0,0
	C197.969,315.997,196.694,315.694,195.503,315.056z M169.521,300.264L169.521,300.264L169.521,300.264
	c-3.709-2.225-4.921-7.041-2.695-10.75l0,0c2.215-3.709,7.031-4.921,10.75-2.695l0,0c3.709,2.225,4.91,7.031,2.695,10.74l0,0
	c-1.473,2.455-4.064,3.813-6.728,3.813l0,0C172.174,301.371,170.785,301.015,169.521,300.264z M144.208,284.3L144.208,284.3
	L144.208,284.3c-3.604-2.392-4.587-7.261-2.195-10.865l0,0c2.392-3.604,7.261-4.586,10.865-2.183l0,0
	c3.604,2.392,4.586,7.25,2.194,10.855l0,0c-1.515,2.277-4.001,3.5-6.54,3.5l0,0C147.05,285.606,145.545,285.188,144.208,284.3z
	 M119.678,267.083L119.678,267.083L119.678,267.083c-3.468-2.58-4.2-7.491-1.619-10.959l0,0c2.58-3.479,7.491-4.2,10.959-1.619l0,0
	c3.479,2.58,4.2,7.491,1.619,10.959l0,0c-1.536,2.069-3.897,3.165-6.29,3.165l0,0C122.719,268.629,121.077,268.128,119.678,267.083z
	 M96.11,248.467c-3.312-2.789-3.73-7.731-0.94-11.043l0,0c2.779-3.312,7.731-3.73,11.032-0.94l0,0
	c3.313,2.789,3.74,7.731,0.951,11.043l0,0c-1.556,1.839-3.77,2.779-5.996,2.779l0,0C99.368,250.305,97.582,249.699,96.11,248.467z
	 M73.773,228.22c-3.092-3.03-3.134-7.992-0.104-11.084l0,0c3.03-3.092,7.992-3.134,11.074-0.104l0,0
	c3.093,3.03,3.146,7.992,0.115,11.084l0,0c-1.536,1.557-3.562,2.34-5.6,2.34l0,0C77.283,230.455,75.299,229.714,73.773,228.22z
	 M53.161,205.958c-2.768-3.333-2.319-8.264,1.013-11.032l0,0c3.323-2.768,8.264-2.309,11.033,1.013l0,0
	c2.767,3.322,2.309,8.264-1.014,11.032l0,0c-1.462,1.222-3.239,1.818-5.004,1.818l0,0C56.944,208.789,54.707,207.817,53.161,205.958
	z M35.224,181.009L35.224,181.009L35.224,181.009c-2.225-3.709-1.024-8.525,2.685-10.75l0,0c3.709-2.236,8.524-1.034,10.75,2.685
	v-0.01c2.225,3.709,1.033,8.525-2.685,10.761l0,0c-1.264,0.752-2.654,1.118-4.023,1.118l0,0
	C39.287,184.812,36.697,183.455,35.224,181.009z"/>
<path style="fill:#C4DEE8;" d="M132.141,165.065c38.512-82.873,136.915-118.834,219.788-80.322s118.834,136.915,80.322,219.788l0,0
	C318.625,295.919,211.987,246.362,132.141,165.065L132.141,165.065z"/>
<path style="fill:#AAC5CE;" d="M351.918,84.745c45.455,21.124,41.628,126.749,7.377,208.432
	c23.843,5.671,48.227,9.467,72.959,11.348C470.764,221.655,434.787,123.255,351.918,84.745z"/>
<circle style="fill:#E1F3F9;" cx="240.294" cy="143.7" r="27.847"/>
<g>
</g>
<g>
</g>
<g>
</g>
<g>
</g>
<g>
</g>
<g>
</g>
<g>
</g>
<g>
</g>
<g>
</g>
<g>
</g>
<g>
</g>
<g>
</g>
<g>
</g>
<g>
</g>
<g>
</g>
</svg>
