<?xml version="1.0" encoding="iso-8859-1"?>
<!-- Generator: Adobe Illustrator 19.0.0, SVG Export Plug-In . SVG Version: 6.00 Build 0)  -->
<svg version="1.1" id="Capa_1" xmlns="http://www.w3.org/2000/svg" xmlns:xlink="http://www.w3.org/1999/xlink" x="0px" y="0px"
	 viewBox="0 0 512 512" style="enable-background:new 0 0 512 512;" xml:space="preserve">
<g>
	<path style="fill:#EF6E4B;" d="M189.713,173.04H7.774c-2.765,0-5.319-1.475-6.701-3.869c-1.383-2.394-1.383-5.344,0-7.738
		L92.043,3.869C93.426,1.475,95.979,0,98.744,0s5.319,1.475,6.701,3.869l90.969,157.564c1.383,2.394,1.383,5.344,0,7.738
		C195.032,171.565,192.478,173.04,189.713,173.04z M21.177,157.564h155.134L98.744,23.214L21.177,157.564z"/>
	<path style="fill:#EF6E4B;" d="M98.744,225.562c-2.765,0-5.319-1.475-6.701-3.869L1.073,64.128c-1.383-2.394-1.383-5.344,0-7.738
		c1.383-2.394,3.936-3.869,6.701-3.869h181.939c2.765,0,5.319,1.475,6.701,3.869c1.383,2.394,1.383,5.344,0,7.738l-90.969,157.564
		C104.063,224.087,101.508,225.562,98.744,225.562z M21.177,67.997l77.568,134.35l77.567-134.35H21.177z"/>
</g>
<polygon style="fill:#BA7052;" points="213.706,494.816 213.706,280.7 104.386,280.7 104.386,182.07 213.706,182.07 213.706,96.279 
	312.335,96.279 312.335,182.07 421.655,182.07 421.655,280.7 312.335,280.7 312.335,494.816 "/>
<polygon style="fill:#E2D0C5;" points="279.32,293.483 279.32,247.684 338.8,247.684 388.639,247.684 388.639,215.086 
	279.32,215.086 279.32,129.295 246.72,129.295 246.72,215.086 137.401,215.086 137.401,247.684 246.72,247.684 246.72,461.8 
	279.32,461.8 "/>
<g>
	<path style="fill:#EFD873;" d="M467.207,488.931c-50.929,0-92.215-41.286-92.215-92.215s41.286-92.215,92.215-92.215
		c3.315,0,6.588,0.184,9.812,0.525c-19.389-14.798-43.604-23.594-69.878-23.594c-63.67,0-115.284,51.615-115.284,115.284
		S343.47,512,407.141,512c26.273,0,50.49-8.796,69.878-23.594C473.793,488.748,470.522,488.931,467.207,488.931z"/>
	<polygon style="fill:#EFD873;" points="464.784,350.887 479.364,380.428 511.964,385.165 488.374,408.16 493.943,440.628 
		464.784,425.298 435.625,440.628 441.194,408.16 417.605,385.165 450.205,380.428 	"/>
</g>
<g>
</g>
<g>
</g>
<g>
</g>
<g>
</g>
<g>
</g>
<g>
</g>
<g>
</g>
<g>
</g>
<g>
</g>
<g>
</g>
<g>
</g>
<g>
</g>
<g>
</g>
<g>
</g>
<g>
</g>
</svg>
