<?xml version="1.0" encoding="iso-8859-1"?>
<!-- Generator: Adobe Illustrator 19.0.0, SVG Export Plug-In . SVG Version: 6.00 Build 0)  -->
<svg version="1.1" id="Capa_1" xmlns="http://www.w3.org/2000/svg" xmlns:xlink="http://www.w3.org/1999/xlink" x="0px" y="0px"
	 viewBox="0 0 512 512" style="enable-background:new 0 0 512 512;" xml:space="preserve">
<path style="fill:#FFF2E9;" d="M451.2,195.2C451.2,87.394,363.806,0,256.001,0S60.8,87.394,60.8,195.2S148.194,512,256.001,512
	S451.2,303.006,451.2,195.2z"/>
<path style="fill:#E2D0C5;" d="M451.2,195.197c0,107.812-87.395,316.802-195.197,316.802c58.974,0,106.778-208.99,106.778-316.802
	C362.78,87.395,314.977,0,256.003,0C363.805,0,451.2,87.395,451.2,195.197z"/>
<g>
	<ellipse style="fill:#605B58;" cx="255.999" cy="360.541" rx="57.595" ry="76.8"/>
	<path style="fill:#605B58;" d="M375.781,216.772c18.121-18.121,10.577-39.956-7.543-58.076
		c-18.121-18.121-39.956-25.664-58.076-7.543c-18.121,18.121-18.121,47.499,0,65.619
		C328.282,234.893,357.662,234.893,375.781,216.772z"/>
	<path style="fill:#605B58;" d="M201.838,151.153c-18.121-18.121-39.956-10.577-58.076,7.543s-25.664,39.956-7.543,58.076
		s47.499,18.121,65.619,0S219.959,169.273,201.838,151.153z"/>
</g>
<g>
</g>
<g>
</g>
<g>
</g>
<g>
</g>
<g>
</g>
<g>
</g>
<g>
</g>
<g>
</g>
<g>
</g>
<g>
</g>
<g>
</g>
<g>
</g>
<g>
</g>
<g>
</g>
<g>
</g>
</svg>
