<?xml version="1.0" encoding="iso-8859-1"?>
<!-- Generator: Adobe Illustrator 19.0.0, SVG Export Plug-In . SVG Version: 6.00 Build 0)  -->
<svg version="1.1" id="Capa_1" xmlns="http://www.w3.org/2000/svg" xmlns:xlink="http://www.w3.org/1999/xlink" x="0px" y="0px"
	 viewBox="0 0 512 512" style="enable-background:new 0 0 512 512;" xml:space="preserve">
<path style="fill:#FFF2E9;" d="M409.201,189.229v289.125H45.554c-25.15,0-45.543-20.394-45.543-45.554
	c0,0,1.102-119.665,26.251-119.665c8.02,0,14.69-3.655,20.064-7.824c11.479-8.895,16.996-20.116,16.996-2.985l27.785-113.097
	L409.201,189.229L409.201,189.229z"/>
<path style="fill:#E2D0C5;" d="M46.326,305.311v173.042h-0.772c-25.15,0-45.543-20.394-45.543-45.554
	c0,0,1.102-119.665,26.251-119.665C34.281,313.135,40.952,309.48,46.326,305.311z"/>
<path style="fill:#FFF2E9;" d="M91.107,143.675v289.123c0-24.892-19.972-45.121-44.782-45.533c-0.257-0.01-0.515-0.01-0.772-0.01
	c-25.15,0-45.543,20.394-45.543,45.543L0,143.675h0.01c0-25.15,20.394-45.543,45.543-45.543c0.257,0,0.515,0,0.772,0.01
	C71.136,98.554,91.107,118.782,91.107,143.675z"/>
<path style="fill:#E2D0C5;" d="M91.107,143.675v289.123c0-24.892-19.972-45.121-44.782-45.533V98.142
	C71.136,98.554,91.107,118.782,91.107,143.675z"/>
<g>
	<path style="fill:#EF6E4B;" d="M178.351,278.389c-1.976,0-3.952-0.754-5.459-2.262l-39.376-39.375
		c-3.015-3.015-3.015-7.904,0-10.918c3.015-3.015,7.904-3.015,10.918,0l39.376,39.375c3.015,3.015,3.015,7.904,0,10.918
		C182.303,277.636,180.328,278.389,178.351,278.389z"/>
	<path style="fill:#EF6E4B;" d="M138.976,278.389c-1.976,0-3.952-0.754-5.459-2.262c-3.015-3.015-3.015-7.904,0-10.918
		l39.376-39.375c3.015-3.015,7.904-3.015,10.918,0c3.015,3.015,3.015,7.904,0,10.918l-39.376,39.375
		C142.928,277.636,140.952,278.389,138.976,278.389z"/>
</g>
<path style="fill:#46BEE8;" d="M216.601,446.337c-1.993,0-3.984-0.766-5.494-2.296c-5.163-5.229-9.736-10.327-13.593-15.154
	c-2.662-3.331-2.12-8.189,1.212-10.852c3.332-2.661,8.19-2.119,10.852,1.212c3.522,4.407,7.733,9.098,12.518,13.944
	c2.996,3.035,2.965,7.923-0.069,10.918C220.52,445.596,218.56,446.337,216.601,446.337z M189.163,406.998
	c-3.279,0-6.319-2.103-7.36-5.395c-1.405-4.445-2.118-8.797-2.118-12.932c0-3.798,0.599-7.499,1.78-10.999
	c1.363-4.04,5.743-6.211,9.783-4.848c4.041,1.363,6.212,5.743,4.848,9.783c-0.652,1.933-0.969,3.917-0.969,6.064
	c0,2.554,0.471,5.339,1.4,8.277c1.286,4.066-0.969,8.405-5.035,9.689C190.718,406.882,189.934,406.998,189.163,406.998z
	 M207.964,367.367c-2.649,0-5.228-1.364-6.666-3.813c-2.159-3.677-0.928-8.409,2.75-10.567c5.303-3.113,11.468-6.007,18.848-8.846
	c3.976-1.532,8.447,0.452,9.979,4.433c1.532,3.98-0.453,8.448-4.433,9.979c-6.585,2.535-12.008,5.07-16.576,7.752
	C210.637,367.024,209.292,367.367,207.964,367.367z M253.154,350.241c-3.379,0-6.48-2.234-7.433-5.648
	c-1.146-4.108,1.254-8.365,5.361-9.512c6.292-1.756,12.61-3.411,19.067-5.091c4.125-1.071,8.343,1.4,9.417,5.527
	c1.074,4.126-1.4,8.343-5.527,9.417c-6.388,1.663-12.633,3.298-18.805,5.021C254.54,350.149,253.841,350.241,253.154,350.241z
	 M299.986,337.668c-3.345,0-6.426-2.19-7.409-5.562c-1.193-4.094,1.158-8.38,5.251-9.573c7.066-2.06,12.977-3.991,18.072-5.903
	c3.992-1.497,8.443,0.524,9.942,4.516c1.498,3.992-0.524,8.444-4.516,9.942c-5.461,2.05-11.734,4.1-19.176,6.27
	C301.43,337.567,300.702,337.668,299.986,337.668z M343.76,317.804c-2.095,0-4.183-0.847-5.706-2.518
	c-2.874-3.15-2.65-8.034,0.501-10.907c3.911-3.567,5.75-7.123,5.789-11.188c0.039-4.239,3.489-7.649,7.719-7.649
	c0.025,0,0.048,0,0.074,0c4.264,0.04,7.688,3.529,7.648,7.792c-0.078,8.42-3.719,15.974-10.823,22.454
	C347.481,317.137,345.617,317.804,343.76,317.804z M341.18,275.32c-1.861,0-3.727-0.668-5.208-2.023
	c-3.578-3.271-8.386-6.058-14.292-8.286c-3.989-1.505-6.004-5.96-4.5-9.95c1.505-3.989,5.959-6.004,9.95-4.5
	c7.749,2.923,14.229,6.738,19.261,11.339c3.147,2.877,3.366,7.761,0.489,10.908C345.358,274.474,343.273,275.32,341.18,275.32z
	 M228.528,262.177c-3.682,0-6.943-2.642-7.597-6.393c-0.733-4.2,2.074-8.199,6.274-8.934c0.33-0.058,8.216-1.427,20.037-2.53
	c4.243-0.403,8.008,2.724,8.406,6.969c0.396,4.245-2.724,8.009-6.969,8.406c-11.156,1.042-18.738,2.353-18.813,2.367
	C229.416,262.139,228.969,262.177,228.528,262.177z M296.309,259.407c-0.264,0-0.529-0.013-0.797-0.041
	c-5.816-0.596-12.143-0.919-18.803-0.96c-4.264-0.027-7.699-3.504-7.674-7.768c0.027-4.248,3.479-7.674,7.72-7.674
	c0.016,0,0.033,0,0.048,0c7.153,0.044,13.977,0.394,20.282,1.041c4.242,0.434,7.329,4.226,6.893,8.468
	C303.573,256.447,300.219,259.407,296.309,259.407z"/>
<circle style="fill:#C4DEE8;" cx="409.16" cy="136.486" r="95.122"/>
<path style="fill:#E1F3F9;" d="M409.158,41.368c-5.528,0-10.943,0.478-16.213,1.383c44.809,7.696,78.908,46.733,78.908,93.739
	c0,47.006-34.098,86.044-78.908,93.74c5.27,0.905,10.686,1.383,16.213,1.383c52.534,0,95.121-42.587,95.121-95.121
	C504.279,83.955,461.691,41.368,409.158,41.368z"/>
<polygon style="fill:#EF6E4B;" points="450.406,177.738 426.666,118.98 367.908,95.24 391.649,153.997 "/>
<g>
	<path style="fill:#FFFFFF;" d="M338.168,462.912c-4.264,0-7.721-3.457-7.721-7.721v-69.486c0-4.264,3.457-7.721,7.721-7.721
		c4.264,0,7.721,3.457,7.721,7.721v69.486C345.889,459.455,342.432,462.912,338.168,462.912z"/>
	<path style="fill:#FFFFFF;" d="M372.91,428.169h-69.486c-4.264,0-7.721-3.457-7.721-7.721s3.457-7.721,7.721-7.721h69.486
		c4.264,0,7.721,3.457,7.721,7.721S377.174,428.169,372.91,428.169z"/>
	<path style="fill:#FFFFFF;" d="M313.601,452.739c-3.323,0-6.331-2.22-7.347-5.37c-1.043-3.235,0.229-6.895,3.065-8.774
		c5.693-3.77,13.362,1.483,11.8,8.162C320.311,450.209,317.155,452.739,313.601,452.739z"/>
	<path style="fill:#FFFFFF;" d="M362.737,403.603c-3.265,0-6.241-2.135-7.299-5.215c-1.089-3.169,0.045-6.778,2.757-8.753
		c5.7-4.15,13.774,1.289,12.023,8.142C369.357,401.153,366.227,403.603,362.737,403.603z"/>
	<path style="fill:#FFFFFF;" d="M313.601,403.603c-3.321,0-6.333-2.216-7.347-5.367c-1.011-3.141,0.149-6.662,2.815-8.601
		c5.647-4.11,13.638,1.197,12.05,7.986C320.311,401.072,317.155,403.603,313.601,403.603z"/>
	<path style="fill:#FFFFFF;" d="M362.737,452.739c-3.268,0-6.24-2.139-7.299-5.218c-1.103-3.203,0.071-6.873,2.851-8.817
		c5.726-4.006,13.674,1.388,11.929,8.208C369.355,450.288,366.229,452.739,362.737,452.739z"/>
</g>
<g>
	<path style="fill:#36ACCC;" d="M409.158,239.331c-56.707,0-102.842-46.134-102.842-102.842
		c0-56.707,46.134-102.842,102.842-102.842S512,79.781,512,136.489S465.866,239.331,409.158,239.331z M409.158,49.089
		c-48.192,0-87.4,39.207-87.4,87.4s39.207,87.4,87.4,87.4s87.4-39.208,87.4-87.4S457.35,49.089,409.158,49.089z"/>
	<polygon style="fill:#36ACCC;" points="391.649,153.997 426.666,118.98 367.908,95.24 	"/>
</g>
<g>
</g>
<g>
</g>
<g>
</g>
<g>
</g>
<g>
</g>
<g>
</g>
<g>
</g>
<g>
</g>
<g>
</g>
<g>
</g>
<g>
</g>
<g>
</g>
<g>
</g>
<g>
</g>
<g>
</g>
</svg>
