<?xml version="1.0" encoding="iso-8859-1"?>
<!-- Generator: Adobe Illustrator 19.0.0, SVG Export Plug-In . SVG Version: 6.00 Build 0)  -->
<svg version="1.1" id="Capa_1" xmlns="http://www.w3.org/2000/svg" xmlns:xlink="http://www.w3.org/1999/xlink" x="0px" y="0px"
	 viewBox="0 0 512 512" style="enable-background:new 0 0 512 512;" xml:space="preserve">
<polygon style="fill:#EFD873;" points="185.617,193.289 22.748,61.944 137.018,241.887 202.981,255.679 "/>
<polygon style="fill:#E0C865;" points="22.748,61.944 162.623,216.284 185.617,193.289 "/>
<path style="fill:#DB5B3E;" d="M511.993,321.566v128.491L202.986,255.675l37.376-129.379c0,0,14.524-1.087,36.644,2.184
	c44.607,6.614,120.142,30.992,169.816,117.916C465.391,278.892,488.211,312.433,511.993,321.566z"/>
<path style="fill:#FFF2E9;" d="M512,450.046h-0.021l-0.01,0.01H250.4l-11.755-51.221c-19.351,19.362-47.794,26.436-73.968,18.432
	l-40.793-12.507l-46.205,23.907c-17.857,9.237-39.622,5.851-53.833-8.359L6.198,402.66c-8.265-8.276-8.265-21.692,0.01-29.968
	l203.055-203.055l22.329-72.234l31.514,103.769v0.01l82.965,82.954L512,450.046z"/>
<g>
	<path style="fill:#E2D0C5;" d="M511.99,450.057H383.102L285.32,298.693c-18.651-28.87-26.519-63.404-22.214-97.51l82.965,82.954
		l165.909,165.909L511.99,450.057z"/>
	<path style="fill:#E2D0C5;" d="M247.791,438.689c0,0,37.418-26.968,26.027-75.024l-35.172,35.172"/>
	<ellipse style="fill:#E2D0C5;" cx="191.352" cy="283.919" rx="37.982" ry="20.42"/>
</g>
<path style="fill:#605B58;" d="M173.79,296.457c-5.268,0-10.086-3.43-11.827-8.397c-1.665-4.75-0.256-10.126,3.475-13.489
	c3.999-3.605,10.098-4.182,14.724-1.45c4.473,2.639,6.914,7.957,5.96,13.07C185.027,292.062,179.774,296.457,173.79,296.457z"/>
<g>
	<path style="fill:#E2D0C5;" d="M55.352,413.048c-2.005,0-4.011-0.765-5.542-2.296c-3.06-3.06-3.06-8.023,0-11.082
		c2.229-2.228,2.229-5.852,0-8.08c-2.227-2.227-5.852-2.228-8.08,0c-3.061,3.06-8.023,3.058-11.082,0
		c-3.061-3.06-3.061-8.023,0.001-11.083c8.338-8.337,21.906-8.337,30.245,0c8.339,8.339,8.339,21.907,0.001,30.246
		C59.362,412.283,57.356,413.048,55.352,413.048z"/>
	<polygon style="fill:#E2D0C5;" points="231.592,97.404 239.286,183.138 263.106,201.183 	"/>
</g>
<path style="fill:#EF6E4B;" d="M511.993,321.566v60.959c-19.55-28.003-55.745-73.153-99.255-95.942
	c-61.304-32.11-101.762-97.75-135.732-158.103c44.607,6.614,120.142,30.992,169.816,117.917
	C465.391,278.892,488.211,312.433,511.993,321.566z"/>
<g>
</g>
<g>
</g>
<g>
</g>
<g>
</g>
<g>
</g>
<g>
</g>
<g>
</g>
<g>
</g>
<g>
</g>
<g>
</g>
<g>
</g>
<g>
</g>
<g>
</g>
<g>
</g>
<g>
</g>
</svg>
