<?xml version="1.0" encoding="iso-8859-1"?>
<!-- Generator: Adobe Illustrator 19.0.0, SVG Export Plug-In . SVG Version: 6.00 Build 0)  -->
<svg version="1.1" id="Capa_1" xmlns="http://www.w3.org/2000/svg" xmlns:xlink="http://www.w3.org/1999/xlink" x="0px" y="0px"
	 viewBox="0 0 512 512" style="enable-background:new 0 0 512 512;" xml:space="preserve">
<path style="fill:#605B58;" d="M350.158,170.2c-2.005,0-4.011-0.765-5.542-2.296c-3.06-3.06-3.06-8.022,0-11.082L454.848,46.591
	c3.061-3.06,8.022-3.06,11.083,0s3.06,8.022,0,11.082L355.699,167.904C354.169,169.435,352.163,170.2,350.158,170.2z"/>
<path style="fill:#EF6E4B;" d="M399.27,394.104c0,0,6.292-440.432-144.713-390.096C142.41,41.39,197.931,192.764,197.931,192.764
	S46.557,137.243,9.174,249.391C-41.16,400.396,399.27,394.104,399.27,394.104z"/>
<path style="fill:#DB5B3E;" d="M399.275,394.1c0,0-62.566-371.572-182.538-352.267c-6.454,1.041-12.071,2.716-16.936,4.94
	c10.693-18.357,27.933-33.821,54.758-42.763C405.569-46.332,399.275,394.1,399.275,394.1z"/>
<polygon style="fill:#FFF2E9;" points="0.522,443.372 91.821,420.701 69.15,512 157.368,423.783 180.039,332.483 88.739,355.154 "/>
<polygon style="fill:#E2D0C5;" points="91.821,420.701 69.15,512 157.368,423.783 180.039,332.483 "/>
<rect x="173.699" y="196.303" transform="matrix(-0.7071 -0.7071 0.7071 -0.7071 75.8481 693.414)" style="fill:#605B58;" width="15.673" height="269.391"/>
<polygon style="fill:#FFF2E9;" points="511.478,1.044 388.571,55.321 447.377,65.144 457.2,123.95 "/>
<polygon style="fill:#E2D0C5;" points="511.478,1.044 447.377,65.144 457.2,123.95 "/>
<g>
</g>
<g>
</g>
<g>
</g>
<g>
</g>
<g>
</g>
<g>
</g>
<g>
</g>
<g>
</g>
<g>
</g>
<g>
</g>
<g>
</g>
<g>
</g>
<g>
</g>
<g>
</g>
<g>
</g>
</svg>
