<?xml version="1.0" encoding="iso-8859-1"?>
<!-- Generator: Adobe Illustrator 19.0.0, SVG Export Plug-In . SVG Version: 6.00 Build 0)  -->
<svg version="1.1" id="Capa_1" xmlns="http://www.w3.org/2000/svg" xmlns:xlink="http://www.w3.org/1999/xlink" x="0px" y="0px"
	 viewBox="0 0 512 512" style="enable-background:new 0 0 512 512;" xml:space="preserve">
<g>
	<path style="fill:#605B58;" d="M214.439,29.836c2.004,0,4.008-0.764,5.538-2.293l9.876-9.865c3.063-3.058,3.065-8.021,0.006-11.082
		c-3.058-3.063-8.021-3.066-11.082-0.006l-9.876,9.865c-3.063,3.058-3.065,8.021-0.006,11.082
		C210.425,29.07,212.432,29.836,214.439,29.836z"/>
	<path style="fill:#605B58;" d="M461.543,289.198c1.509,0,3.032-0.435,4.377-1.343c3.587-2.421,4.533-7.292,2.112-10.879
		c-8.999-13.333-23.982-21.293-40.079-21.293c-4.328,0-7.837,3.509-7.837,7.837c0,4.328,3.509,7.837,7.837,7.837
		c10.881,0,21.007,5.378,27.088,14.388C456.555,287.987,459.026,289.198,461.543,289.198z"/>
	<path style="fill:#605B58;" d="M329.73,317.164c9.247,0,18.321-3.62,25.14-10.439c3.06-3.06,3.06-8.022,0-11.082
		c-3.06-3.061-8.022-3.061-11.082,0c-5.672,5.673-14.128,7.391-21.546,4.378c-4.008-1.629-8.581,0.301-10.21,4.311
		c-1.629,4.009,0.302,8.581,4.311,10.21C320.687,316.306,325.23,317.164,329.73,317.164z"/>
</g>
<path style="fill:#75706B;" d="M342.362,339.787c0.719-0.637,1.402-1.31,2.064-2.041c5.646-6.26,8.44-14.12,8.44-21.968
	c0-8.567-3.35-17.122-9.958-23.545l-20.449-19.858c-8.138-7.894-20.692-8.347-29.329-1.611c5.762-7.651,5.17-18.571-1.797-25.538
	l-21.133-21.133l28.089-28.089l16.299-16.299l2.986-26.545l27.549-3.99l5.831-5.831l95.823,95.823
	c-11.708,11.72-17.574,27.068-17.574,42.417c0,15.36,5.866,30.72,17.574,42.428c0,0,4.915,5.495,10.723,8.973
	c-0.278,0.487-0.521,0.997-0.753,1.507l-0.835-0.198c-16.187-12.212-25.223,18.962-44.502,20.247
	c-19.244,1.283-48.732-27.346-63.459-12.619l-0.452,0.359c-2.956-1.484-4.997-2.33-4.997-2.33L342.362,339.787z"/>
<path style="fill:#EFD873;" d="M316.047,438.578c-5.657,4.15-6.306,12.358-1.345,17.308l51.587,51.587
	c6.144,6.144,16.136,6.017,22.153-0.266c50.485-52.757,70.517-87.709,70.216-126.601c-0.104-12.613-7.767-33.073-1.913-46.114
	l-0.835-0.197c-32.343-24.403-78.481-21.852-107.961,7.628l-0.452,0.359c6.503,3.245,17.412,9.517,20.705,16.404
	C380.849,386.644,337.296,422.986,316.047,438.578z"/>
<polygon style="fill:#75706B;" points="355.172,180.936 309.683,226.424 362.962,279.703 408.439,234.214 "/>
<polygon style="fill:#605B58;" points="165.403,30.523 314.587,179.707 345.121,149.172 195.937,0 "/>
<g>
	<polygon style="fill:#75706B;" points="183.703,12.223 332.886,161.407 345.121,149.172 195.937,0 	"/>
	<path style="fill:#75706B;" d="M301.203,343.719l-15.982-16.712c-15.666-16.357-15.953-42.26-0.658-58.968
		c1.179-1.289,2.449-2.46,3.776-3.476c11.81-9.188,28.818-8.249,39.579,2.191l20.451,19.86c7.953,7.729,12.333,18.087,12.333,29.164
		c0,10.074-3.714,19.739-10.466,27.226c-0.84,0.928-1.714,1.792-2.667,2.638c-6.372,5.664-14.277,8.466-22.166,8.466
		C316.593,354.109,307.804,350.615,301.203,343.719z M297.948,276.945c-0.02,0.016-0.039,0.03-0.059,0.045
		c-0.604,0.462-1.195,1.008-1.764,1.63c-9.742,10.641-9.56,27.134,0.417,37.552l15.983,16.713c6.654,6.949,17.472,7.41,24.632,1.043
		c0.527-0.467,1.003-0.937,1.446-1.428c4.142-4.592,6.422-10.53,6.422-16.719c0-6.806-2.694-13.172-7.581-17.922l-20.446-19.855
		c-2.799-2.716-6.474-4.097-10.157-4.097C303.705,273.904,300.56,274.908,297.948,276.945z"/>
</g>
<polygon style="fill:#605B58;" points="304.25,225.999 363.392,285.141 413.871,234.64 354.74,175.499 345.231,185.008 
	334.145,196.094 325.901,204.338 314.825,215.425 "/>
<g>
	<path style="fill:#75706B;" d="M334.145,196.094l38.128,38.139c1.536,1.526,3.542,2.288,5.548,2.288
		c2.006,0,4.012-0.763,5.538-2.288c3.062-3.062,3.062-8.025,0-11.086l-38.128-38.139L334.145,196.094z"/>
	<path style="fill:#75706B;" d="M314.825,215.425l38.118,38.139c1.536,1.526,3.542,2.288,5.548,2.288
		c2.006,0,4.012-0.763,5.538-2.288c3.062-3.062,3.062-8.025,0-11.086l-38.128-38.139L314.825,215.425z"/>
</g>
<g>
	<circle style="fill:#605B58;" cx="373.489" cy="449.588" r="15.673"/>
	<path style="fill:#605B58;" d="M297.561,29.836c-2.004,0-4.008-0.764-5.538-2.293l-9.876-9.865
		c-3.063-3.058-3.065-8.021-0.006-11.082c3.058-3.063,8.021-3.066,11.082-0.006l9.876,9.865c3.063,3.058,3.065,8.021,0.006,11.082
		C301.576,29.07,299.568,29.836,297.561,29.836z"/>
	<path style="fill:#605B58;" d="M50.457,289.198c-1.509,0-3.032-0.435-4.377-1.343c-3.587-2.421-4.533-7.292-2.112-10.879
		c8.999-13.333,23.982-21.293,40.079-21.293c4.328,0,7.837,3.509,7.837,7.837c0,4.328-3.509,7.837-7.837,7.837
		c-10.881,0-21.007,5.378-27.088,14.388C55.446,287.987,52.974,289.198,50.457,289.198z"/>
	<path style="fill:#605B58;" d="M182.27,317.164c-9.247,0-18.321-3.62-25.14-10.439c-3.061-3.06-3.061-8.022,0-11.082
		c3.061-3.061,8.022-3.061,11.082,0c5.672,5.673,14.128,7.391,21.546,4.378c4.008-1.629,8.581,0.301,10.21,4.311
		c1.629,4.009-0.302,8.581-4.311,10.21C191.314,316.306,186.771,317.164,182.27,317.164z"/>
</g>
<path style="fill:#75706B;" d="M169.499,339.949c0,0-2.041,0.846-4.997,2.33l-0.452-0.359
	c-14.727-14.727-44.215,13.902-63.459,12.619c-19.279-1.285-28.316-32.46-44.502-20.247l-0.835,0.197
	c-0.232-0.51-0.475-1.02-0.753-1.507c5.808-3.477,10.723-8.973,10.723-8.973c11.708-11.708,17.574-27.068,17.574-42.428
	c0-15.348-5.866-30.697-17.574-42.417l95.823-95.823l5.831,5.831l27.549,3.99l2.986,26.545l16.299,16.299l28.089,28.089
	l-21.133,21.133c-6.967,6.967-7.559,17.888-1.797,25.538c-8.636-6.735-21.191-6.283-29.329,1.611l-20.449,19.858
	c-6.608,6.422-9.958,14.978-9.958,23.545c0,7.848,2.794,15.708,8.44,21.968c0.66,0.73,1.345,1.402,2.064,2.041L169.499,339.949z"/>
<path style="fill:#BA7052;" d="M195.953,438.578c5.657,4.15,6.306,12.358,1.345,17.308l-51.587,51.587
	c-6.144,6.144-16.136,6.017-22.153-0.266c-50.485-52.757-70.517-87.709-70.216-126.601c0.104-12.613,7.767-33.073,1.913-46.114
	l0.835-0.197c32.343-24.403,78.481-21.852,107.961,7.628l0.452,0.359c-6.503,3.245-17.412,9.517-20.705,16.404
	C131.152,386.644,174.704,422.986,195.953,438.578z"/>
<polygon style="fill:#75706B;" points="156.829,180.936 202.318,226.424 149.038,279.703 103.561,234.214 "/>
<polygon style="fill:#605B58;" points="346.597,30.523 197.414,179.707 166.88,149.172 316.063,0 "/>
<g>
	<polygon style="fill:#75706B;" points="328.298,12.223 179.115,161.407 166.88,149.172 316.063,0 	"/>
	<path style="fill:#75706B;" d="M186.597,354.109c-7.889,0-15.795-2.8-22.166-8.466c-0.954-0.846-1.828-1.711-2.667-2.638
		c-6.752-7.488-10.466-17.153-10.466-27.226c0-11.077,4.38-21.435,12.333-29.164l20.451-19.86
		c10.76-10.441,27.769-11.38,39.579-2.191c1.327,1.018,2.597,2.187,3.776,3.476c15.295,16.707,15.008,42.611-0.658,58.968
		l-15.981,16.712C204.196,350.615,195.408,354.109,186.597,354.109z M205.158,273.904c-3.683,0-7.358,1.381-10.157,4.097
		l-20.446,19.855c-4.888,4.75-7.581,11.117-7.581,17.922c0,6.189,2.281,12.127,6.422,16.719c0.443,0.49,0.92,0.96,1.446,1.428
		c7.161,6.368,17.979,5.906,24.632-1.043l15.983-16.713c9.977-10.418,10.158-26.91,0.417-37.552c-0.567-0.621-1.16-1.168-1.764-1.63
		c-0.02-0.015-0.039-0.029-0.059-0.045C211.441,274.908,208.295,273.904,205.158,273.904z"/>
</g>
<polygon style="fill:#605B58;" points="207.75,225.999 148.609,285.141 98.13,234.64 157.261,175.499 166.769,185.008 
	177.855,196.094 186.1,204.338 197.176,215.425 "/>
<g>
	<path style="fill:#75706B;" d="M177.855,196.094l-38.128,38.139c-1.536,1.526-3.542,2.288-5.548,2.288
		c-2.006,0-4.012-0.763-5.538-2.288c-3.062-3.062-3.062-8.025,0-11.086l38.128-38.139L177.855,196.094z"/>
	<path style="fill:#75706B;" d="M197.176,215.425l-38.118,38.139c-1.536,1.526-3.542,2.288-5.548,2.288
		c-2.006,0-4.012-0.763-5.538-2.288c-3.062-3.062-3.062-8.025,0-11.086l38.128-38.139L197.176,215.425z"/>
</g>
<circle style="fill:#605B58;" cx="138.512" cy="449.588" r="15.673"/>
<g>
</g>
<g>
</g>
<g>
</g>
<g>
</g>
<g>
</g>
<g>
</g>
<g>
</g>
<g>
</g>
<g>
</g>
<g>
</g>
<g>
</g>
<g>
</g>
<g>
</g>
<g>
</g>
<g>
</g>
</svg>
