<?xml version="1.0" encoding="iso-8859-1"?>
<!-- Generator: Adobe Illustrator 19.0.0, SVG Export Plug-In . SVG Version: 6.00 Build 0)  -->
<svg version="1.1" id="Capa_1" xmlns="http://www.w3.org/2000/svg" xmlns:xlink="http://www.w3.org/1999/xlink" x="0px" y="0px"
	 viewBox="0 0 512 512" style="enable-background:new 0 0 512 512;" xml:space="preserve">
<path style="fill:#75706B;" d="M105.36,440.314l-66.61,66.61c-6.768,6.768-17.741,6.768-24.509,0l-8.38-8.38
	c-6.768-6.768-6.768-17.741,0-24.509l66.61-66.61"/>
<path style="fill:#605B58;" d="M105.36,440.314l-66.61,66.61c-6.768,6.768-17.741,6.768-24.509,0l-3.659-3.659l78.864-78.864"/>
<path style="fill:#FFF2E9;" d="M511.215,36.152v67.956c0,308.986-193.298,348.849-193.298,348.849s-92.465-19.065-149.49-133.052
	c-6.965-13.919-13.398-29.241-19.065-46.116c-15.046-44.776-24.743-100.482-24.743-169.682V36.152
	C186.789,12.047,252.353,0,317.916,0S449.043,12.047,511.215,36.152z"/>
<path style="fill:#E2D0C5;" d="M375.547,112.796L168.426,319.906c-6.965-13.919-13.398-29.241-19.065-46.116L295.64,117.687
	L375.547,112.796z"/>
<path style="fill:#EF6E4B;" d="M317.946,400.618c-13.971-5.462-39.615-18.315-65.39-45.742
	c-22.138-23.558-39.879-53.233-52.73-88.203c-16.745-45.567-25.235-100.26-25.235-162.561V71.627
	c46.389-14.384,94.459-21.658,143.328-21.658s96.938,7.274,143.327,21.657v32.483c0,64.328-9.044,120.496-26.881,166.941
	c-13.524,35.216-32.105,64.861-55.229,88.11C354.764,383.665,330.951,395.496,317.946,400.618z"/>
<path style="fill:#DB5B3E;" d="M430.772,63.281v40.83c0,64.328-7.121,120.496-21.166,166.941
	c-10.649,35.216-25.28,64.861-43.487,88.11c-19.187,24.501-37.936,36.331-48.176,41.454c0.001,0,0.002,0.001,0.003,0.001
	c13.005-5.122,36.818-16.952,61.188-41.455c23.124-23.249,41.705-52.894,55.229-88.11c17.837-46.446,26.881-102.613,26.881-166.941
	V71.627C451.165,68.501,441.001,65.733,430.772,63.281z"/>
<polyline style="fill:#E2D0C5;" points="70.394,383.219 306.277,131.508 386.177,126.613 381.283,206.512 129.571,442.395 "/>
<polygon style="fill:#FFF2E9;" points="386.185,126.614 99.985,412.802 70.393,383.222 306.277,131.504 "/>
<path style="fill:#EF6E4B;" d="M118.886,497.725c-15.279-49.665-54.157-88.544-103.822-103.822
	c3.123-10.152,6.247-20.305,9.37-30.457c59.752,18.382,106.527,65.157,124.91,124.91
	C139.191,491.478,129.039,494.601,118.886,497.725z"/>
<g>
</g>
<g>
</g>
<g>
</g>
<g>
</g>
<g>
</g>
<g>
</g>
<g>
</g>
<g>
</g>
<g>
</g>
<g>
</g>
<g>
</g>
<g>
</g>
<g>
</g>
<g>
</g>
<g>
</g>
</svg>
