<?xml version="1.0" encoding="iso-8859-1"?>
<!-- Generator: Adobe Illustrator 19.0.0, SVG Export Plug-In . SVG Version: 6.00 Build 0)  -->
<svg version="1.1" id="Capa_1" xmlns="http://www.w3.org/2000/svg" xmlns:xlink="http://www.w3.org/1999/xlink" x="0px" y="0px"
	 viewBox="0 0 512 512" style="enable-background:new 0 0 512 512;" xml:space="preserve">
<path style="fill:#605B58;" d="M101.358,211.283c-4.329,0-7.837-3.509-7.837-7.837v-10.134c0-4.328,3.508-7.837,7.837-7.837
	s7.837,3.509,7.837,7.837v10.134C109.195,207.774,105.686,211.283,101.358,211.283z"/>
<path style="fill:#EFB078;" d="M173.142,368.619V512h298.963V248.461c0-71.594-35.076-135.003-88.978-173.976"/>
<path style="fill:#DD9F6C;" d="M383.125,74.486l-23.495,32.909c32.946,37.716,52.914,87.058,52.914,141.066V512h59.559V248.461
	C472.105,176.866,437.027,113.458,383.125,74.486z"/>
<path style="fill:#605B58;" d="M358.139,149.691c38.724,9.979,67.333,45.129,67.333,86.977v45.495
	c0,71.555-58.002,129.557-129.557,129.557h-79.673c-23.803,0-43.102-19.299-43.102-43.102"/>
<path style="fill:#F7CB92;" d="M358.139,68.482v192.334c0,59.538-48.264,107.802-107.802,107.802H149.191
	c-19.32,0-34.994-15.663-34.994-34.994c0-6.207,5.036-11.233,11.243-11.233h7.262v-46.237H86.413c-9.707,0-17.93-7.67-18.035-17.366
	c-0.052-4.932,1.933-9.404,5.141-12.633c3.176-3.166,7.586-5.141,12.424-5.141c9.707,0,17.575-7.868,17.575-17.565v-30.511h-15.12
	c-14.608,0-26.394-12.1-25.872-26.833c0.084-2.226,0.449-4.368,1.066-6.405c3.281-10.815,13.615-18.536,25.422-18.536h14.503V68.482
	L358.139,68.482L358.139,68.482z"/>
<path style="fill:#E2B27F;" d="M298.583,68.482v192.334c0,59.538-48.264,107.802-107.802,107.802h59.556
	c59.538,0,107.802-48.264,107.802-107.802V68.482H298.583z"/>
<path style="fill:#605B58;" d="M169.057,211.283c-4.329,0-7.837-3.509-7.837-7.837v-10.134c0-4.328,3.508-7.837,7.837-7.837
	c4.329,0,7.837,3.509,7.837,7.837v10.134C176.894,207.774,173.386,211.283,169.057,211.283z"/>
<path style="fill:#E2B27F;" d="M358.139,72.369v87.343h-84.49l-0.01-0.01h-75.243c-31.974,0-57.898-25.924-57.898-57.898
	c0,28.933-16.029,52.903-36.979,57.208V38.942l250.493,29.539C355.432,69.735,356.801,71.031,358.139,72.369z"/>
<path style="fill:#BA7052;" d="M96.755,114.093h-56.86l0,0C39.895,51.081,78.492,0,126.104,0H140.5v56.199
	C140.5,88.173,120.916,114.093,96.755,114.093z"/>
<path style="fill:#A35D45;" d="M140.502,0.006h19.048h134.201c50.179,0,90.853,40.674,90.853,90.853V114.1H273.643"/>
<path style="fill:#BA7052;" d="M198.395,114.093h75.252l0,0C273.647,51.081,222.566,0,159.554,0H140.5v56.199
	C140.5,88.173,166.42,114.093,198.395,114.093z"/>
<path style="fill:#F7CB92;" d="M263.159,179.431c0-17.538,14.217-31.755,31.756-31.755l0,0c17.538,0,31.755,14.217,31.755,31.755
	v43.801c0,17.538-14.217,31.755-31.755,31.755h-31.756"/>
<g>
	<path style="fill:#FFFFFF;" d="M157.218,319.774c-4.329,0-7.837-3.509-7.837-7.837v-18.493c0-4.328,3.508-7.837,7.837-7.837
		c4.329,0,7.837,3.509,7.837,7.837v18.493C165.055,316.266,161.547,319.774,157.218,319.774z"/>
	<path style="fill:#FFFFFF;" d="M183.343,319.774c-4.329,0-7.837-3.509-7.837-7.837v-13.268c0-4.328,3.508-7.837,7.837-7.837
		c4.329,0,7.837,3.509,7.837,7.837v13.268C191.18,316.266,187.672,319.774,183.343,319.774z"/>
</g>
<path style="fill:#E2B27F;" d="M287.552,228.344c-4.329,0-7.837-3.509-7.837-7.837v-20.374c0-13.827,11.25-25.076,25.078-25.076
	c4.329,0,7.837,3.509,7.837,7.837c0,4.328-3.508,7.837-7.837,7.837c-5.186,0-9.404,4.218-9.404,9.403v20.374
	C295.388,224.835,291.88,228.344,287.552,228.344z"/>
<path style="fill:#DD9F6C;" d="M289.119,470.752c-4.329,0-7.837-3.509-7.837-7.837c0-4.328,3.508-7.837,7.837-7.837
	c53.034,0,94.019-11.891,118.525-34.388c18.117-16.632,21.026-33.509,21.054-33.677c0.629-4.282,4.608-7.214,8.888-6.587
	c4.282,0.629,7.24,4.637,6.61,8.92c-0.128,0.872-3.384,21.602-24.903,41.914C391.53,457.465,347.734,470.752,289.119,470.752z"/>
<g>
	<path style="fill:#E2B27F;" d="M185.114,194.11h-24.868c-11.928,0-21.63-9.704-21.63-21.631v-18.597
		c0-4.328,3.508-7.837,7.837-7.837c4.329,0,7.837,3.509,7.837,7.837v18.597c0,3.285,2.673,5.958,5.957,5.958h24.868
		c4.329,0,7.837,3.509,7.837,7.837S189.443,194.11,185.114,194.11z"/>
	<path style="fill:#E2B27F;" d="M203.391,309.119h-70.689v13.272h70.689c3.665,0,6.636-2.971,6.636-6.636l0,0
		C210.028,312.09,207.057,309.119,203.391,309.119z"/>
</g>
<g>
</g>
<g>
</g>
<g>
</g>
<g>
</g>
<g>
</g>
<g>
</g>
<g>
</g>
<g>
</g>
<g>
</g>
<g>
</g>
<g>
</g>
<g>
</g>
<g>
</g>
<g>
</g>
<g>
</g>
</svg>
