<?xml version="1.0" encoding="iso-8859-1"?>
<!-- Generator: Adobe Illustrator 19.0.0, SVG Export Plug-In . SVG Version: 6.00 Build 0)  -->
<svg version="1.1" id="Capa_1" xmlns="http://www.w3.org/2000/svg" xmlns:xlink="http://www.w3.org/1999/xlink" x="0px" y="0px"
	 viewBox="0 0 512 512" style="enable-background:new 0 0 512 512;" xml:space="preserve">
<path style="fill:#E2D0C5;" d="M459.964,285.807c0,0.01,0,0.01,0,0.021c0.721,6.936,1.086,13.997,1.086,21.121
	C461.051,420.202,369.253,512,256,512c-113.243,0-205.051-91.798-205.051-205.051c0-7.124,0.366-14.185,1.086-21.121
	c0-0.01,0-0.01,0-0.021"/>
<path style="fill:#FFF2E9;" d="M458.909,234.821c1.41,9.715,2.141,19.659,2.141,29.77c0,113.253-91.798,205.051-205.051,205.051
	c-113.243,0-205.051-91.798-205.051-205.051c0-10.112,0.731-20.056,2.141-29.77"/>
<path style="fill:#75706B;" d="M461.051,205.051c0,12.848-1.18,25.415-3.447,37.605C439.95,337.952,356.405,410.112,256,410.112
	c-100.394,0-183.95-72.159-201.604-167.456c-2.267-12.19-3.447-24.757-3.447-37.605C50.949,91.808,142.757,0,256,0
	C369.253,0,461.051,91.808,461.051,205.051z"/>
<path style="fill:#605B58;" d="M457.604,242.656C439.95,337.952,356.405,410.112,256,410.112
	c-100.394,0-183.95-72.159-201.604-167.456C72.05,147.369,155.606,75.21,256,75.21C356.405,75.21,439.95,147.369,457.604,242.656z"
	/>
<path style="fill:#E2B27F;" d="M358.473,306.699v76.014c-30.147,17.424-65.15,27.399-102.473,27.399
	c-8.169,0-16.222-0.48-24.13-1.41V306.699H358.473z"/>
<path style="fill:#F7CB92;" d="M358.466,154.894v222.829H210.428c-19.492,0-35.296-15.794-35.296-35.286v-56.324h-33.228v-131.22
	c0-59.802,48.479-108.281,108.281-108.281c29.906,0,56.971,12.117,76.568,31.713C346.349,97.923,358.466,124.998,358.466,154.894z"
	/>
<path style="fill:#E2B27F;" d="M250.188,46.611L250.188,46.611c-7.3,0-14.429,0.727-21.323,2.104
	c49.589,9.904,86.958,53.674,86.958,106.176v222.833h42.646V154.891C358.469,95.09,309.99,46.611,250.188,46.611z"/>
<path style="fill:#FFF2E9;" d="M358.469,154.888v59.342c0,12.305-4.993,23.461-13.057,31.525
	c-8.075,8.064-19.22,13.057-31.536,13.057s-23.451-4.993-31.525-13.057c-8.064-8.064-13.057-19.22-13.057-31.525
	c0-32.779-26.564-59.342-59.342-59.342h-68.044c0-59.802,48.479-108.281,108.281-108.281c29.896,0,56.971,12.117,76.568,31.713
	C346.352,97.917,358.469,124.982,358.469,154.888z"/>
<path style="fill:#E2D0C5;" d="M326.756,78.32c-19.596-19.596-46.672-31.713-76.568-31.713c-6.687,0-13.233,0.611-19.585,1.772
	c22.048,4.028,41.77,14.73,56.983,29.942c19.596,19.596,31.713,46.661,31.713,76.568v59.342c0,12.305-4.993,23.461-13.057,31.525
	c-3.466,3.462-7.501,6.352-11.948,8.53c5.91,2.896,12.553,4.527,19.582,4.527c12.316,0,23.461-4.993,31.536-13.057
	c8.064-8.064,13.057-19.22,13.057-31.525v-59.342C358.469,124.982,346.352,97.917,326.756,78.32z"/>
<g>
	<path style="fill:#605B58;" d="M194.683,220.562c-4.327,0-7.834-3.508-7.834-7.834v-12.132c0-4.327,3.508-7.834,7.834-7.834
		c4.327,0,7.834,3.508,7.834,7.834v12.132C202.518,217.054,199.01,220.562,194.683,220.562z"/>
	<path style="fill:#605B58;" d="M285.569,331.557h-12.631c-4.327,0-7.834-3.508-7.834-7.834s3.508-7.834,7.834-7.834h12.631
		c11.292,0,20.479-9.187,20.479-20.479v-36.596c0-4.327,3.508-7.834,7.834-7.834c4.327,0,7.834,3.508,7.834,7.834v36.596
		C321.716,315.341,305.5,331.557,285.569,331.557z"/>
</g>
<circle style="fill:#EF6E4B;" cx="252.924" cy="323.725" r="20.014"/>
<path style="fill:#A35D45;" d="M206.062,307.737c0,4.335-3.51,7.834-7.834,7.834h-23.096v-15.669h23.096
	C202.552,299.903,206.062,303.412,206.062,307.737z"/>
<path style="fill:#D19F71;" d="M220.161,204.774h-41.856c-4.327,0-7.834-3.508-7.834-7.834c0-4.327,3.508-7.834,7.834-7.834h41.856
	c4.327,0,7.834,3.508,7.834,7.834C227.995,201.266,224.487,204.774,220.161,204.774z"/>
<circle style="fill:#8E8C8A;" cx="395.279" cy="125.109" r="29.244"/>
<g>
</g>
<g>
</g>
<g>
</g>
<g>
</g>
<g>
</g>
<g>
</g>
<g>
</g>
<g>
</g>
<g>
</g>
<g>
</g>
<g>
</g>
<g>
</g>
<g>
</g>
<g>
</g>
<g>
</g>
</svg>
