<?xml version="1.0" encoding="iso-8859-1"?>
<!-- Generator: Adobe Illustrator 19.0.0, SVG Export Plug-In . SVG Version: 6.00 Build 0)  -->
<svg version="1.1" id="Capa_1" xmlns="http://www.w3.org/2000/svg" xmlns:xlink="http://www.w3.org/1999/xlink" x="0px" y="0px"
	 viewBox="0 0 512 512" style="enable-background:new 0 0 512 512;" xml:space="preserve">
<path style="fill:#EFB078;" d="M512,133.423v291.218c0,12.756-10.341,23.098-23.097,23.098H256H23.097
	C10.341,447.739,0,437.397,0,424.641V133.423c0-13.384,10.849-24.233,24.233-24.233h463.533C501.151,109.19,512,120.039,512,133.423
	z"/>
<path style="fill:#E2D0C5;" d="M484.427,118.82v277.388c0,12.878-10.44,23.318-23.319,23.318H256H50.891
	c-12.878,0-23.319-10.44-23.319-23.318V118.82"/>
<g>
	<path style="fill:#FFF2E9;" d="M256.003,113.716v305.81h-3.459c-7.262-18.307-25.119-31.242-45.996-31.242H50.89
		c-12.873,0-23.322-10.439-23.322-23.312V87.583c0-12.884,10.449-23.322,23.322-23.322h155.658
		C233.862,64.261,256.003,86.403,256.003,113.716z"/>
	<path style="fill:#FFF2E9;" d="M484.428,87.583v277.389c0,12.873-10.439,23.312-23.322,23.312H305.458
		c-2.968,0-5.883,0.261-8.704,0.773c-17.042,3.02-31.065,14.764-37.292,30.469h-3.459v-305.81c0-24.346,17.586-44.575,40.751-48.692
		c2.832-0.502,5.736-0.763,8.704-0.763h155.648C473.99,64.261,484.428,74.7,484.428,87.583z"/>
</g>
<path style="fill:#E2D0C5;" d="M296.754,65.024v324.033c-17.042,3.02-31.065,14.764-37.292,30.469h-3.459v-305.81
	C256.003,89.37,273.589,69.141,296.754,65.024z"/>
<g>
	<path style="fill:#75706B;" d="M202.667,132.476H75.874c-4.328,0-7.837-3.509-7.837-7.837c0-4.328,3.509-7.837,7.837-7.837h126.793
		c4.328,0,7.837,3.509,7.837,7.837C210.504,128.968,206.995,132.476,202.667,132.476z"/>
	<path style="fill:#75706B;" d="M202.667,170.832H75.874c-4.328,0-7.837-3.509-7.837-7.837c0-4.328,3.509-7.837,7.837-7.837h126.793
		c4.328,0,7.837,3.509,7.837,7.837C210.504,167.324,206.995,170.832,202.667,170.832z"/>
	<path style="fill:#75706B;" d="M202.667,247.545H75.874c-4.328,0-7.837-3.509-7.837-7.837c0-4.328,3.509-7.837,7.837-7.837h126.793
		c4.328,0,7.837,3.509,7.837,7.837C210.504,244.036,206.995,247.545,202.667,247.545z"/>
	<path style="fill:#75706B;" d="M202.667,324.257H75.874c-4.328,0-7.837-3.509-7.837-7.837s3.509-7.837,7.837-7.837h126.793
		c4.328,0,7.837,3.509,7.837,7.837S206.995,324.257,202.667,324.257z"/>
	<path style="fill:#75706B;" d="M202.667,209.189H75.874c-4.328,0-7.837-3.509-7.837-7.837c0-4.328,3.509-7.837,7.837-7.837h126.793
		c4.328,0,7.837,3.509,7.837,7.837C210.504,205.68,206.995,209.189,202.667,209.189z"/>
	<path style="fill:#75706B;" d="M202.667,285.901H75.874c-4.328,0-7.837-3.509-7.837-7.837s3.509-7.837,7.837-7.837h126.793
		c4.328,0,7.837,3.509,7.837,7.837S206.995,285.901,202.667,285.901z"/>
	<path style="fill:#75706B;" d="M145.811,365.934h-13.082c-4.328,0-7.837-3.509-7.837-7.837s3.509-7.837,7.837-7.837h13.082
		c4.328,0,7.837,3.509,7.837,7.837S150.139,365.934,145.811,365.934z"/>
	<path style="fill:#75706B;" d="M442.163,132.476H315.371c-4.328,0-7.837-3.509-7.837-7.837c0-4.328,3.509-7.837,7.837-7.837
		h126.792c4.328,0,7.837,3.509,7.837,7.837C450,128.968,446.492,132.476,442.163,132.476z"/>
	<path style="fill:#75706B;" d="M442.163,170.832H315.371c-4.328,0-7.837-3.509-7.837-7.837c0-4.328,3.509-7.837,7.837-7.837
		h126.792c4.328,0,7.837,3.509,7.837,7.837C450,167.324,446.492,170.832,442.163,170.832z"/>
	<path style="fill:#75706B;" d="M442.163,247.545H315.371c-4.328,0-7.837-3.509-7.837-7.837c0-4.328,3.509-7.837,7.837-7.837
		h126.792c4.328,0,7.837,3.509,7.837,7.837C450,244.036,446.492,247.545,442.163,247.545z"/>
	<path style="fill:#75706B;" d="M442.163,209.189H315.371c-4.328,0-7.837-3.509-7.837-7.837c0-4.328,3.509-7.837,7.837-7.837
		h126.792c4.328,0,7.837,3.509,7.837,7.837C450,205.68,446.492,209.189,442.163,209.189z"/>
	<path style="fill:#75706B;" d="M442.163,285.901H315.371c-4.328,0-7.837-3.509-7.837-7.837s3.509-7.837,7.837-7.837h126.792
		c4.328,0,7.837,3.509,7.837,7.837S446.492,285.901,442.163,285.901z"/>
	<path style="fill:#75706B;" d="M385.308,365.934h-13.082c-4.328,0-7.837-3.509-7.837-7.837s3.509-7.837,7.837-7.837h13.082
		c4.328,0,7.837,3.509,7.837,7.837S389.636,365.934,385.308,365.934z"/>
</g>
<path style="fill:#BA7052;" d="M442.173,352.225l40.897,40.897c7.231,7.231,7.231,18.954,0,26.175
	c-3.615,3.615-8.349,5.423-13.093,5.423c-4.744,0-9.477-1.808-13.093-5.423l-76.847-76.847"/>
<circle style="fill:#59534D;" cx="380.688" cy="316.928" r="70.879"/>
<circle style="fill:#46BEE8;" cx="380.688" cy="316.928" r="45.349"/>
<g>
</g>
<g>
</g>
<g>
</g>
<g>
</g>
<g>
</g>
<g>
</g>
<g>
</g>
<g>
</g>
<g>
</g>
<g>
</g>
<g>
</g>
<g>
</g>
<g>
</g>
<g>
</g>
<g>
</g>
</svg>
