<?xml version="1.0" encoding="iso-8859-1"?>
<!-- Generator: Adobe Illustrator 19.0.0, SVG Export Plug-In . SVG Version: 6.00 Build 0)  -->
<svg version="1.1" id="Capa_1" xmlns="http://www.w3.org/2000/svg" xmlns:xlink="http://www.w3.org/1999/xlink" x="0px" y="0px"
	 viewBox="0 0 512 512" style="enable-background:new 0 0 512 512;" xml:space="preserve">
<path style="fill:#75706B;" d="M266.185,58.194c-4.264,0-7.719-3.456-7.719-7.719V7.719c0-4.263,3.455-7.719,7.719-7.719
	s7.719,3.456,7.719,7.719v42.757C273.904,54.738,270.448,58.194,266.185,58.194z"/>
<polyline style="fill:#E2D0C5;" points="242.564,377.724 242.564,512 386.593,512 386.593,377.724 "/>
<polyline style="fill:#FFF2E9;" points="242.564,377.724 242.564,512 297.062,512 297.062,377.724 "/>
<path style="fill:#DB5B3E;" d="M393.136,68.015c-5.033,2.882-10.518,4.261-15.931,4.292c1.214,1.451,2.326,3.026,3.304,4.724
	c7.554,13.183,4.837,29.454-5.671,39.519l-50.953-33.952l-47.927-31.924c2.655-11.784,10.055-22.456,21.355-28.94
	c16.518-9.468,36.545-7.214,50.469,4.147c0.566-1.184,1.204-2.336,1.914-3.448c2.727-4.271,6.494-7.966,11.187-10.662
	c15.54-8.902,35.341-3.53,44.253,12C414.038,39.302,408.665,59.113,393.136,68.015z"/>
<path style="fill:#EF6E4B;" d="M353.946,41.206c0,19.338-12.617,35.732-30.061,41.392l-47.927-31.924
	c2.655-11.784,10.055-22.456,21.355-28.94c16.518-9.468,36.545-7.214,50.469,4.147c0.566-1.184,1.204-2.336,1.914-3.448
	C352.423,28.126,353.946,34.486,353.946,41.206z"/>
<path style="fill:#FFF2E9;" d="M269.276,50.475h-3.091c-64.793,0-117.317,52.525-117.317,117.317v41.418v20.839v90.561h-46.301
	v24.705c0,52.857,42.848,95.705,95.705,95.705h128.119h16.98l0,0h43.222V167.793C386.593,103,334.069,50.475,269.276,50.475z"/>
<path style="fill:#E2D0C5;" d="M269.276,50.475h-3.091c-9.022,0-17.803,1.021-26.24,2.949
	c52.159,11.918,91.077,58.597,91.077,114.369v273.228h12.349h43.222V167.793C386.593,103,334.069,50.475,269.276,50.475z"/>
<path style="fill:#75706B;" d="M293.977,209.211v111.4h-46.312l0,0v24.705c0,52.857,42.848,95.705,95.705,95.705l0,0H198.272
	c-52.857,0-95.705-42.848-95.705-95.705v-24.705h46.301v-111.4c0-22.874,18.543-41.418,41.418-41.418h62.275
	C275.434,167.793,293.977,186.336,293.977,209.211z"/>
<path style="fill:#D19F71;" d="M189.519,266.59h-16.981c-4.263,0-7.719-3.456-7.719-7.719c0-4.263,3.456-7.719,7.719-7.719h16.981
	c4.263,0,7.719,3.456,7.719,7.719C197.238,263.134,193.782,266.59,189.519,266.59z"/>
<path style="fill:#F7CB92;" d="M343.367,441.02H242.562c-18.206,0-32.974-14.768-32.974-32.974v-65.824h-25.214V168.214
	c1.924-0.278,3.9-0.422,5.907-0.422h62.274c22.878,0,41.423,18.545,41.423,41.423V320.61h-46.312v24.71
	C247.667,398.176,290.51,441.02,343.367,441.02z"/>
<path style="fill:#E2B27F;" d="M293.977,209.214v111.395h-22.127v-85.378c0-22.878-18.545-41.423-41.423-41.423h-46.054v-25.595
	c1.924-0.278,3.9-0.422,5.907-0.422h62.274C275.432,167.791,293.977,186.336,293.977,209.214z"/>
<path style="fill:#605B58;" d="M237.89,283.566c-4.263,0-7.719-3.456-7.719-7.719v-16.981c0-4.263,3.456-7.719,7.719-7.719
	c4.263,0,7.719,3.456,7.719,7.719v16.981C245.609,280.11,242.153,283.566,237.89,283.566z"/>
<path style="fill:#D19F71;" d="M253.841,266.586h-43.222c-4.263,0-7.719-3.456-7.719-7.719c0-4.263,3.456-7.719,7.719-7.719h43.222
	c4.264,0,7.719,3.456,7.719,7.719C261.559,263.13,258.103,266.586,253.841,266.586z"/>
<path style="fill:#75706B;" d="M345.868,135.889c0-4.261,3.449-7.719,7.719-7.719l0,0c4.262,0,7.719,3.458,7.719,7.719l0,0
	c0,4.261-3.457,7.719-7.719,7.719l0,0C349.316,143.608,345.868,140.149,345.868,135.889z M317.247,135.889
	c0-4.261,3.458-7.719,7.719-7.719l0,0c4.261,0,7.719,3.458,7.719,7.719l0,0c0,4.261-3.458,7.719-7.719,7.719l0,0
	C320.705,143.608,317.247,140.149,317.247,135.889z M288.627,135.889c0-4.261,3.457-7.719,7.719-7.719l0,0
	c4.261,0,7.719,3.458,7.719,7.719l0,0c0,4.261-3.458,7.719-7.719,7.719l0,0C292.085,143.608,288.627,140.149,288.627,135.889z
	 M260.006,135.889c0-4.261,3.458-7.719,7.719-7.719l0,0c4.271,0,7.719,3.458,7.719,7.719l0,0c0,4.261-3.448,7.719-7.719,7.719l0,0
	C263.464,143.608,260.006,140.149,260.006,135.889z M231.396,135.889c0-4.261,3.458-7.719,7.719-7.719l0,0
	c4.261,0,7.719,3.458,7.719,7.719l0,0c0,4.261-3.458,7.719-7.719,7.719l0,0C234.854,143.608,231.396,140.149,231.396,135.889z
	 M202.776,135.889c0-4.261,3.458-7.719,7.719-7.719l0,0c4.261,0,7.719,3.458,7.719,7.719l0,0c0,4.261-3.458,7.719-7.719,7.719l0,0
	C206.234,143.608,202.776,140.149,202.776,135.889z M174.155,135.889c0-4.261,3.458-7.719,7.719-7.719l0,0
	c4.271,0,7.719,3.458,7.719,7.719l0,0c0,4.261-3.448,7.719-7.719,7.719l0,0C177.613,143.608,174.155,140.149,174.155,135.889z"/>
<path style="fill:#A35D45;" d="M232.23,373.096c0,4.261-3.458,7.719-7.719,7.719h-14.923v-15.437h14.923
	C228.772,365.378,232.23,368.825,232.23,373.096z"/>
<circle style="fill:#FFFFFF;" cx="227.595" cy="96.781" r="20.067"/>
<g>
</g>
<g>
</g>
<g>
</g>
<g>
</g>
<g>
</g>
<g>
</g>
<g>
</g>
<g>
</g>
<g>
</g>
<g>
</g>
<g>
</g>
<g>
</g>
<g>
</g>
<g>
</g>
<g>
</g>
</svg>
