<?xml version="1.0" encoding="iso-8859-1"?>
<!-- Generator: Adobe Illustrator 19.0.0, SVG Export Plug-In . SVG Version: 6.00 Build 0)  -->
<svg version="1.1" id="Capa_1" xmlns="http://www.w3.org/2000/svg" xmlns:xlink="http://www.w3.org/1999/xlink" x="0px" y="0px"
	 viewBox="0 0 512 512" style="enable-background:new 0 0 512 512;" xml:space="preserve">
<path style="fill:#75706B;" d="M381.352,122.607H125.364l12.858-102.652c1.689-13.492,16.13-21.357,28.375-15.445l36.98,17.841
	l83.471-15.444l33.444-6.187c24.175-4.466,47.146,12.33,50.197,36.737L381.352,122.607z"/>
<g>
	<path style="fill:#605B58;" d="M297.944,122.607l27.944-36.262l-25.652-5.447c-15.529-3.294-18.685-24.08-4.835-31.839
		l13.428-7.516l-21.79-34.626l0.01-0.01l33.444-6.187c24.175-4.466,47.146,12.33,50.197,36.737l10.662,85.149H297.944z"/>
	<polyline style="fill:#605B58;" points="163.424,382.813 91.042,394.877 113.803,512 228.48,512 285.752,512 	"/>
</g>
<path style="fill:#F7CB92;" d="M402.73,158.92v237.514l-1.816,47.241H191.334c-15.412,0-27.912-12.499-27.912-27.911v-77.497
	h-37.739V158.92H402.73z"/>
<g>
	<polygon style="fill:#E2B27F;" points="402.729,163.672 402.729,396.435 400.913,443.677 283.967,443.677 283.967,163.672 	"/>
	<polygon style="fill:#E2B27F;" points="402.729,163.672 402.729,229.484 398.493,242.841 125.681,242.841 125.681,163.672 	"/>
</g>
<polyline style="fill:#BA7052;" points="402.728,314.846 318.795,314.846 318.795,190.571 402.729,190.571 "/>
<path style="fill:#75706B;" d="M341.178,111.642H170.822c-54.564,0-104.567,30.45-129.609,78.929l0,0h429.572l0,0
	C445.744,142.092,395.742,111.642,341.178,111.642z"/>
<path style="fill:#605B58;" d="M470.786,190.57h-85.509c-12.52-24.238-31.279-43.968-53.733-57.65
	c-22.443-13.671-48.581-21.282-75.871-21.282h85.498c27.278,0,53.427,7.611,75.881,21.282
	C439.506,146.602,458.266,166.333,470.786,190.57z"/>
<path style="fill:#A35D45;" d="M202.84,364.658c0,4.381-3.547,7.917-7.917,7.917h-31.501v-15.835h31.501
	C199.293,356.741,202.84,360.288,202.84,364.658z"/>
<path style="fill:#605B58;" d="M385.322,223.105c0,4.371-3.547,7.917-7.917,7.917H270.128v22.813
	c0,13.217-10.705,23.922-23.922,23.922H194.5c-13.206,0-23.922-10.705-23.922-23.922v-22.813h-44.897v45.869
	c-2.027,0.559-4.17,0.865-6.386,0.865H89.863c-3.463,0-6.756-0.739-9.723-2.069c-8.372-3.716-14.199-12.098-14.199-21.852v-22.813
	c-4.371,0-7.917-3.547-7.917-7.917c0-4.371,3.547-7.917,7.917-7.917h311.463C381.775,215.187,385.322,218.734,385.322,223.105z"/>
<polygon style="fill:#75706B;" points="205.716,394.876 228.475,511.994 400.424,511.994 428.239,357.789 "/>
<path style="fill:#E2B27F;" d="M378.971,315.902h-32.714v-67.848c0-12.118,9.824-21.942,21.942-21.942h10.772
	c12.118,0,21.942,9.824,21.942,21.942v45.906C400.912,306.078,391.088,315.902,378.971,315.902z"/>
<g>
	<polygon style="fill:#FFF2E9;" points="245.7,215.187 216.69,277.756 199.24,277.756 228.25,215.187 	"/>
	<path style="fill:#FFF2E9;" d="M125.639,215.187L96.64,277.756h-6.777c-3.463,0-6.756-0.739-9.723-2.069l28.049-60.5
		L125.639,215.187L125.639,215.187z"/>
</g>
<polygon style="fill:#605B58;" points="428.239,357.789 400.424,511.994 344.679,511.994 327.021,374.658 "/>
<g>
</g>
<g>
</g>
<g>
</g>
<g>
</g>
<g>
</g>
<g>
</g>
<g>
</g>
<g>
</g>
<g>
</g>
<g>
</g>
<g>
</g>
<g>
</g>
<g>
</g>
<g>
</g>
<g>
</g>
</svg>
