<?xml version="1.0" encoding="iso-8859-1"?>
<!-- Generator: Adobe Illustrator 19.0.0, SVG Export Plug-In . SVG Version: 6.00 Build 0)  -->
<svg version="1.1" id="Capa_1" xmlns="http://www.w3.org/2000/svg" xmlns:xlink="http://www.w3.org/1999/xlink" x="0px" y="0px"
	 viewBox="0 0 512.001 512.001" style="enable-background:new 0 0 512.001 512.001;" xml:space="preserve">
<path style="fill:#605B58;" d="M132.932,228.66c-4.284,0-7.757-3.473-7.757-7.757v-10.186c0-4.284,3.473-7.757,7.757-7.757
	c4.284,0,7.757,3.473,7.757,7.757v10.186C140.688,225.187,137.216,228.66,132.932,228.66z"/>
<g>
	<path style="fill:#A35D45;" d="M194.531,41.365c-1.985,0-3.97-0.757-5.484-2.272l-25.852-25.852c-3.029-3.029-3.029-7.941,0-10.969
		c3.029-3.029,7.941-3.029,10.969,0l25.852,25.852c3.029,3.029,3.029,7.941,0,10.969C198.501,40.608,196.516,41.365,194.531,41.365z
		"/>
	<path style="fill:#A35D45;" d="M168.679,41.365c-1.985,0-3.97-0.757-5.484-2.272c-3.029-3.029-3.029-7.941,0-10.969l25.852-25.852
		c3.029-3.029,7.941-3.029,10.969,0c3.029,3.029,3.029,7.941,0,10.969l-25.852,25.853C172.649,40.608,170.664,41.365,168.679,41.365
		z"/>
	<path style="fill:#A35D45;" d="M345.395,41.365c-1.985,0-3.97-0.757-5.484-2.272l-25.852-25.852c-3.029-3.029-3.029-7.941,0-10.969
		c3.029-3.029,7.941-3.029,10.969,0l25.852,25.852c3.029,3.029,3.029,7.941,0,10.969C349.365,40.608,347.38,41.365,345.395,41.365z"
		/>
	<path style="fill:#A35D45;" d="M319.543,41.365c-1.985,0-3.97-0.757-5.484-2.272c-3.029-3.029-3.029-7.941,0-10.969l25.852-25.852
		c3.029-3.029,7.941-3.029,10.969,0c3.029,3.029,3.029,7.941,0,10.969l-25.852,25.853C323.513,40.608,321.528,41.365,319.543,41.365
		z"/>
</g>
<path style="fill:#D19F71;" d="M115.685,215.218c-3.044,0-5.931-1.803-7.169-4.789c-1.639-3.958,0.239-8.495,4.197-10.135
	l22.462-9.308c3.958-1.64,8.495,0.239,10.135,4.197c1.639,3.958-0.239,8.495-4.197,10.135l-22.462,9.308
	C117.68,215.028,116.675,215.218,115.685,215.218z"/>
<polygon style="fill:#E2B27F;" points="254.629,512.001 242.85,404.765 360.626,359.215 360.626,512.001 "/>
<path style="fill:#F7CB92;" d="M353.382,324.051l-47.502,81.186c-19.857,12.886-43.551,20.364-69.003,20.364h-37.903
	c-17.178,0-31.109-13.921-31.109-31.099V283.479H132.97V84.226h141.305l22.453,54.834l33.395,81.569L353.382,324.051z"/>
<path style="fill:#E2B27F;" d="M353.382,324.051l-47.502,81.186c-19.857,12.886-43.551,20.364-69.003,20.364h-38.525
	c54.814,0,55.848-103.618,55.848-142.122c0-38.494,0-138.347,0-138.347l42.527-6.071l33.395,81.569L353.382,324.051z"/>
<path style="fill:#BA7052;" d="M345.639,191.671l-5.171,201.673l-34.584,11.894c-19.857,12.886-43.551,20.364-69.003,20.364h-37.904
	c-17.178,0-31.109-13.921-31.109-31.099V283.479h86.337c14.252,0,25.804-11.552,25.804-25.793v-31.502L345.639,191.671z"/>
<path style="fill:#A35D45;" d="M345.636,191.671l-5.171,201.673l-34.584,11.894c-19.857,12.886-43.551,20.364-69.003,20.364h-39.135
	c54.814,0,55.848-103.618,55.848-142.122h0.61c14.252,0,25.804-11.552,25.804-25.793v-31.502L345.636,191.671z"/>
<path style="fill:#EFD873;" d="M279.176,5.235h-67.21c-43.626,0-78.994,35.366-78.994,78.994l0,0
	c0,37.14,30.107,67.247,67.247,67.247l0,0c58.359,0,105.669,47.309,105.669,105.669v253.91l83.695-31.925V151.474v-35.833
	C389.584,54.665,340.153,5.235,279.176,5.235z"/>
<path style="fill:#E0C865;" d="M279.176,5.234h-36.198c60.976,0,110.408,49.431,110.408,110.408v35.833v341.462l36.198-13.808
	V151.475v-35.833C389.584,54.665,340.153,5.234,279.176,5.234z"/>
<path style="fill:#F7CB92;" d="M194.995,336.017c-0.765,3.651-3.992,6.164-7.591,6.164c-0.527,0-1.055-0.052-1.593-0.165
	l-17.944-3.754v-15.855l21.119,4.426C193.185,327.712,195.864,331.818,194.995,336.017z"/>
<path style="fill:#605B58;" d="M186.471,228.66c-4.284,0-7.757-3.473-7.757-7.757v-10.186c0-4.284,3.473-7.757,7.757-7.757
	c4.284,0,7.757,3.473,7.757,7.757v10.186C194.228,225.187,190.755,228.66,186.471,228.66z"/>
<path style="fill:#D19F71;" d="M208.245,217.803c-0.581,0-1.171-0.065-1.762-0.203l-51.192-11.892
	c-4.173-0.97-6.769-5.138-5.8-9.311c0.97-4.172,5.137-6.767,9.311-5.8l51.192,11.892c4.173,0.97,6.769,5.138,5.8,9.311
	C214.963,215.382,211.772,217.803,208.245,217.803z"/>
<path style="fill:#BA7052;" d="M383.647,15.18h-58.619c8.925,4.075,17.22,9.318,24.676,15.513h33.943
	c17.716,0,32.133,14.407,32.133,32.123c0,16.382-12.328,29.941-28.193,31.895c-1.293,0.155-2.606,0.238-3.94,0.238h-258.11
	c-17.716,0-32.133-14.417-32.133-32.133s14.417-32.123,32.133-32.123h28.338c5.678-6.154,12.328-11.407,19.702-15.513h-48.039
	c-26.279,0-47.646,21.367-47.646,47.636s21.367,47.646,47.646,47.646h258.11c1.965,0,3.899-0.124,5.802-0.352
	c23.539-2.875,41.844-22.991,41.844-47.295C431.293,36.547,409.916,15.18,383.647,15.18z"/>
<g>
	<path style="fill:#A35D45;" d="M206.046,123.965c-1.985,0-3.97-0.757-5.484-2.272l-25.852-25.852
		c-3.029-3.029-3.029-7.941,0-10.969c3.029-3.029,7.941-3.029,10.969,0l25.852,25.852c3.029,3.029,3.029,7.941,0,10.969
		C210.016,123.207,208.031,123.965,206.046,123.965z"/>
	<path style="fill:#A35D45;" d="M180.194,123.965c-1.985,0-3.97-0.757-5.484-2.272c-3.029-3.029-3.029-7.941,0-10.969l25.852-25.852
		c3.029-3.029,7.941-3.029,10.969,0c3.029,3.029,3.029,7.941,0,10.969l-25.852,25.852
		C184.165,123.207,182.179,123.965,180.194,123.965z"/>
	<path style="fill:#A35D45;" d="M327.543,123.965c-1.985,0-3.97-0.757-5.484-2.272l-25.852-25.852
		c-3.029-3.029-3.029-7.941,0-10.969c3.029-3.029,7.941-3.029,10.969,0l25.852,25.852c3.029,3.029,3.029,7.941,0,10.969
		C331.514,123.207,329.529,123.965,327.543,123.965z"/>
	<path style="fill:#A35D45;" d="M301.692,123.965c-1.985,0-3.97-0.757-5.484-2.272c-3.029-3.029-3.029-7.941,0-10.969l25.852-25.852
		c3.029-3.029,7.941-3.029,10.969,0c3.029,3.029,3.029,7.941,0,10.969l-25.852,25.852
		C305.663,123.207,303.677,123.965,301.692,123.965z"/>
	<path style="fill:#A35D45;" d="M100.947,70.358c-2.77,0-5.449-1.487-6.848-4.101L76.862,34.015
		c-2.02-3.778-0.595-8.477,3.183-10.497c3.777-2.019,8.477-0.596,10.497,3.183l17.237,32.242c2.02,3.778,0.595,8.477-3.183,10.497
		C103.435,70.062,102.182,70.358,100.947,70.358z"/>
	<path style="fill:#A35D45;" d="M76.208,62.855c-2.77,0-5.45-1.487-6.848-4.101c-2.02-3.778-0.595-8.477,3.183-10.497l32.242-17.237
		c3.779-2.019,8.477-0.595,10.497,3.183c2.02,3.778,0.595,8.477-3.183,10.497L79.859,61.938
		C78.694,62.561,77.442,62.855,76.208,62.855z"/>
	<path style="fill:#A35D45;" d="M411.055,68.142c-1.234,0-2.486-0.296-3.651-0.917c-3.778-2.02-5.203-6.72-3.183-10.497
		l17.237-32.242c2.02-3.778,6.719-5.202,10.497-3.183c3.778,2.02,5.203,6.72,3.183,10.497l-17.237,32.242
		C416.504,66.654,413.824,68.142,411.055,68.142z"/>
	<path style="fill:#A35D45;" d="M435.794,60.64c-1.234,0-2.486-0.296-3.651-0.917l-32.242-17.238
		c-3.778-2.02-5.203-6.72-3.183-10.497c2.02-3.778,6.719-5.202,10.497-3.183l32.242,17.237c3.778,2.02,5.203,6.72,3.183,10.497
		C441.243,59.152,438.564,60.64,435.794,60.64z"/>
</g>
<g>
</g>
<g>
</g>
<g>
</g>
<g>
</g>
<g>
</g>
<g>
</g>
<g>
</g>
<g>
</g>
<g>
</g>
<g>
</g>
<g>
</g>
<g>
</g>
<g>
</g>
<g>
</g>
<g>
</g>
</svg>
