<?xml version="1.0" encoding="iso-8859-1"?>
<!-- Generator: Adobe Illustrator 19.0.0, SVG Export Plug-In . SVG Version: 6.00 Build 0)  -->
<svg version="1.1" id="Capa_1" xmlns="http://www.w3.org/2000/svg" xmlns:xlink="http://www.w3.org/1999/xlink" x="0px" y="0px"
	 viewBox="0 0 511.999 511.999" style="enable-background:new 0 0 511.999 511.999;" xml:space="preserve">
<polyline style="fill:#605B58;" points="169.32,405.037 169.32,506.721 121.908,506.721 87.718,506.721 87.718,344.403 "/>
<path style="fill:#F7CB92;" d="M229.328,290.438c0,8.165-6.619,14.784-14.784,14.784h-3.891v32.682l-14.047,46.384v3.486
	c0,3.641-1.131,7.024-3.06,9.814c-3.123,4.503-8.32,7.449-14.204,7.449H47.271V142.555h163.382v133.109h3.891
	c4.077,0,7.781,1.65,10.458,4.327C227.668,282.667,229.328,286.361,229.328,290.438z"/>
<path style="fill:#E2B27F;" d="M193.545,397.589c-3.123,4.503-8.32,7.449-14.204,7.449H47.271v-67.259l36.249-142.031l66.399,5.188
	c0,0,0,101.673,0,130.723C149.92,354.855,156.539,385.99,193.545,397.589z"/>
<path style="fill:#FFF2E9;" d="M483.032,390.522c16.849,11.371,27.929,30.637,27.929,52.486c0,34.942-28.333,63.266-63.276,63.266
	s-63.266-28.323-63.266-63.266c0-18.934,8.32-35.928,21.497-47.516"/>
<path style="fill:#E2B27F;" d="M404.651,392.772l6.451,13.875c6.187,13.307,19.531,21.818,34.205,21.818l0,0
	c23.445,0,41.212-21.162,37.152-44.252l-8.816-50.151L433.882,294.3l-55.684,28.349"/>
<path style="fill:#F7CB92;" d="M435.34,177.927l-2.116,168.865c-5.716,34.268-35.357,59.375-70.081,59.375h-18.135
	c-12.616,0-22.835-10.219-22.835-22.825l1.56-65.362h-26.455V162.365L435.34,177.927z"/>
<path style="fill:#E2B27F;" d="M297.278,162.365v5.262l91.378,10.3l-2.116,168.865c-4.676,28.03-25.364,49.922-51.743,56.966
	c3.073,1.538,6.539,2.409,10.21,2.409h18.135c34.724,0,64.365-25.107,70.081-59.375l2.116-168.865L297.278,162.365z"/>
<path style="fill:#BA7052;" d="M302.46,205.937h99.078v97.012c0,17.183,13.931,31.114,31.114,31.114h40.99
	c19.768,0,35.793-16.025,35.793-35.793v-5.188c0-19.768-16.025-35.793-35.793-35.793l0,0V152.711
	c0-52.799-42.803-95.603-95.602-95.603h-2.474c-54.914,0-99.041,44.131-99.041,98.562c0,8.811,0,17.114,0,24.338
	C276.527,194.332,288.138,205.937,302.46,205.937z"/>
<path style="fill:#A35D45;" d="M473.642,257.29L473.642,257.29V152.711c0-52.799-42.802-95.602-95.602-95.602h-2.473
	c-5.125,0-10.154,0.385-15.064,1.126c45.816,7.075,80.894,46.678,80.894,94.475V257.29l0,0c19.768,0,35.793,16.025,35.793,35.793
	v5.188c0,19.768-16.025,35.793-35.793,35.793h32.244c19.768,0,35.793-16.025,35.793-35.793v-5.188
	C509.435,273.315,493.41,257.29,473.642,257.29z"/>
<g>
	<path style="fill:#D19F71;" d="M348.63,269.518c-10.134,0-19.66-3.945-26.826-11.111c-3.039-3.039-3.039-7.966,0.001-11.004
		c3.038-3.04,7.965-3.039,11.004,0c4.226,4.226,9.844,6.553,15.82,6.553s11.595-2.328,15.821-6.553c3.039-3.04,7.966-3.039,11.004,0
		c3.039,3.039,3.039,7.966-0.001,11.004C368.289,265.573,358.763,269.518,348.63,269.518z"/>
	<path style="fill:#D19F71;" d="M319.065,369.332h-3.113c-4.298,0-7.781-3.484-7.781-7.781c0-4.298,3.484-7.781,7.781-7.781h3.113
		c1.716,0,3.112-1.396,3.112-3.112s-1.396-3.112-3.112-3.112h-3.113c-4.298,0-7.781-3.484-7.781-7.781
		c0-4.298,3.484-7.781,7.781-7.781h3.113c10.296,0,18.673,8.377,18.673,18.674S329.361,369.332,319.065,369.332z"/>
</g>
<path style="fill:#EF6E4B;" d="M212.676,375.253h-3.112c-10.296,0-18.674-8.377-18.674-18.674c0-10.296,8.378-18.674,18.674-18.674
	h3.112c4.298,0,7.781,3.484,7.781,7.781c0,4.298-3.484,7.781-7.781,7.781h-3.112c-1.717,0-3.113,1.396-3.113,3.112
	s1.396,3.112,3.113,3.112h3.112c4.298,0,7.781,3.484,7.781,7.781C220.457,371.769,216.974,375.253,212.676,375.253z"/>
<path style="fill:#DB5B3E;" d="M502.662,146c-6.224,6.224-14.4,9.337-22.555,9.337c-8.176,0-16.33-3.113-22.565-9.337
	l-83.631-83.631l-0.052-0.052c-12.398-12.46-12.378-32.629,0.052-45.068c6.224-6.224,14.4-9.337,22.555-9.337
	s16.288,3.092,22.514,9.286l60.994,61.004l22.69,22.679C515.112,113.34,515.112,133.54,502.662,146z"/>
<path style="fill:#EF6E4B;" d="M479.972,123.31c-6.224,6.224-14.39,9.347-22.555,9.347c-8.165,0-16.32-3.123-22.555-9.347
	l-60.951-60.941l-0.052-0.052c-12.398-12.46-12.378-32.629,0.052-45.068c6.224-6.224,14.4-9.337,22.555-9.337
	c8.154,0,16.288,3.092,22.514,9.286l60.994,61.004C492.432,90.661,492.432,110.86,479.972,123.31z"/>
<g>
	<path style="fill:#605B58;" d="M164.484,276.223c-3.151,0-5.706-2.554-5.706-5.706v-10.65c0-3.152,2.555-5.706,5.706-5.706
		s5.706,2.554,5.706,5.706v10.65C170.19,273.668,167.635,276.223,164.484,276.223z"/>
	<path style="fill:#605B58;" d="M185.316,272.642c-1.46,0-2.921-0.557-4.035-1.671l-9.198-9.198c-2.229-2.229-2.229-5.841,0-8.07
		c2.227-2.228,5.842-2.228,8.069,0l9.198,9.198c2.229,2.229,2.229,5.841,0,8.07C188.237,272.085,186.776,272.642,185.316,272.642z"
		/>
</g>
<path style="fill:#75706B;" d="M121.908,506.717V227.634h3.672c46.985,0,85.073-38.089,85.073-85.073l0,0l0,0
	c0-47.558-38.553-86.111-86.111-86.111l0,0c-64.486,0-116.76,52.276-116.76,116.76v333.506h114.126V506.717z"/>
<g>
	<path style="fill:#605B58;" d="M141.031,58.045c-5.338-1.036-10.847-1.595-16.488-1.595l0,0c-64.486,0-116.76,52.276-116.76,116.76
		v333.506h35.775V173.211C43.557,115.296,85.725,67.239,141.031,58.045z"/>
	<path style="fill:#605B58;" d="M142.798,272.642c-1.46,0-2.921-0.557-4.035-1.671c-2.229-2.229-2.229-5.841,0-8.07l9.198-9.198
		c2.227-2.228,5.842-2.228,8.069,0c2.229,2.229,2.229,5.841,0,8.07l-9.198,9.198C145.718,272.085,144.258,272.642,142.798,272.642z"
		/>
</g>
<path style="fill:#EFD873;" d="M7.781,180.991c-4.298,0-7.781-3.484-7.781-7.781s3.484-7.781,7.781-7.781
	c41.902,0,102.133-4.926,151.113-28.394c29.107-13.946,40.562-28.05,40.675-28.191c2.669-3.346,7.552-3.927,10.915-1.276
	c3.362,2.651,3.965,7.502,1.332,10.878C209.823,121.001,161.284,180.991,7.781,180.991z"/>
<path style="fill:#EF6E4B;" d="M244.329,96.15c0,0,73.661-71.586,40.462-88.186c-24.657-12.328-40.462,21.787-40.462,21.787
	S228.523-4.365,203.868,7.964C170.668,24.563,244.329,96.15,244.329,96.15z"/>
<path style="fill:#605B58;" d="M164.949,264.546c-10.133,0-19.659-3.945-26.825-11.111c-3.04-3.039-3.04-7.965-0.001-11.004
	c3.04-3.039,7.967-3.04,11.004,0c4.227,4.226,9.846,6.553,15.821,6.553c5.976,0,11.595-2.328,15.82-6.553
	c3.04-3.039,7.967-3.04,11.004,0c3.04,3.039,3.04,7.965,0.001,11.004C184.61,260.6,175.083,264.546,164.949,264.546z"/>
<g>
</g>
<g>
</g>
<g>
</g>
<g>
</g>
<g>
</g>
<g>
</g>
<g>
</g>
<g>
</g>
<g>
</g>
<g>
</g>
<g>
</g>
<g>
</g>
<g>
</g>
<g>
</g>
<g>
</g>
</svg>
