<?xml version="1.0" encoding="iso-8859-1"?>
<!-- Generator: Adobe Illustrator 19.0.0, SVG Export Plug-In . SVG Version: 6.00 Build 0)  -->
<svg version="1.1" id="Capa_1" xmlns="http://www.w3.org/2000/svg" xmlns:xlink="http://www.w3.org/1999/xlink" x="0px" y="0px"
	 viewBox="0 0 512 512" style="enable-background:new 0 0 512 512;" xml:space="preserve">
<g>
	<path style="fill:#E2B27F;" d="M332.836,348.108l-16.542,73.696c-2.153,9.589-10.03,16.836-19.766,18.169l-41.664,5.734
		c37.61-37.61-6.533-59.056-30.688-59.056h56.598l15.953-48.501c1.271-3.854,3.697-7.068,6.816-9.337
		c3.13-2.258,6.953-3.56,10.996-3.56C326.545,325.254,335.462,336.387,332.836,348.108z"/>
	<path style="fill:#E2B27F;" d="M176.131,348.108l16.542,73.696c2.153,9.589,10.03,16.836,19.766,18.169l41.664,5.734
		c-37.61-37.61,6.533-59.056,30.688-59.056h-56.598l-15.953-48.501c-1.271-3.854-3.697-7.068-6.816-9.337
		c-3.13-2.258-6.953-3.56-10.996-3.56C182.422,325.254,173.505,336.387,176.131,348.108z"/>
</g>
<path style="fill:#75706B;" d="M170.068,233.546l3.816-5.665c11.832-17.566,10.605-40.842-3.007-57.067l0,0l54.669-17.194
	l-14.379,89.247"/>
<path style="fill:#F7CB92;" d="M394.801,348.108l-16.542,73.696c-2.153,9.589-10.03,16.836-19.766,18.169l-41.664,5.734
	l-52.187,7.184L227.128,512H99.575l46.757-90.154l-26.067-37.463c-3.455-4.968-5.314-10.881-5.314-16.93v-52.082
	c0-5.934,2.384-11.311,6.26-15.218c3.865-3.917,9.221-6.365,15.155-6.438c4.443-0.052,8.581,1.239,12.036,3.487l0.01,0.011
	c5.923,3.865,9.851,10.545,9.851,18.159v42.399l76.353,28.882H342.74l15.953-48.501c1.271-3.854,3.697-7.068,6.816-9.337
	c3.13-2.258,6.953-3.56,10.996-3.56C388.51,325.254,397.427,336.387,394.801,348.108z"/>
<g>
	<path style="fill:#E2B27F;" d="M394.801,348.108l-16.542,73.696c-2.153,9.589-10.03,16.836-19.766,18.169l-41.664,5.734
		c37.61-37.61-6.533-59.056-30.688-59.056h56.598l15.953-48.501c1.271-3.854,3.697-7.068,6.816-9.337
		c3.13-2.258,6.953-3.56,10.996-3.56C388.51,325.254,397.427,336.387,394.801,348.108z"/>
	<path style="fill:#E2B27F;" d="M169.707,471.525L151.72,512H99.575l46.757-90.154l-26.067-37.463
		c-3.455-4.968-5.314-10.881-5.314-16.93v-52.082c0-5.934,2.384-11.311,6.26-15.218c3.865-3.917,9.221-6.365,15.155-6.438
		c4.443-0.052,8.581,1.239,12.036,3.487c-27.191-10.702-16.647,72.247-5.094,83.8c4.856,4.856,12.867,15.836,20.522,26.933
		C176.739,426.649,178.941,450.748,169.707,471.525z"/>
</g>
<polygon style="fill:#75706B;" points="209.948,341.326 209.948,304.971 263.627,268.404 318.764,293.608 306.161,361.346 "/>
<g>
	<path style="fill:#FFF2E9;" d="M376.926,99.114c21.929,21.929,35.499,52.219,35.499,85.69v34.837
		c0,44.872-30.975,82.511-72.707,92.707v10.169c0,35.486-28.768,64.252-64.252,64.252h-56.928
		c-12.548,0-22.721-10.173-22.721-22.721l0,0c0-12.548,10.173-22.721,22.721-22.721h62.107c10.039,0,18.178-8.138,18.178-18.178l0,0
		c0-10.039-8.138-18.178-18.178-18.178h-84.829l0.003-13.627l0.001-20.2h-5.095c-11.409,0-20.657-9.249-20.657-20.657v-16.942
		l15.649-15.659c5.44-5.43,8.15-12.551,8.15-19.671c0-7.121-2.71-14.241-8.15-19.682c-4.201-4.201-9.41-6.764-14.84-7.719
		c3.203-27.874,15.859-52.87,34.679-71.701l59.899-29.513l74.568,11.553"/>
	<path style="fill:#FFF2E9;" d="M270.544,318.859c-4.351,0-7.877-3.527-7.877-7.877v-36.356c0-4.35,3.526-7.877,7.877-7.877
		c4.351,0,7.877,3.527,7.877,7.877v36.356C278.421,315.333,274.895,318.859,270.544,318.859z"/>
	<path style="fill:#FFF2E9;" d="M240.246,318.859c-4.351,0-7.877-3.527-7.877-7.877v-36.356c0-4.35,3.526-7.877,7.877-7.877
		s7.877,3.527,7.877,7.877v36.356C248.123,315.333,244.597,318.859,240.246,318.859z"/>
	<path style="fill:#FFF2E9;" d="M209.948,318.859c-4.351,0-7.877-3.527-7.877-7.877v-36.356c0-4.35,3.526-7.877,7.877-7.877
		c4.351,0,7.877,3.527,7.877,7.877v36.356C217.825,315.333,214.298,318.859,209.948,318.859z"/>
	<path style="fill:#FFF2E9;" d="M270.544,377.385c-4.351,0-7.877-3.527-7.877-7.877v-36.356c0-4.35,3.526-7.877,7.877-7.877
		c4.351,0,7.877,3.527,7.877,7.877v36.356C278.421,373.858,274.895,377.385,270.544,377.385z"/>
	<path style="fill:#FFF2E9;" d="M240.246,377.385c-4.351,0-7.877-3.527-7.877-7.877v-36.356c0-4.35,3.526-7.877,7.877-7.877
		s7.877,3.527,7.877,7.877v36.356C248.123,373.858,244.597,377.385,240.246,377.385z"/>
	<path style="fill:#FFF2E9;" d="M209.948,377.385c-4.351,0-7.877-3.527-7.877-7.877v-36.356c0-4.35,3.526-7.877,7.877-7.877
		c4.351,0,7.877,3.527,7.877,7.877v36.356C217.825,373.858,214.298,377.385,209.948,377.385z"/>
</g>
<g>
	<path style="fill:#605B58;" d="M250.321,178.533L250.321,178.533c-10.869,10.869-10.869,28.49,0,39.359l23.896,23.896
		c10.869,10.869,28.49,10.869,39.359,0l0,0c10.869-10.869,10.869-28.49,0-39.359l-23.896-23.896
		C278.811,167.665,261.189,167.665,250.321,178.533z"/>
	<path style="fill:#605B58;" d="M219.042,279.022c-4.351,0-7.877-3.527-7.877-7.877v-28.277c0-4.35,3.526-7.877,7.877-7.877
		c4.351,0,7.877,3.527,7.877,7.877v28.277C226.919,275.495,223.392,279.022,219.042,279.022z"/>
</g>
<polygon style="fill:#EFD873;" points="377.054,0 377.054,99.112 205.558,99.112 205.558,0 248.429,28.956 291.301,0 
	318.702,18.505 334.182,28.956 "/>
<polygon style="fill:#E0C865;" points="377.052,0.001 377.052,99.114 318.7,99.114 318.7,18.507 334.18,28.957 "/>
<g>
	<path style="fill:#75706B;" d="M291.304,79.49c-4.351,0-7.877-3.527-7.877-7.877V38.004c0-4.35,3.526-7.877,7.877-7.877
		c4.351,0,7.877,3.527,7.877,7.877v33.608C299.181,75.963,295.654,79.49,291.304,79.49z"/>
	<path style="fill:#75706B;" d="M308.108,62.685H274.5c-4.351,0-7.877-3.527-7.877-7.877s3.526-7.877,7.877-7.877h33.608
		c4.351,0,7.877,3.527,7.877,7.877S312.458,62.685,308.108,62.685z"/>
	<path style="fill:#75706B;" d="M231.006,54.813c0,4.348-3.529,7.877-7.877,7.877h-17.571V46.936h17.571
		C227.477,46.936,231.006,50.454,231.006,54.813z"/>
	<path style="fill:#75706B;" d="M377.054,46.936V62.69H359.2c-4.348,0-7.877-3.529-7.877-7.877c0-4.359,3.529-7.877,7.877-7.877
		H377.054z"/>
</g>
<path style="fill:#E2D0C5;" d="M412.425,184.804v34.837c0,44.867-30.972,82.508-72.709,92.706v10.166
	c0,35.488-28.766,64.255-64.255,64.255h-36.759c35.488,0,64.255-28.766,64.255-64.255v-10.166
	c41.737-10.198,72.709-47.839,72.709-92.706v-34.837c0-33.472-13.569-63.761-35.499-85.69h36.759
	C398.856,121.043,412.425,151.332,412.425,184.804z"/>
<ellipse transform="matrix(0.2789 -0.9603 0.9603 0.2789 -216.7431 484.7641)" style="fill:#F7CB92;" cx="214.421" cy="386.706" rx="17.474" ry="45.004"/>
<g>
</g>
<g>
</g>
<g>
</g>
<g>
</g>
<g>
</g>
<g>
</g>
<g>
</g>
<g>
</g>
<g>
</g>
<g>
</g>
<g>
</g>
<g>
</g>
<g>
</g>
<g>
</g>
<g>
</g>
</svg>
