<?xml version="1.0" encoding="iso-8859-1"?>
<!-- Generator: Adobe Illustrator 19.0.0, SVG Export Plug-In . SVG Version: 6.00 Build 0)  -->
<svg version="1.1" id="Capa_1" xmlns="http://www.w3.org/2000/svg" xmlns:xlink="http://www.w3.org/1999/xlink" x="0px" y="0px"
	 viewBox="0 0 512 512" style="enable-background:new 0 0 512 512;" xml:space="preserve">
<path style="fill:#605B58;" d="M171.536,277.179c-4.328,0-7.837-3.509-7.837-7.837v-11.048c0-4.328,3.509-7.837,7.837-7.837
	c4.328,0,7.837,3.509,7.837,7.837v11.048C179.372,273.67,175.864,277.179,171.536,277.179z"/>
<path style="fill:#D19F71;" d="M156.898,269.867c-2.978,0-5.824-1.706-7.138-4.593c-1.792-3.939-0.052-8.586,3.888-10.379
	l19.864-9.038c3.936-1.791,8.585-0.052,10.379,3.888c1.792,3.939,0.052,8.586-3.888,10.379l-19.864,9.038
	C159.086,269.64,157.983,269.867,156.898,269.867z"/>
<polygon style="fill:#605B58;" points="305.103,512 158.176,512 158.176,459.808 305.103,417.189 "/>
<rect x="242.06" y="381.44" style="fill:#E2B27F;" width="76.8" height="97.176"/>
<path style="fill:#F7CB92;" d="M339.228,204.266v143.726c0,38.222-30.971,69.193-69.193,69.193h-69.768v-80.969h-28.735V198.07
	L339.228,204.266z"/>
<g>
	<rect x="171.54" y="206.127" style="fill:#E2B27F;" width="177.1" height="67.176"/>
	<path style="fill:#E2B27F;" d="M171.536,198.073v1.158l136.353,5.034v127.026v16.704l0,0c0,38.215-30.979,69.194-69.195,69.194
		h31.346c38.215,0,69.194-30.979,69.194-69.194l0,0v-16.704V204.264L171.536,198.073z"/>
</g>
<rect x="177.329" style="fill:#75706B;" width="157.351" height="193.588"/>
<rect x="289.08" style="fill:#605B58;" width="45.593" height="192.543"/>
<path style="fill:#75706B;" d="M370.363,180.533H141.635c-26.086,0-47.233,21.147-47.233,47.233l0,0h323.195l0,0
	C417.597,201.681,396.45,180.533,370.363,180.533z"/>
<path style="fill:#605B58;" d="M370.363,180.533h-72.095c26.086,0,47.234,21.147,47.234,47.234l0,0h72.095l0,0
	C417.597,201.681,396.449,180.533,370.363,180.533z"/>
<path style="fill:#FFF2E9;" d="M392.956,252.164c0,13.479-10.93,24.409-24.398,24.409c0,13.469-10.93,24.398-24.409,24.398
	c0,13.479-10.919,24.398-24.398,24.398c-13.479,0-24.398-10.919-24.398-24.398c-13.479,0-24.398-10.93-24.398-24.398
	c0-9.529,5.454-17.774,13.416-21.797c-2.978-1.494-5.601-3.584-7.711-6.113c-3.563-4.232-5.705-9.707-5.705-15.673
	c0-1.797,0.188-3.542,0.564-5.224h97.04c12.278,0,22.444,9.08,24.148,20.898C392.872,249.803,392.956,250.973,392.956,252.164z"/>
<path style="fill:#E2D0C5;" d="M370.777,227.871c-0.002,0-0.004,0-0.006,0c-0.729-0.066-1.466-0.104-2.212-0.104l0,0l0,0h-3.607
	h-93.433c-0.376,1.682-0.564,3.427-0.564,5.224c0,5.966,2.142,11.442,5.705,15.673h71.373c13.2,0,13.989,19.87,0.807,20.561
	c-0.429,0.023-0.861,0.033-1.296,0.033c0,13.469-10.93,24.398-24.409,24.398c0,12.334-9.144,22.519-21.025,24.161
	c4.442,4.651,10.7,7.551,17.642,7.551c13.479,0,24.398-10.919,24.398-24.398c13.479,0,24.409-10.93,24.409-24.398
	c13.469,0,24.398-10.93,24.398-24.409C392.956,239.444,383.206,228.994,370.777,227.871z"/>
<path style="fill:#605B58;" d="M215.168,277.179c-4.328,0-7.837-3.509-7.837-7.837v-11.048c0-4.328,3.509-7.837,7.837-7.837
	c4.328,0,7.837,3.509,7.837,7.837v11.048C223.005,273.67,219.496,277.179,215.168,277.179z"/>
<polygon style="fill:#75706B;" points="367.053,417.185 367.053,511.999 220.119,511.999 220.119,459.806 314.16,432.524 "/>
<polygon style="fill:#605B58;" points="367.053,417.185 367.053,511.999 314.16,511.999 314.16,432.524 "/>
<path style="fill:#A35D45;" d="M225.345,370.175c0,4.326-3.511,7.837-7.837,7.837h-17.241v-15.673h17.241
	C221.834,362.338,225.345,365.839,225.345,370.175z"/>
<path style="fill:#D19F71;" d="M238.923,269.867c-1.087,0-2.189-0.227-3.242-0.706l-35.543-16.177
	c-3.939-1.793-5.679-6.44-3.886-10.379c1.793-3.939,6.44-5.678,10.379-3.886l35.543,16.177c3.939,1.793,5.679,6.44,3.886,10.379
	C244.746,268.161,241.9,269.867,238.923,269.867z"/>
<g>
</g>
<g>
</g>
<g>
</g>
<g>
</g>
<g>
</g>
<g>
</g>
<g>
</g>
<g>
</g>
<g>
</g>
<g>
</g>
<g>
</g>
<g>
</g>
<g>
</g>
<g>
</g>
<g>
</g>
</svg>
