<?xml version="1.0" encoding="iso-8859-1"?>
<!-- Generator: Adobe Illustrator 19.0.0, SVG Export Plug-In . SVG Version: 6.00 Build 0)  -->
<svg version="1.1" id="Capa_1" xmlns="http://www.w3.org/2000/svg" xmlns:xlink="http://www.w3.org/1999/xlink" x="0px" y="0px"
	 viewBox="0 0 512 512" style="enable-background:new 0 0 512 512;" xml:space="preserve">
<path style="fill:#D3C0B6;" d="M167.493,182.638c-0.602,0-1.214-0.07-1.826-0.216l-29.506-7.046
	c-4.206-1.004-6.801-5.228-5.797-9.434c1.004-4.206,5.228-6.799,9.434-5.797l29.506,7.046c4.206,1.004,6.801,5.228,5.797,9.434
	C174.243,180.219,171.033,182.638,167.493,182.638z"/>
<g>
	<path style="fill:#EF6E4B;" d="M229.052,290.323c-4.324,0-7.829-3.505-7.829-7.829V262.97c0-4.324,3.505-7.829,7.829-7.829
		s7.829,3.505,7.829,7.829v19.524C236.882,286.817,233.376,290.323,229.052,290.323z"/>
	<path style="fill:#EF6E4B;" d="M201.941,290.323c-4.324,0-7.829-3.505-7.829-7.829V262.97c0-4.324,3.505-7.829,7.829-7.829
		s7.829,3.505,7.829,7.829v19.524C209.771,286.817,206.265,290.323,201.941,290.323z"/>
	<polygon style="fill:#EF6E4B;" points="199.449,392.528 166.653,369.127 397.604,239.387 250.022,512 165.254,512 166.568,442.633 
			"/>
</g>
<path style="fill:#FFF2E9;" d="M400.709,0.042v300.107l-60.128,28.16l-89.159,43.61h-28.718c-17.235,0-31.202-13.967-31.202-31.202
	V313.2h38.447c14.333,0,25.941-11.619,25.941-25.941v-24.291h-64.387v-27.966h-35.398l1.221-112.866
	c0.313-33.822,14.228-64.367,36.515-86.434C216.138,13.623,246.798,0,280.609,0c1.044,0,2.088,0.01,3.121,0.042H400.709z"/>
<polygon style="fill:#E2D0C5;" points="400.709,121.655 400.709,320.504 340.581,328.309 340.581,121.655 "/>
<path style="fill:#75706B;" d="M400.709,0.042v173.631l-6.837-10.261c-10.502-15.763-33.707-15.617-44,0.282l-6.002,9.27
	l-35.534,54.898c0,0,23.049-105.225-30.628-122.365c-61.705-19.698-92.834,35.231-92.834,35.231s-5.929-21.932-25.92-34.386h-0.47
	c3.779-27.486,16.598-52.069,35.357-70.64C216.138,13.623,246.798,0,280.62,0c1.044,0,2.077,0.01,3.121,0.042H400.709z"/>
<path style="fill:#605B58;" d="M400.709,0.042v173.631l-6.837-10.261c-10.502-15.763-33.707-15.617-44,0.282l-6.002,9.27
	C346.688,59.544,400.709,0.042,400.709,0.042z"/>
<polygon style="fill:#75706B;" points="284.218,392.528 251.421,369.127 482.372,239.387 378.361,433.991 250.022,512 
	251.336,442.633 "/>
<polygon style="fill:#605B58;" points="367.179,304.099 309.828,475.647 378.361,433.991 482.372,239.387 "/>
<path style="fill:#EF6E4B;" d="M214.78,200.806c-4.324,0-7.829-3.505-7.829-7.829v-17.996c0-4.324,3.505-7.829,7.829-7.829
	s7.829,3.505,7.829,7.829v17.996C222.609,197.3,219.104,200.806,214.78,200.806z"/>
<path style="fill:#FFF2E9;" d="M364.072,217.163c-4.324,0-7.829-3.505-7.829-7.829v-9.395c0-12.087,9.833-21.921,21.922-21.921
	c4.324,0,7.829,3.505,7.829,7.829c0,4.324-3.505,7.829-7.829,7.829c-3.453,0-6.263,2.809-6.263,6.262v9.395
	C371.901,213.659,368.396,217.163,364.072,217.163z"/>
<g>
	<path style="fill:#75706B;" d="M119.898,63.928c-4.324,0-7.829-3.505-7.829-7.829c0-7.196-5.853-13.049-13.049-13.049
		c-4.324,0-7.829-3.505-7.829-7.829s3.505-7.829,7.829-7.829c8.219,0,15.64,3.47,20.878,9.023
		c5.238-5.554,12.659-9.023,20.878-9.023c4.324,0,7.829,3.505,7.829,7.829s-3.505,7.829-7.829,7.829
		c-7.196,0-13.049,5.853-13.049,13.049C127.727,60.423,124.221,63.928,119.898,63.928z"/>
	<path style="fill:#75706B;" d="M58.335,111.947c-4.324,0-7.829-3.505-7.829-7.829c0-7.196-5.853-13.049-13.049-13.049
		c-4.324,0-7.829-3.505-7.829-7.829c0-4.324,3.505-7.829,7.829-7.829c8.219,0,15.64,3.47,20.878,9.023
		c5.238-5.554,12.659-9.023,20.878-9.023c4.324,0,7.829,3.505,7.829,7.829c0,4.324-3.505,7.829-7.829,7.829
		c-7.196,0-13.049,5.853-13.049,13.049C66.164,108.442,62.659,111.947,58.335,111.947z"/>
</g>
<path style="fill:#D3C0B6;" d="M198.571,186.683c-3.54,0-6.75-2.418-7.609-6.012c-1.004-4.206,1.59-8.429,5.796-9.435l46.409-11.088
	c4.201-1.003,8.429,1.59,9.435,5.796c1.004,4.206-1.59,8.429-5.796,9.435l-46.409,11.088
	C199.785,186.613,199.173,186.683,198.571,186.683z"/>
<g>
</g>
<g>
</g>
<g>
</g>
<g>
</g>
<g>
</g>
<g>
</g>
<g>
</g>
<g>
</g>
<g>
</g>
<g>
</g>
<g>
</g>
<g>
</g>
<g>
</g>
<g>
</g>
<g>
</g>
</svg>
