<?xml version="1.0" encoding="iso-8859-1"?>
<!-- Generator: Adobe Illustrator 19.0.0, SVG Export Plug-In . SVG Version: 6.00 Build 0)  -->
<svg version="1.1" id="Capa_1" xmlns="http://www.w3.org/2000/svg" xmlns:xlink="http://www.w3.org/1999/xlink" x="0px" y="0px"
	 viewBox="0 0 512 512" style="enable-background:new 0 0 512 512;" xml:space="preserve">
<path style="fill:#D19F71;" d="M179.575,232.562c-0.428,0-0.859-0.034-1.295-0.107l-23.409-3.9c-4.261-0.71-7.139-4.74-6.43-8.999
	c0.71-4.261,4.742-7.142,8.999-6.43l23.409,3.9c4.261,0.71,7.139,4.74,6.43,8.999C186.642,229.85,183.329,232.562,179.575,232.562z"
	/>
<path style="fill:#A35D45;" d="M294.7,395.014l45.097,45.097c-39.103,86.026-157.975,70.858-157.975,70.858v-30.191
	c25.051,0,45.359-20.308,45.359-45.359"/>
<path style="fill:#BA7052;" d="M372.177,395.014l45.097,45.097c-39.103,86.026-157.975,70.858-157.975,70.858v-30.191
	c25.051,0,45.359-20.308,45.359-45.359"/>
<polygon style="fill:#F7CB92;" points="174.35,168.61 174.35,301.654 221.565,301.654 221.565,385.367 354.71,355.649 
	375.043,257.11 364.095,133.545 196.735,139.802 "/>
<polygon style="fill:#E2B27F;" points="174.35,197.884 354.807,197.884 354.807,119.674 174.35,168.61 "/>
<path style="fill:#605B58;" d="M337.011,324.651c-1.971,0-3.943-0.739-5.463-2.225l-170.94-166.926
	c-3.091-3.018-3.149-7.969-0.131-11.06c3.018-3.09,7.969-3.149,11.059-0.131l170.939,166.926c3.091,3.018,3.149,7.969,0.131,11.059
	C341.075,323.863,339.044,324.651,337.011,324.651z"/>
<path style="fill:#75706B;" d="M402.149,168.612v147.242c0,66.03-53.537,119.567-119.567,119.567h-84.425v-133.77h111.151
	c13.41,0,24.287-10.866,24.287-24.287V168.612H402.149z"/>
<path style="fill:#605B58;" d="M360.436,168.61V315.85c0,66.036-53.533,119.569-119.569,119.569h41.712
	c66.036,0,119.569-53.533,119.569-119.569V168.61H360.436z"/>
<path style="fill:#E2D0C5;" d="M311.958,168.61l3.166,25.065c2.66,21.056,20.568,36.845,41.792,36.845h87.992l-32.333-61.91"/>
<path style="fill:#75706B;" d="M426.651,96.732c-39.685,0-76.627-20.026-98.481-53.149C310.844,17.325,281.08,0,247.27,0
	c-39.133,0-72.845,23.208-88.123,56.612c-11.083,24.23-34.873,40.119-61.517,40.119h-0.52v71.88h400.347v-1.075
	C497.454,128.431,465.755,96.732,426.651,96.732L426.651,96.732z"/>
<g>
	<path style="fill:#605B58;" d="M426.651,96.732L426.651,96.732c-39.685,0-76.627-20.026-98.481-53.15
		C310.844,17.325,281.08,0,247.27,0c-3.836,0-7.618,0.23-11.337,0.664c24.79,3.381,46.233,19.631,59.332,42.917
		c18.633,33.123,50.126,53.15,83.957,53.15l0,0c33.337,0,60.362,31.7,60.362,70.804v1.075h57.872v-1.075
		C497.454,128.431,465.755,96.732,426.651,96.732z"/>
	<circle style="fill:#605B58;" cx="253.857" cy="233.669" r="33.442"/>
	<path style="fill:#605B58;" d="M246.575,356.388c-1.376,1.001-2.972,1.47-4.557,1.47c-2.43,0-4.828-1.126-6.361-3.254l-5.788-8.05
		c-2.471-3.452-6.486-5.506-10.73-5.506h-20.981v-15.642h20.981c9.26,0,18.019,4.494,23.432,12.013l5.788,8.061
		C250.882,348.984,250.089,353.875,246.575,356.388z"/>
</g>
<circle style="fill:#BA7052;" cx="231.625" cy="86.395" r="41.806"/>
<path style="fill:#FFF2E9;" d="M296.315,500.076c-6.881,0-10.394-8.698-5.411-13.469c2.265-2.169,5.715-2.772,8.579-1.501
	c3.101,1.376,5.021,4.723,4.589,8.1C303.58,497.061,300.225,500.076,296.315,500.076z"/>
<g>
	<path style="fill:#605B58;" d="M218.328,107.514c-2.001,0-4.003-0.763-5.53-2.291c-3.054-3.054-3.054-8.006,0-11.06l26.597-26.597
		c3.054-3.054,8.007-3.054,11.06,0c3.054,3.054,3.054,8.006,0,11.06l-26.597,26.597C222.33,106.751,220.329,107.514,218.328,107.514
		z"/>
	<path style="fill:#605B58;" d="M244.924,107.514c-2.001,0-4.003-0.763-5.53-2.291l-26.597-26.596c-3.054-3.054-3.054-8.006,0-11.06
		c3.054-3.054,8.007-3.054,11.06,0l26.597,26.597c3.054,3.054,3.054,8.006,0,11.06C248.928,106.751,246.926,107.514,244.924,107.514
		z"/>
	<path style="fill:#605B58;" d="M82.04,292.784c-4.319,0-7.821-3.502-7.821-7.821c0-7.188-5.847-13.035-13.035-13.035
		c-4.319,0-7.821-3.502-7.821-7.821c0-4.319,3.502-7.821,7.821-7.821c8.21,0,15.623,3.467,20.856,9.014
		c5.233-5.547,12.646-9.014,20.856-9.014c4.319,0,7.821,3.502,7.821,7.821c0,4.319-3.502,7.821-7.821,7.821
		c-7.188,0-13.035,5.847-13.035,13.035C89.861,289.282,86.359,292.784,82.04,292.784z"/>
	<path style="fill:#605B58;" d="M43.221,233.345c-4.319,0-7.821-3.502-7.821-7.821c0-7.188-5.847-13.035-13.035-13.035
		c-4.319,0-7.821-3.502-7.821-7.821s3.502-7.821,7.821-7.821c8.21,0,15.623,3.467,20.856,9.014
		c5.233-5.547,12.646-9.014,20.856-9.014c4.319,0,7.821,3.502,7.821,7.821s-3.502,7.821-7.821,7.821
		c-7.188,0-13.035,5.847-13.035,13.035C51.042,229.843,47.54,233.345,43.221,233.345z"/>
</g>
<g>
</g>
<g>
</g>
<g>
</g>
<g>
</g>
<g>
</g>
<g>
</g>
<g>
</g>
<g>
</g>
<g>
</g>
<g>
</g>
<g>
</g>
<g>
</g>
<g>
</g>
<g>
</g>
<g>
</g>
</svg>
