<?xml version="1.0" encoding="iso-8859-1"?>
<!-- Generator: Adobe Illustrator 19.0.0, SVG Export Plug-In . SVG Version: 6.00 Build 0)  -->
<svg version="1.1" id="Capa_1" xmlns="http://www.w3.org/2000/svg" xmlns:xlink="http://www.w3.org/1999/xlink" x="0px" y="0px"
	 viewBox="0 0 512 512" style="enable-background:new 0 0 512 512;" xml:space="preserve">
<g>
	<path style="fill:#605B58;" d="M147.808,244.252c-4.327,0-7.834-3.508-7.834-7.834v-13.573c0-4.326,3.506-7.834,7.834-7.834
		s7.834,3.508,7.834,7.834v13.573C155.642,240.744,152.135,244.252,147.808,244.252z"/>
	<path style="fill:#605B58;" d="M148.725,229.622c-0.655,0-1.32-0.083-1.983-0.256l-26.887-7.014
		c-4.186-1.093-6.694-5.371-5.602-9.557c1.093-4.186,5.374-6.694,9.557-5.603l26.887,7.014c4.186,1.093,6.694,5.371,5.602,9.557
		C155.381,227.287,152.204,229.622,148.725,229.622z"/>
</g>
<path style="fill:#EFD873;" d="M409.214,392.653l-10.894,38.898c-7.364,26.312-28.818,46.293-55.579,51.798l-2.162,0.439
	L203.223,512l43.807-85.672l89.338-31.743l24.243-8.607L409.214,392.653z"/>
<path style="fill:#E0C865;" d="M409.214,392.653l-10.894,38.898c-7.364,26.312-28.818,46.293-55.579,51.798l-2.162,0.439
	c20.598-34.229,5.254-75.007,5.254-75.007l-9.463-14.195l24.243-8.607L409.214,392.653z"/>
<path style="fill:#A35D45;" d="M369.974,413.906l-19.456-58.043l-111.33,35.156l16.348,73.568l20.062,0.401
	C313.854,465.752,349.696,446.353,369.974,413.906L369.974,413.906z"/>
<path style="fill:#BA7052;" d="M358.789,104.999v218.45c0,37.318-30.253,67.57-67.57,67.57h-95.52
	c-8.74,0-15.824-7.085-15.824-15.823l0,0v-76.678v-20.082h-17.755c-9.352,0-16.933-7.581-16.933-16.933V79.439"/>
<path style="fill:#A35D45;" d="M145.188,79.439v6.153l162.173,19.405v218.45c0,37.318-30.252,67.57-67.57,67.57h51.428
	c37.318,0,67.57-30.252,67.57-67.57V104.999L145.188,79.439z"/>
<path style="fill:#75706B;" d="M421.493,123.383c-0.792-9.64-6.476-17.697-14.411-21.933c4.625-7.717,5.368-17.54,1.095-26.205
	c-4.26-8.654-12.463-14.058-21.385-15.105c1.497-8.849-1.376-18.245-8.471-24.757c-7.108-6.536-16.724-8.593-25.427-6.341
	c-1.812-8.8-7.924-16.53-16.943-20.022c-9.006-3.481-18.72-1.886-25.998,3.396C305.059,4.942,296.613,0,287.009,0
	c-7.875,0-14.983,3.323-19.973,8.654C262.033,3.324,254.937,0,247.049,0c-7.875,0-14.983,3.323-19.973,8.654
	C222.074,3.324,214.977,0,207.09,0c-8.216,0-15.579,3.615-20.606,9.348c-6.378-6.281-15.702-9.312-25.098-7.254
	c-10.577,2.325-18.378,10.456-20.764,20.314c-9.774-2.642-20.643,0.256-27.765,8.374c-7.132,8.131-8.592,19.292-4.686,28.64
	c-9.458,3.652-16.517,12.452-17.43,23.235c-0.73,8.63,2.618,16.651,8.436,22.189c-5.393,5.002-8.764,12.147-8.764,20.083
	c0,13.096,9.201,24.051,21.495,26.753c-1.583,13.522,7.144,26.424,20.715,29.736c11.27,2.751,22.591-1.899,28.896-10.833
	c6.074,4.71,14.095,6.841,22.213,5.198c4.345-0.876,8.239-2.739,11.502-5.307c2.47,3.323,5.756,6.147,9.725,8.119
	c4.419,2.215,9.142,3.103,13.755,2.848c0.061,5.977,2.093,11.977,6.17,16.98c4.978,6.098,12.051,9.494,19.341,10.005
	c-0.975,7.23,0.937,14.85,5.928,20.948c4.991,6.126,12.101,9.516,19.409,9.999c-0.587,4.264-0.2,8.678,1.298,12.862
	c3.853,10.765,14.334,18.157,25.775,18.157c12.905,0,24.313-9.39,26.852-22.031c0.53-2.637,0.63-5.308,0.367-7.93
	c5.47-1.265,10.565-4.214,14.461-8.694c3.989,4.993,9.42,8.243,15.27,9.581c-0.546,4.213-0.139,8.56,1.343,12.66
	c3.886,10.75,14.296,18.164,25.765,18.164c12.918,0,24.309-9.405,26.851-22.043c1.629-8.103-0.666-16.479-5.758-22.724
	c6.026-4.237,10.339-10.877,11.395-18.758c1.048-7.814-1.303-15.288-5.916-20.959c5.941-4.236,10.187-10.833,11.235-18.647
	c1.131-8.387-1.668-16.395-6.975-22.189C418.255,141.324,422.26,132.707,421.493,123.383z"/>
<path style="fill:#605B58;" d="M421.491,123.381c-0.784-9.635-6.474-17.701-14.409-21.93c4.621-7.717,5.373-17.538,1.089-26.202
	c-4.251-8.654-12.458-14.06-21.385-15.107c1.504-8.85-1.374-18.246-8.469-24.764c-7.107-6.528-16.72-8.589-25.428-6.333
	c-1.809-8.806-7.924-16.535-16.938-20.022c-9.003-3.488-18.725-1.897-25.995,3.389C305.063,4.937,296.616,0,287.014,0
	c-7.88,0-14.987,3.325-19.979,8.654c-5.003-5.33,13.854,11.586,15.663,20.393c8.708-2.256,18.322-0.196,25.429,6.333
	c7.095,6.518,9.962,15.913,8.469,24.764c8.927,1.047,17.123,6.452,21.385,15.107c4.273,8.665,3.532,18.485-1.089,26.202
	c7.935,4.229,13.613,12.294,14.409,21.93c0.764,9.33-3.237,17.941-9.973,23.444c5.308,5.798,8.109,13.799,6.975,22.191
	c-1.047,7.815-5.297,14.409-11.237,18.649c4.621,5.668,6.965,13.144,5.918,20.959c-1.057,7.88-5.363,14.518-11.389,18.758
	c1.722,2.104,3.117,4.447,4.152,6.943c0.905-0.784,1.766-1.657,2.573-2.583c3.989,4.992,9.417,8.24,15.27,9.58
	c-0.545,4.207-0.142,8.556,1.34,12.654c3.891,10.747,14.301,18.169,25.766,18.169c12.916,0,24.305-9.406,26.845-22.05
	c1.635-8.098-0.664-16.479-5.755-22.714c6.027-4.24,10.344-10.878,11.401-18.758c1.047-7.815-1.308-15.292-5.918-20.959
	c5.94-4.24,10.18-10.834,11.237-18.649c1.123-8.393-1.668-16.393-6.975-22.191C418.254,141.322,422.265,132.711,421.491,123.381z"/>
<g>
	<path style="fill:#8E4A38;" d="M210.912,332.519h-34.078c-4.327,0-7.834-3.508-7.834-7.834c0-4.326,3.506-7.834,7.834-7.834h34.078
		c4.327,0,7.834,3.508,7.834,7.834C218.746,329.012,215.238,332.519,210.912,332.519z"/>
	<path style="fill:#8E4A38;" d="M210.912,351.641h-34.714c-4.327,0-7.834-3.508-7.834-7.834s3.506-7.834,7.834-7.834h34.714
		c4.327,0,7.834,3.508,7.834,7.834S215.238,351.641,210.912,351.641z"/>
</g>
<g>
	<path style="fill:#605B58;" d="M184.368,244.252c-4.327,0-7.834-3.508-7.834-7.834v-13.573c0-4.326,3.506-7.834,7.834-7.834
		s7.834,3.508,7.834,7.834v13.573C192.202,240.744,188.696,244.252,184.368,244.252z"/>
	<path style="fill:#605B58;" d="M295.611,153.931c-4.327,0-7.834-3.508-7.834-7.834c0-4.326,3.506-7.834,7.834-7.834
		c7.55,0,13.692-6.143,13.692-13.693s-6.143-13.693-13.692-13.693c-4.327,0-7.834-3.508-7.834-7.834
		c0-7.55-6.143-13.693-13.693-13.693c-7.55,0-13.692,6.143-13.692,13.693c0,4.326-3.506,7.834-7.834,7.834
		c-4.327,0-7.834-3.508-7.834-7.834c0-16.189,13.17-29.361,29.36-29.361c13.78,0,25.375,9.543,28.52,22.367
		c12.824,3.145,22.367,14.739,22.367,28.519C324.972,140.76,311.8,153.931,295.611,153.931z"/>
	<path style="fill:#605B58;" d="M198.546,98.779c-4.327,0-7.834-3.508-7.834-7.834c0-4.326,3.506-7.834,7.834-7.834
		c6.498,0,11.784-5.286,11.784-11.785c0-6.499-5.287-11.785-11.784-11.785c-6.499,0-11.785,5.286-11.785,11.785
		c0,4.326-3.506,7.834-7.834,7.834c-4.327,0-7.834-3.508-7.834-7.834c0-15.137,12.316-27.453,27.453-27.453
		c15.137,0,27.452,12.315,27.452,27.453S213.683,98.779,198.546,98.779z"/>
	<path style="fill:#605B58;" d="M165.288,229.621c-3.702,0-6.993-2.634-7.693-6.405c-0.79-4.254,2.019-8.343,6.272-9.132
		l37.788-7.014c4.252-0.792,8.343,2.019,9.132,6.272c0.79,4.254-2.019,8.343-6.272,9.132l-37.788,7.014
		C166.244,229.578,165.762,229.621,165.288,229.621z"/>
</g>
<g>
</g>
<g>
</g>
<g>
</g>
<g>
</g>
<g>
</g>
<g>
</g>
<g>
</g>
<g>
</g>
<g>
</g>
<g>
</g>
<g>
</g>
<g>
</g>
<g>
</g>
<g>
</g>
<g>
</g>
</svg>
