<?xml version="1.0" encoding="iso-8859-1"?>
<!-- Generator: Adobe Illustrator 19.0.0, SVG Export Plug-In . SVG Version: 6.00 Build 0)  -->
<svg version="1.1" id="Capa_1" xmlns="http://www.w3.org/2000/svg" xmlns:xlink="http://www.w3.org/1999/xlink" x="0px" y="0px"
	 viewBox="0 0 512 512" style="enable-background:new 0 0 512 512;" xml:space="preserve">
<g>
	<polyline style="fill:#605B58;" points="384.963,507.767 164.398,507.767 202.161,432.24 299.994,432.24 	"/>
	<path style="fill:#605B58;" d="M114.313,397.846c-4.759,0-8.616-3.858-8.616-8.616v-16.984c0-20.689,16.831-37.52,37.52-37.52
		c4.759,0,8.616,3.858,8.616,8.616c0,4.759-3.858,8.616-8.616,8.616c-11.186,0-20.287,9.101-20.287,20.287v16.984
		C122.93,393.989,119.072,397.846,114.313,397.846z"/>
</g>
<rect x="248.824" y="213.732" style="fill:#E2B27F;" width="159.205" height="252.724"/>
<path style="fill:#F7CB92;" d="M408.031,196.268v130.754l-62.011-2.174l0,0c-7.478,46.908-47.937,81.428-95.438,81.428h-60.736
	c-15.423,0-27.926-12.502-27.926-27.926v-62.429h-48.384V202.353l68.027-117.832l173.237-8.85L408.031,196.268z"/>
<path style="fill:#E2B27F;" d="M250.582,406.277c32.02,0,42.506-94.715,45.224-161.444c0.848-20.83-15.8-38.176-36.648-38.176
	H113.537l-1.006-40.712l90.274-70.803H303.7h69.033l43.291,77.884l-7.993,16.701v38.944v98.353V416.9"/>
<path style="fill:#A35D45;" d="M180.745,179.591h101.32c12.509,0,22.65,10.141,22.65,22.65v24.66
	c0,16.294,13.209,29.502,29.502,29.502l0,0l0,0c0-16.946,13.738-30.683,30.683-30.683h43.13V111.248H179.622L180.745,179.591z"/>
<path style="fill:#75706B;" d="M313.507,22.763l-24.511-0.083l-31.863-0.094C109.453,33.987,114.717,137.21,114.717,137.21h0.001
	L36.61,190.507c-7.339,5.008-3.973,16.489,4.909,16.744c139.905,4.021,181.769-62.959,181.769-62.96l99.624,3.988l32.323,12.332
	l13.96,5.334l46.827-23.732C416.023,142.214,455.404,35.367,313.507,22.763z"/>
<path style="fill:#605B58;" d="M322.914,148.284c0,0,33.966,54.346,146.235,54.141c10.67-0.02,14.951-13.759,6.137-19.773
	l-59.266-40.44L322.914,148.284z"/>
<path style="fill:#BA7052;" d="M87.236,469.676l-0.638-13.418c-0.22-4.624-4.033-8.26-8.662-8.26H40.644
	c-5.341,0-9.412,4.781-8.562,10.053l3.561,22.079C38.606,498.498,54.46,512,73.065,512l0,0c18.356,0,34.076-13.154,37.311-31.223
	l15.907-88.813c1.707-9.532-5.621-18.289-15.304-18.289l0,0c-6.765,0-12.752,4.373-14.811,10.817l-20.286,63.507"/>
<path style="fill:#A35D45;" d="M110.979,373.675c-1.728,0-3.402,0.288-4.976,0.82c7.055,2.381,11.723,9.661,10.325,17.469
	l-15.908,88.813c-2.939,16.41-16.174,28.763-32.328,30.894c1.63,0.215,3.289,0.329,4.973,0.329l0,0
	c18.356,0,34.076-13.154,37.311-31.223l15.907-88.813C127.991,382.432,120.663,373.675,110.979,373.675z"/>
<polyline style="fill:#75706B;" points="263.527,432.24 446.329,432.24 446.329,507.767 225.763,507.767 263.527,432.24 "/>
<path style="fill:#D19F71;" d="M189.972,250.716c-10.41,0-20.195-4.054-27.556-11.414c-3.121-3.121-3.121-8.182,0-11.304
	c3.121-3.12,8.182-3.121,11.304,0c4.341,4.341,10.112,6.731,16.252,6.731c6.139,0,11.91-2.39,16.251-6.731
	c3.121-3.121,8.182-3.121,11.304,0c3.121,3.121,3.121,8.182,0,11.304C210.167,246.663,200.382,250.716,189.972,250.716z"/>
<path style="fill:#A35D45;" d="M188.421,346.797h-26.039v-15.986h26.039c4.415,0,7.993,3.579,7.993,7.993l0,0
	C196.415,343.218,192.836,346.797,188.421,346.797z"/>
<polyline style="fill:#BA7052;" points="79.858,469.676 95.941,469.676 82.834,426.233 75.882,447.999 "/>
<path id="SVGCleanerId_0" style="fill:#A35D45;" d="M90.847,469.681L90.847,469.681c-2.021,0-3.687-1.589-3.781-3.608l-0.463-9.81
	c-0.218-4.623-4.03-8.26-8.658-8.26h-2.061l6.95-21.758l11.635,38.557C95.205,467.233,93.386,469.681,90.847,469.681z"/>
<g>
	<path id="SVGCleanerId_0_1_" style="fill:#A35D45;" d="M90.847,469.681L90.847,469.681c-2.021,0-3.687-1.589-3.781-3.608
		l-0.463-9.81c-0.218-4.623-4.03-8.26-8.658-8.26h-2.061l6.95-21.758l11.635,38.557C95.205,467.233,93.386,469.681,90.847,469.681z"
		/>
</g>
<path style="fill:#605B58;" d="M416.023,142.214l-46.827,23.732l-13.96-5.334c-0.354-3.835,0.106-8.638,1.546-14.539
	c16.274-67.042-46.838-110.907-67.785-123.393l24.511,0.083C455.404,35.367,416.023,142.214,416.023,142.214z"/>
<path style="fill:#8C8884;" d="M223.287,144.291l99.625,3.993l-10.2-136.059C312.196,5.33,306.452,0,299.538,0h-26.088
	c-5.934,0-11.139,3.955-12.729,9.672L223.287,144.291z"/>
<g>
</g>
<g>
</g>
<g>
</g>
<g>
</g>
<g>
</g>
<g>
</g>
<g>
</g>
<g>
</g>
<g>
</g>
<g>
</g>
<g>
</g>
<g>
</g>
<g>
</g>
<g>
</g>
<g>
</g>
</svg>
